<svg viewBox="0 0 800 600" xmlns="http://www.w3.org/2000/svg" xmlns:xlink="http://www.w3.org/1999/xlink" xmlns:bx="https://www.boxy-svg.com/bx">
<rect x="80" y="60" width="640" height="480" style="fill:none;stroke:rgb(105,105,105);"></rect>
<text x="400" y="590" text-anchor="middle" font-family="Arial, Helvetica, sans-serif" style="font-size:24;">Iteration</text>
<text x="0" y="0" text-anchor="middle" font-family="Arial, Helvetica, sans-serif" alignment-baseline="middle" transform="translate(20,300) rotate(270)" style="font-size:24;">Coefficient</text>
<line x1="138" y1="540" x2="138" y2="60" style="stroke:rgb(200,200,200);stroke-width:1;stroke-dasharray:4;"></line>
<line x1="196" y1="540" x2="196" y2="60" style="stroke:rgb(200,200,200);stroke-width:1;stroke-dasharray:4;"></line>
<line x1="255" y1="540" x2="255" y2="60" style="stroke:rgb(200,200,200);stroke-width:1;stroke-dasharray:4;"></line>
<line x1="313" y1="540" x2="313" y2="60" style="stroke:rgb(200,200,200);stroke-width:1;stroke-dasharray:4;"></line>
<line x1="371" y1="540" x2="371" y2="60" style="stroke:rgb(200,200,200);stroke-width:1;stroke-dasharray:4;"></line>
<line x1="429" y1="540" x2="429" y2="60" style="stroke:rgb(200,200,200);stroke-width:1;stroke-dasharray:4;"></line>
<line x1="487" y1="540" x2="487" y2="60" style="stroke:rgb(200,200,200);stroke-width:1;stroke-dasharray:4;"></line>
<line x1="545" y1="540" x2="545" y2="60" style="stroke:rgb(200,200,200);stroke-width:1;stroke-dasharray:4;"></line>
<line x1="604" y1="540" x2="604" y2="60" style="stroke:rgb(200,200,200);stroke-width:1;stroke-dasharray:4;"></line>
<line x1="662" y1="540" x2="662" y2="60" style="stroke:rgb(200,200,200);stroke-width:1;stroke-dasharray:4;"></line>
<line x1="80" y1="500" x2="720" y2="500" style="stroke:rgb(200,200,200);stroke-width:1;stroke-dasharray:4;"></line>
<line x1="80" y1="460" x2="720" y2="460" style="stroke:rgb(200,200,200);stroke-width:1;stroke-dasharray:4;"></line>
<line x1="80" y1="420" x2="720" y2="420" style="stroke:rgb(200,200,200);stroke-width:1;stroke-dasharray:4;"></line>
<line x1="80" y1="380" x2="720" y2="380" style="stroke:rgb(200,200,200);stroke-width:1;stroke-dasharray:4;"></line>
<line x1="80" y1="340" x2="720" y2="340" style="stroke:rgb(200,200,200);stroke-width:1;stroke-dasharray:4;"></line>
<line x1="80" y1="300" x2="720" y2="300" style="stroke:rgb(200,200,200);stroke-width:1;stroke-dasharray:4;"></line>
<line x1="80" y1="260" x2="720" y2="260" style="stroke:rgb(200,200,200);stroke-width:1;stroke-dasharray:4;"></line>
<line x1="80" y1="220" x2="720" y2="220" style="stroke:rgb(200,200,200);stroke-width:1;stroke-dasharray:4;"></line>
<line x1="80" y1="180" x2="720" y2="180" style="stroke:rgb(200,200,200);stroke-width:1;stroke-dasharray:4;"></line>
<line x1="80" y1="140" x2="720" y2="140" style="stroke:rgb(200,200,200);stroke-width:1;stroke-dasharray:4;"></line>
<line x1="80" y1="100" x2="720" y2="100" style="stroke:rgb(200,200,200);stroke-width:1;stroke-dasharray:4;"></line>
<line x1="80" y1="540" x2="80" y2="544" style="stroke:rgb(105,105,105);stroke-width:2;"></line>
<text x="80" y="569" text-anchor="middle" font-family="Arial, Helvetica, sans-serif" style="font-size:20;">0</text>
<line x1="138" y1="540" x2="138" y2="544" style="stroke:rgb(105,105,105);stroke-width:2;"></line>
<text x="138" y="569" text-anchor="middle" font-family="Arial, Helvetica, sans-serif" style="font-size:20;">20</text>
<line x1="196" y1="540" x2="196" y2="544" style="stroke:rgb(105,105,105);stroke-width:2;"></line>
<text x="196" y="569" text-anchor="middle" font-family="Arial, Helvetica, sans-serif" style="font-size:20;">40</text>
<line x1="255" y1="540" x2="255" y2="544" style="stroke:rgb(105,105,105);stroke-width:2;"></line>
<text x="255" y="569" text-anchor="middle" font-family="Arial, Helvetica, sans-serif" style="font-size:20;">60</text>
<line x1="313" y1="540" x2="313" y2="544" style="stroke:rgb(105,105,105);stroke-width:2;"></line>
<text x="313" y="569" text-anchor="middle" font-family="Arial, Helvetica, sans-serif" style="font-size:20;">80</text>
<line x1="371" y1="540" x2="371" y2="544" style="stroke:rgb(105,105,105);stroke-width:2;"></line>
<text x="371" y="569" text-anchor="middle" font-family="Arial, Helvetica, sans-serif" style="font-size:20;">100</text>
<line x1="429" y1="540" x2="429" y2="544" style="stroke:rgb(105,105,105);stroke-width:2;"></line>
<text x="429" y="569" text-anchor="middle" font-family="Arial, Helvetica, sans-serif" style="font-size:20;">120</text>
<line x1="487" y1="540" x2="487" y2="544" style="stroke:rgb(105,105,105);stroke-width:2;"></line>
<text x="487" y="569" text-anchor="middle" font-family="Arial, Helvetica, sans-serif" style="font-size:20;">140</text>
<line x1="545" y1="540" x2="545" y2="544" style="stroke:rgb(105,105,105);stroke-width:2;"></line>
<text x="545" y="569" text-anchor="middle" font-family="Arial, Helvetica, sans-serif" style="font-size:20;">160</text>
<line x1="604" y1="540" x2="604" y2="544" style="stroke:rgb(105,105,105);stroke-width:2;"></line>
<text x="604" y="569" text-anchor="middle" font-family="Arial, Helvetica, sans-serif" style="font-size:20;">180</text>
<line x1="662" y1="540" x2="662" y2="544" style="stroke:rgb(105,105,105);stroke-width:2;"></line>
<text x="662" y="569" text-anchor="middle" font-family="Arial, Helvetica, sans-serif" style="font-size:20;">200</text>
<line x1="720" y1="540" x2="720" y2="544" style="stroke:rgb(105,105,105);stroke-width:2;"></line>
<text x="720" y="569" text-anchor="middle" font-family="Arial, Helvetica, sans-serif" style="font-size:20;">220</text>
<line x1="80" y1="540" x2="76" y2="540" style="stroke:rgb(105,105,105);stroke-width:1;"></line>
<text x="66" y="548" text-anchor="end" font-family="Arial, Helvetica, sans-serif" style="font-size:20;">-1.2</text>
<line x1="80" y1="500" x2="76" y2="500" style="stroke:rgb(105,105,105);stroke-width:1;"></line>
<text x="66" y="508" text-anchor="end" font-family="Arial, Helvetica, sans-serif" style="font-size:20;">-1</text>
<line x1="80" y1="460" x2="76" y2="460" style="stroke:rgb(105,105,105);stroke-width:1;"></line>
<text x="66" y="468" text-anchor="end" font-family="Arial, Helvetica, sans-serif" style="font-size:20;">-0.8</text>
<line x1="80" y1="420" x2="76" y2="420" style="stroke:rgb(105,105,105);stroke-width:1;"></line>
<text x="66" y="428" text-anchor="end" font-family="Arial, Helvetica, sans-serif" style="font-size:20;">-0.6</text>
<line x1="80" y1="380" x2="76" y2="380" style="stroke:rgb(105,105,105);stroke-width:1;"></line>
<text x="66" y="388" text-anchor="end" font-family="Arial, Helvetica, sans-serif" style="font-size:20;">-0.4</text>
<line x1="80" y1="340" x2="76" y2="340" style="stroke:rgb(105,105,105);stroke-width:1;"></line>
<text x="66" y="348" text-anchor="end" font-family="Arial, Helvetica, sans-serif" style="font-size:20;">-0.2</text>
<line x1="80" y1="300" x2="76" y2="300" style="stroke:rgb(105,105,105);stroke-width:1;"></line>
<text x="66" y="308" text-anchor="end" font-family="Arial, Helvetica, sans-serif" style="font-size:20;">0</text>
<line x1="80" y1="260" x2="76" y2="260" style="stroke:rgb(105,105,105);stroke-width:1;"></line>
<text x="66" y="268" text-anchor="end" font-family="Arial, Helvetica, sans-serif" style="font-size:20;">0.2</text>
<line x1="80" y1="220" x2="76" y2="220" style="stroke:rgb(105,105,105);stroke-width:1;"></line>
<text x="66" y="228" text-anchor="end" font-family="Arial, Helvetica, sans-serif" style="font-size:20;">0.4</text>
<line x1="80" y1="180" x2="76" y2="180" style="stroke:rgb(105,105,105);stroke-width:1;"></line>
<text x="66" y="188" text-anchor="end" font-family="Arial, Helvetica, sans-serif" style="font-size:20;">0.6</text>
<line x1="80" y1="140" x2="76" y2="140" style="stroke:rgb(105,105,105);stroke-width:1;"></line>
<text x="66" y="148" text-anchor="end" font-family="Arial, Helvetica, sans-serif" style="font-size:20;">0.8</text>
<line x1="80" y1="100" x2="76" y2="100" style="stroke:rgb(105,105,105);stroke-width:1;"></line>
<text x="66" y="108" text-anchor="end" font-family="Arial, Helvetica, sans-serif" style="font-size:20;">1</text>
<line x1="80" y1="60" x2="76" y2="60" style="stroke:rgb(105,105,105);stroke-width:1;"></line>
<text x="66" y="68" text-anchor="end" font-family="Arial, Helvetica, sans-serif" style="font-size:20;">1.2</text>
<text x="650" y="90" text-anchor="end" font-family="Arial, Helvetica, sans-serif" style="font-size:20;">Cd</text>
<line stroke-dasharray="0" x1="660" y1="80" x2="700" y2="80" style="stroke:#CC6677;stroke-width:2;"></line>
<path d=" M 8.300000e+01 3.000000e+02 L 8.600000e+01 3.000000e+02 L 8.900000e+01 3.000000e+02 L 9.200000e+01 3.000000e+02 L 9.500000e+01 3.000000e+02 L 9.700000e+01 3.000000e+02 L 1.000000e+02 3.000000e+02 L 1.030000e+02 3.000000e+02 L 1.060000e+02 3.000000e+02 L 1.090000e+02 3.000000e+02 L 1.120000e+02 3.000000e+02 L 1.150000e+02 3.000000e+02 L 1.180000e+02 3.000000e+02 L 1.210000e+02 3.000000e+02 L 1.240000e+02 3.000000e+02 L 1.270000e+02 3.000000e+02 L 1.290000e+02 3.000000e+02 L 1.320000e+02 3.000000e+02 L 1.350000e+02 3.000000e+02 L 1.380000e+02 3.000000e+02 L 1.410000e+02 3.000000e+02 L 1.440000e+02 3.000000e+02 L 1.470000e+02 3.000000e+02 L 1.500000e+02 3.000000e+02 L 1.530000e+02 3.000000e+02 L 1.560000e+02 3.000000e+02 L 1.590000e+02 3.000000e+02 L 1.610000e+02 3.000000e+02 L 1.640000e+02 3.000000e+02 L 1.670000e+02 3.000000e+02 L 1.700000e+02 3.000000e+02 L 1.730000e+02 3.000000e+02 L 1.760000e+02 3.000000e+02 L 1.790000e+02 3.000000e+02 L 1.820000e+02 3.000000e+02 L 1.850000e+02 3.000000e+02 L 1.880000e+02 3.000000e+02 L 1.910000e+02 3.000000e+02 L 1.930000e+02 3.000000e+02 L 1.960000e+02 3.000000e+02 L 1.990000e+02 3.000000e+02 L 2.020000e+02 3.000000e+02 L 2.050000e+02 3.000000e+02 L 2.080000e+02 3.000000e+02 L 2.110000e+02 3.000000e+02 L 2.140000e+02 3.000000e+02 L 2.170000e+02 3.000000e+02 L 2.200000e+02 3.000000e+02 L 2.230000e+02 3.000000e+02 L 2.250000e+02 3.000000e+02 L 2.280000e+02 3.000000e+02 L 2.310000e+02 3.000000e+02 L 2.340000e+02 3.000000e+02 L 2.370000e+02 3.000000e+02 L 2.400000e+02 3.000000e+02 L 2.430000e+02 3.000000e+02 L 2.460000e+02 3.000000e+02 L 2.490000e+02 3.000000e+02 L 2.520000e+02 3.000000e+02 L 2.550000e+02 3.000000e+02 L 2.570000e+02 3.000000e+02 L 2.600000e+02 3.000000e+02 L 2.630000e+02 3.000000e+02 L 2.660000e+02 3.000000e+02 L 2.690000e+02 3.000000e+02 L 2.720000e+02 3.000000e+02 L 2.750000e+02 3.000000e+02 L 2.780000e+02 3.000000e+02 L 2.810000e+02 3.000000e+02 L 2.840000e+02 3.000000e+02 L 2.870000e+02 3.000000e+02 L 2.890000e+02 3.000000e+02 L 2.920000e+02 3.000000e+02 L 2.950000e+02 3.000000e+02 L 2.980000e+02 3.000000e+02 L 3.010000e+02 3.000000e+02 L 3.040000e+02 3.000000e+02 L 3.070000e+02 3.000000e+02 L 3.100000e+02 3.000000e+02 L 3.130000e+02 3.000000e+02 L 3.160000e+02 3.000000e+02 L 3.190000e+02 3.000000e+02 L 3.210000e+02 3.000000e+02 L 3.240000e+02 3.000000e+02 L 3.270000e+02 3.000000e+02 L 3.300000e+02 3.000000e+02 L 3.330000e+02 3.000000e+02 L 3.360000e+02 3.000000e+02 L 3.390000e+02 3.000000e+02 L 3.420000e+02 3.000000e+02 L 3.450000e+02 3.000000e+02 L 3.480000e+02 3.000000e+02 L 3.510000e+02 3.000000e+02 L 3.530000e+02 3.000000e+02 L 3.560000e+02 3.000000e+02 L 3.590000e+02 3.000000e+02 L 3.620000e+02 3.000000e+02 L 3.650000e+02 3.000000e+02 L 3.680000e+02 3.000000e+02 L 3.710000e+02 3.000000e+02 L 3.740000e+02 3.000000e+02 L 3.770000e+02 3.000000e+02 L 3.800000e+02 3.000000e+02 L 3.830000e+02 3.000000e+02 L 3.850000e+02 3.000000e+02 L 3.880000e+02 3.000000e+02 L 3.910000e+02 3.000000e+02 L 3.940000e+02 3.000000e+02 L 3.970000e+02 3.000000e+02 L 4.000000e+02 3.000000e+02 L 4.030000e+02 3.000000e+02 L 4.060000e+02 3.000000e+02 L 4.090000e+02 3.000000e+02 L 4.120000e+02 3.000000e+02 L 4.150000e+02 3.000000e+02 L 4.170000e+02 3.000000e+02 L 4.200000e+02 3.000000e+02 L 4.230000e+02 3.000000e+02 L 4.260000e+02 3.000000e+02 L 4.290000e+02 3.000000e+02 L 4.320000e+02 3.000000e+02 L 4.350000e+02 3.000000e+02 L 4.380000e+02 3.000000e+02 L 4.410000e+02 3.000000e+02 L 4.440000e+02 3.000000e+02 L 4.470000e+02 3.000000e+02 L 4.490000e+02 3.000000e+02 L 4.520000e+02 3.000000e+02 L 4.550000e+02 3.000000e+02 L 4.580000e+02 3.000000e+02 L 4.610000e+02 3.000000e+02 L 4.640000e+02 3.000000e+02 L 4.670000e+02 3.000000e+02 L 4.700000e+02 3.000000e+02 L 4.730000e+02 3.000000e+02 L 4.760000e+02 3.000000e+02 L 4.790000e+02 3.000000e+02 L 4.810000e+02 3.000000e+02 L 4.840000e+02 3.000000e+02 L 4.870000e+02 3.000000e+02 L 4.900000e+02 3.000000e+02 L 4.930000e+02 3.000000e+02 L 4.960000e+02 3.000000e+02 L 4.990000e+02 3.000000e+02 L 5.020000e+02 3.000000e+02 L 5.050000e+02 3.000000e+02 L 5.080000e+02 3.000000e+02 L 5.110000e+02 3.000000e+02 L 5.130000e+02 3.000000e+02 L 5.160000e+02 3.000000e+02 L 5.190000e+02 3.000000e+02 L 5.220000e+02 3.000000e+02 L 5.250000e+02 3.000000e+02 L 5.280000e+02 3.000000e+02 L 5.310000e+02 3.000000e+02 L 5.340000e+02 3.000000e+02 L 5.370000e+02 3.000000e+02 L 5.400000e+02 3.000000e+02 L 5.430000e+02 3.000000e+02 L 5.450000e+02 3.000000e+02 L 5.480000e+02 3.000000e+02 L 5.510000e+02 3.000000e+02 L 5.540000e+02 3.000000e+02 L 5.570000e+02 3.000000e+02 L 5.600000e+02 3.000000e+02 L 5.630000e+02 3.000000e+02 L 5.660000e+02 3.000000e+02 L 5.690000e+02 3.000000e+02 L 5.720000e+02 3.000000e+02 L 5.750000e+02 3.000000e+02 L 5.770000e+02 3.000000e+02 L 5.800000e+02 3.000000e+02 L 5.830000e+02 3.000000e+02 L 5.860000e+02 3.000000e+02 L 5.890000e+02 3.000000e+02 L 5.920000e+02 3.000000e+02 L 5.950000e+02 3.000000e+02 L 5.980000e+02 3.000000e+02 L 6.010000e+02 3.000000e+02 L 6.040000e+02 3.000000e+02 L 6.070000e+02 3.000000e+02 L 6.090000e+02 3.000000e+02 L 6.120000e+02 3.000000e+02 L 6.150000e+02 3.000000e+02 L 6.180000e+02 3.000000e+02 L 6.210000e+02 3.000000e+02 L 6.240000e+02 3.000000e+02 L 6.270000e+02 3.000000e+02 L 6.300000e+02 3.000000e+02 L 6.330000e+02 3.000000e+02 L 6.360000e+02 3.000000e+02 L 6.390000e+02 3.000000e+02 L 6.410000e+02 3.000000e+02 L 6.440000e+02 3.000000e+02 L 6.470000e+02 3.000000e+02 L 6.500000e+02 3.000000e+02 L 6.530000e+02 3.000000e+02 L 6.560000e+02 3.000000e+02 L 6.590000e+02 3.000000e+02 L 6.620000e+02 3.000000e+02" style="stroke:#CC6677; fill:none; stroke-width:2;" stroke-dasharray="0" />
<text x="650" y="120" text-anchor="end" font-family="Arial, Helvetica, sans-serif" style="font-size:20;">Cd(f)</text>
<line stroke-dasharray="0" x1="660" y1="110" x2="700" y2="110" style="stroke:#332288;stroke-width:2;"></line>
<path d=" M 8.300000e+01 3.000000e+02 L 8.600000e+01 3.000000e+02 L 8.900000e+01 3.000000e+02 L 9.200000e+01 3.000000e+02 L 9.500000e+01 3.000000e+02 L 9.700000e+01 3.000000e+02 L 1.000000e+02 3.000000e+02 L 1.030000e+02 3.000000e+02 L 1.060000e+02 3.000000e+02 L 1.090000e+02 3.000000e+02 L 1.120000e+02 3.000000e+02 L 1.150000e+02 3.000000e+02 L 1.180000e+02 3.000000e+02 L 1.210000e+02 3.000000e+02 L 1.240000e+02 3.000000e+02 L 1.270000e+02 3.000000e+02 L 1.290000e+02 3.000000e+02 L 1.320000e+02 3.000000e+02 L 1.350000e+02 3.000000e+02 L 1.380000e+02 3.000000e+02 L 1.410000e+02 3.000000e+02 L 1.440000e+02 3.000000e+02 L 1.470000e+02 3.000000e+02 L 1.500000e+02 3.000000e+02 L 1.530000e+02 3.000000e+02 L 1.560000e+02 3.000000e+02 L 1.590000e+02 3.000000e+02 L 1.610000e+02 3.000000e+02 L 1.640000e+02 3.000000e+02 L 1.670000e+02 3.000000e+02 L 1.700000e+02 3.000000e+02 L 1.730000e+02 3.000000e+02 L 1.760000e+02 3.000000e+02 L 1.790000e+02 3.000000e+02 L 1.820000e+02 3.000000e+02 L 1.850000e+02 3.000000e+02 L 1.880000e+02 3.000000e+02 L 1.910000e+02 3.000000e+02 L 1.930000e+02 3.000000e+02 L 1.960000e+02 3.000000e+02 L 1.990000e+02 3.000000e+02 L 2.020000e+02 3.000000e+02 L 2.050000e+02 3.000000e+02 L 2.080000e+02 3.000000e+02 L 2.110000e+02 3.000000e+02 L 2.140000e+02 3.000000e+02 L 2.170000e+02 3.000000e+02 L 2.200000e+02 3.000000e+02 L 2.230000e+02 3.000000e+02 L 2.250000e+02 3.000000e+02 L 2.280000e+02 3.000000e+02 L 2.310000e+02 3.000000e+02 L 2.340000e+02 3.000000e+02 L 2.370000e+02 3.000000e+02 L 2.400000e+02 3.000000e+02 L 2.430000e+02 3.000000e+02 L 2.460000e+02 3.000000e+02 L 2.490000e+02 3.000000e+02 L 2.520000e+02 3.000000e+02 L 2.550000e+02 3.000000e+02 L 2.570000e+02 3.000000e+02 L 2.600000e+02 3.000000e+02 L 2.630000e+02 3.000000e+02 L 2.660000e+02 3.000000e+02 L 2.690000e+02 3.000000e+02 L 2.720000e+02 3.000000e+02 L 2.750000e+02 3.000000e+02 L 2.780000e+02 3.000000e+02 L 2.810000e+02 3.000000e+02 L 2.840000e+02 3.000000e+02 L 2.870000e+02 3.000000e+02 L 2.890000e+02 3.000000e+02 L 2.920000e+02 3.000000e+02 L 2.950000e+02 3.000000e+02 L 2.980000e+02 3.000000e+02 L 3.010000e+02 3.000000e+02 L 3.040000e+02 3.000000e+02 L 3.070000e+02 3.000000e+02 L 3.100000e+02 3.000000e+02 L 3.130000e+02 3.000000e+02 L 3.160000e+02 3.000000e+02 L 3.190000e+02 3.000000e+02 L 3.210000e+02 3.000000e+02 L 3.240000e+02 3.000000e+02 L 3.270000e+02 3.000000e+02 L 3.300000e+02 3.000000e+02 L 3.330000e+02 3.000000e+02 L 3.360000e+02 3.000000e+02 L 3.390000e+02 3.000000e+02 L 3.420000e+02 3.000000e+02 L 3.450000e+02 3.000000e+02 L 3.480000e+02 3.000000e+02 L 3.510000e+02 3.000000e+02 L 3.530000e+02 3.000000e+02 L 3.560000e+02 3.000000e+02 L 3.590000e+02 3.000000e+02 L 3.620000e+02 3.000000e+02 L 3.650000e+02 3.000000e+02 L 3.680000e+02 3.000000e+02 L 3.710000e+02 3.000000e+02 L 3.740000e+02 3.000000e+02 L 3.770000e+02 3.000000e+02 L 3.800000e+02 3.000000e+02 L 3.830000e+02 3.000000e+02 L 3.850000e+02 3.000000e+02 L 3.880000e+02 3.000000e+02 L 3.910000e+02 3.000000e+02 L 3.940000e+02 3.000000e+02 L 3.970000e+02 3.000000e+02 L 4.000000e+02 3.000000e+02 L 4.030000e+02 3.000000e+02 L 4.060000e+02 3.000000e+02 L 4.090000e+02 3.000000e+02 L 4.120000e+02 3.000000e+02 L 4.150000e+02 3.000000e+02 L 4.170000e+02 3.000000e+02 L 4.200000e+02 3.000000e+02 L 4.230000e+02 3.000000e+02 L 4.260000e+02 3.000000e+02 L 4.290000e+02 3.000000e+02 L 4.320000e+02 3.000000e+02 L 4.350000e+02 3.000000e+02 L 4.380000e+02 3.000000e+02 L 4.410000e+02 3.000000e+02 L 4.440000e+02 3.000000e+02 L 4.470000e+02 3.000000e+02 L 4.490000e+02 3.000000e+02 L 4.520000e+02 3.000000e+02 L 4.550000e+02 3.000000e+02 L 4.580000e+02 3.000000e+02 L 4.610000e+02 3.000000e+02 L 4.640000e+02 3.000000e+02 L 4.670000e+02 3.000000e+02 L 4.700000e+02 3.000000e+02 L 4.730000e+02 3.000000e+02 L 4.760000e+02 3.000000e+02 L 4.790000e+02 3.000000e+02 L 4.810000e+02 3.000000e+02 L 4.840000e+02 3.000000e+02 L 4.870000e+02 3.000000e+02 L 4.900000e+02 3.000000e+02 L 4.930000e+02 3.000000e+02 L 4.960000e+02 3.000000e+02 L 4.990000e+02 3.000000e+02 L 5.020000e+02 3.000000e+02 L 5.050000e+02 3.000000e+02 L 5.080000e+02 3.000000e+02 L 5.110000e+02 3.000000e+02 L 5.130000e+02 3.000000e+02 L 5.160000e+02 3.000000e+02 L 5.190000e+02 3.000000e+02 L 5.220000e+02 3.000000e+02 L 5.250000e+02 3.000000e+02 L 5.280000e+02 3.000000e+02 L 5.310000e+02 3.000000e+02 L 5.340000e+02 3.000000e+02 L 5.370000e+02 3.000000e+02 L 5.400000e+02 3.000000e+02 L 5.430000e+02 3.000000e+02 L 5.450000e+02 3.000000e+02 L 5.480000e+02 3.000000e+02 L 5.510000e+02 3.000000e+02 L 5.540000e+02 3.000000e+02 L 5.570000e+02 3.000000e+02 L 5.600000e+02 3.000000e+02 L 5.630000e+02 3.000000e+02 L 5.660000e+02 3.000000e+02 L 5.690000e+02 3.000000e+02 L 5.720000e+02 3.000000e+02 L 5.750000e+02 3.000000e+02 L 5.770000e+02 3.000000e+02 L 5.800000e+02 3.000000e+02 L 5.830000e+02 3.000000e+02 L 5.860000e+02 3.000000e+02 L 5.890000e+02 3.000000e+02 L 5.920000e+02 3.000000e+02 L 5.950000e+02 3.000000e+02 L 5.980000e+02 3.000000e+02 L 6.010000e+02 3.000000e+02 L 6.040000e+02 3.000000e+02 L 6.070000e+02 3.000000e+02 L 6.090000e+02 3.000000e+02 L 6.120000e+02 3.000000e+02 L 6.150000e+02 3.000000e+02 L 6.180000e+02 3.000000e+02 L 6.210000e+02 3.000000e+02 L 6.240000e+02 3.000000e+02 L 6.270000e+02 3.000000e+02 L 6.300000e+02 3.000000e+02 L 6.330000e+02 3.000000e+02 L 6.360000e+02 3.000000e+02 L 6.390000e+02 3.000000e+02 L 6.410000e+02 3.000000e+02 L 6.440000e+02 3.000000e+02 L 6.470000e+02 3.000000e+02 L 6.500000e+02 3.000000e+02 L 6.530000e+02 3.000000e+02 L 6.560000e+02 3.000000e+02 L 6.590000e+02 3.000000e+02 L 6.620000e+02 3.000000e+02" style="stroke:#332288; fill:none; stroke-width:2;" stroke-dasharray="0" />
<text x="650" y="150" text-anchor="end" font-family="Arial, Helvetica, sans-serif" style="font-size:20;">Cd(r)</text>
<line stroke-dasharray="0" x1="660" y1="140" x2="700" y2="140" style="stroke:#DDCC77;stroke-width:2;"></line>
<path d=" M 8.300000e+01 3.000000e+02 L 8.600000e+01 3.000000e+02 L 8.900000e+01 3.000000e+02 L 9.200000e+01 3.000000e+02 L 9.500000e+01 3.000000e+02 L 9.700000e+01 3.000000e+02 L 1.000000e+02 3.000000e+02 L 1.030000e+02 3.000000e+02 L 1.060000e+02 3.000000e+02 L 1.090000e+02 3.000000e+02 L 1.120000e+02 3.000000e+02 L 1.150000e+02 3.000000e+02 L 1.180000e+02 3.000000e+02 L 1.210000e+02 3.000000e+02 L 1.240000e+02 3.000000e+02 L 1.270000e+02 3.000000e+02 L 1.290000e+02 3.000000e+02 L 1.320000e+02 3.000000e+02 L 1.350000e+02 3.000000e+02 L 1.380000e+02 3.000000e+02 L 1.410000e+02 3.000000e+02 L 1.440000e+02 3.000000e+02 L 1.470000e+02 3.000000e+02 L 1.500000e+02 3.000000e+02 L 1.530000e+02 3.000000e+02 L 1.560000e+02 3.000000e+02 L 1.590000e+02 3.000000e+02 L 1.610000e+02 3.000000e+02 L 1.640000e+02 3.000000e+02 L 1.670000e+02 3.000000e+02 L 1.700000e+02 3.000000e+02 L 1.730000e+02 3.000000e+02 L 1.760000e+02 3.000000e+02 L 1.790000e+02 3.000000e+02 L 1.820000e+02 3.000000e+02 L 1.850000e+02 3.000000e+02 L 1.880000e+02 3.000000e+02 L 1.910000e+02 3.000000e+02 L 1.930000e+02 3.000000e+02 L 1.960000e+02 3.000000e+02 L 1.990000e+02 3.000000e+02 L 2.020000e+02 3.000000e+02 L 2.050000e+02 3.000000e+02 L 2.080000e+02 3.000000e+02 L 2.110000e+02 3.000000e+02 L 2.140000e+02 3.000000e+02 L 2.170000e+02 3.000000e+02 L 2.200000e+02 3.000000e+02 L 2.230000e+02 3.000000e+02 L 2.250000e+02 3.000000e+02 L 2.280000e+02 3.000000e+02 L 2.310000e+02 3.000000e+02 L 2.340000e+02 3.000000e+02 L 2.370000e+02 3.000000e+02 L 2.400000e+02 3.000000e+02 L 2.430000e+02 3.000000e+02 L 2.460000e+02 3.000000e+02 L 2.490000e+02 3.000000e+02 L 2.520000e+02 3.000000e+02 L 2.550000e+02 3.000000e+02 L 2.570000e+02 3.000000e+02 L 2.600000e+02 3.000000e+02 L 2.630000e+02 3.000000e+02 L 2.660000e+02 3.000000e+02 L 2.690000e+02 3.000000e+02 L 2.720000e+02 3.000000e+02 L 2.750000e+02 3.000000e+02 L 2.780000e+02 3.000000e+02 L 2.810000e+02 3.000000e+02 L 2.840000e+02 3.000000e+02 L 2.870000e+02 3.000000e+02 L 2.890000e+02 3.000000e+02 L 2.920000e+02 3.000000e+02 L 2.950000e+02 3.000000e+02 L 2.980000e+02 3.000000e+02 L 3.010000e+02 3.000000e+02 L 3.040000e+02 3.000000e+02 L 3.070000e+02 3.000000e+02 L 3.100000e+02 3.000000e+02 L 3.130000e+02 3.000000e+02 L 3.160000e+02 3.000000e+02 L 3.190000e+02 3.000000e+02 L 3.210000e+02 3.000000e+02 L 3.240000e+02 3.000000e+02 L 3.270000e+02 3.000000e+02 L 3.300000e+02 3.000000e+02 L 3.330000e+02 3.000000e+02 L 3.360000e+02 3.000000e+02 L 3.390000e+02 3.000000e+02 L 3.420000e+02 3.000000e+02 L 3.450000e+02 3.000000e+02 L 3.480000e+02 3.000000e+02 L 3.510000e+02 3.000000e+02 L 3.530000e+02 3.000000e+02 L 3.560000e+02 3.000000e+02 L 3.590000e+02 3.000000e+02 L 3.620000e+02 3.000000e+02 L 3.650000e+02 3.000000e+02 L 3.680000e+02 3.000000e+02 L 3.710000e+02 3.000000e+02 L 3.740000e+02 3.000000e+02 L 3.770000e+02 3.000000e+02 L 3.800000e+02 3.000000e+02 L 3.830000e+02 3.000000e+02 L 3.850000e+02 3.000000e+02 L 3.880000e+02 3.000000e+02 L 3.910000e+02 3.000000e+02 L 3.940000e+02 3.000000e+02 L 3.970000e+02 3.000000e+02 L 4.000000e+02 3.000000e+02 L 4.030000e+02 3.000000e+02 L 4.060000e+02 3.000000e+02 L 4.090000e+02 3.000000e+02 L 4.120000e+02 3.000000e+02 L 4.150000e+02 3.000000e+02 L 4.170000e+02 3.000000e+02 L 4.200000e+02 3.000000e+02 L 4.230000e+02 3.000000e+02 L 4.260000e+02 3.000000e+02 L 4.290000e+02 3.000000e+02 L 4.320000e+02 3.000000e+02 L 4.350000e+02 3.000000e+02 L 4.380000e+02 3.000000e+02 L 4.410000e+02 3.000000e+02 L 4.440000e+02 3.000000e+02 L 4.470000e+02 3.000000e+02 L 4.490000e+02 3.000000e+02 L 4.520000e+02 3.000000e+02 L 4.550000e+02 3.000000e+02 L 4.580000e+02 3.000000e+02 L 4.610000e+02 3.000000e+02 L 4.640000e+02 3.000000e+02 L 4.670000e+02 3.000000e+02 L 4.700000e+02 3.000000e+02 L 4.730000e+02 3.000000e+02 L 4.760000e+02 3.000000e+02 L 4.790000e+02 3.000000e+02 L 4.810000e+02 3.000000e+02 L 4.840000e+02 3.000000e+02 L 4.870000e+02 3.000000e+02 L 4.900000e+02 3.000000e+02 L 4.930000e+02 3.000000e+02 L 4.960000e+02 3.000000e+02 L 4.990000e+02 3.000000e+02 L 5.020000e+02 3.000000e+02 L 5.050000e+02 3.000000e+02 L 5.080000e+02 3.000000e+02 L 5.110000e+02 3.000000e+02 L 5.130000e+02 3.000000e+02 L 5.160000e+02 3.000000e+02 L 5.190000e+02 3.000000e+02 L 5.220000e+02 3.000000e+02 L 5.250000e+02 3.000000e+02 L 5.280000e+02 3.000000e+02 L 5.310000e+02 3.000000e+02 L 5.340000e+02 3.000000e+02 L 5.370000e+02 3.000000e+02 L 5.400000e+02 3.000000e+02 L 5.430000e+02 3.000000e+02 L 5.450000e+02 3.000000e+02 L 5.480000e+02 3.000000e+02 L 5.510000e+02 3.000000e+02 L 5.540000e+02 3.000000e+02 L 5.570000e+02 3.000000e+02 L 5.600000e+02 3.000000e+02 L 5.630000e+02 3.000000e+02 L 5.660000e+02 3.000000e+02 L 5.690000e+02 3.000000e+02 L 5.720000e+02 3.000000e+02 L 5.750000e+02 3.000000e+02 L 5.770000e+02 3.000000e+02 L 5.800000e+02 3.000000e+02 L 5.830000e+02 3.000000e+02 L 5.860000e+02 3.000000e+02 L 5.890000e+02 3.000000e+02 L 5.920000e+02 3.000000e+02 L 5.950000e+02 3.000000e+02 L 5.980000e+02 3.000000e+02 L 6.010000e+02 3.000000e+02 L 6.040000e+02 3.000000e+02 L 6.070000e+02 3.000000e+02 L 6.090000e+02 3.000000e+02 L 6.120000e+02 3.000000e+02 L 6.150000e+02 3.000000e+02 L 6.180000e+02 3.000000e+02 L 6.210000e+02 3.000000e+02 L 6.240000e+02 3.000000e+02 L 6.270000e+02 3.000000e+02 L 6.300000e+02 3.000000e+02 L 6.330000e+02 3.000000e+02 L 6.360000e+02 3.000000e+02 L 6.390000e+02 3.000000e+02 L 6.410000e+02 3.000000e+02 L 6.440000e+02 3.000000e+02 L 6.470000e+02 3.000000e+02 L 6.500000e+02 3.000000e+02 L 6.530000e+02 3.000000e+02 L 6.560000e+02 3.000000e+02 L 6.590000e+02 3.000000e+02 L 6.620000e+02 3.000000e+02" style="stroke:#DDCC77; fill:none; stroke-width:2;" stroke-dasharray="0" />
<text x="650" y="180" text-anchor="end" font-family="Arial, Helvetica, sans-serif" style="font-size:20;">Cl</text>
<line stroke-dasharray="0" x1="660" y1="170" x2="700" y2="170" style="stroke:#117733;stroke-width:2;"></line>
<path d=" M 8.300000e+01 3.000000e+02 L 8.600000e+01 3.000000e+02 L 8.900000e+01 3.000000e+02 L 9.200000e+01 3.000000e+02 L 9.500000e+01 3.000000e+02 L 9.700000e+01 3.000000e+02 L 1.000000e+02 3.000000e+02 L 1.030000e+02 3.000000e+02 L 1.060000e+02 3.000000e+02 L 1.090000e+02 3.000000e+02 L 1.120000e+02 3.000000e+02 L 1.150000e+02 3.000000e+02 L 1.180000e+02 3.000000e+02 L 1.210000e+02 3.000000e+02 L 1.240000e+02 3.000000e+02 L 1.270000e+02 3.000000e+02 L 1.290000e+02 3.000000e+02 L 1.320000e+02 3.000000e+02 L 1.350000e+02 3.000000e+02 L 1.380000e+02 3.000000e+02 L 1.410000e+02 3.000000e+02 L 1.440000e+02 3.000000e+02 L 1.470000e+02 3.000000e+02 L 1.500000e+02 3.000000e+02 L 1.530000e+02 3.000000e+02 L 1.560000e+02 3.000000e+02 L 1.590000e+02 3.000000e+02 L 1.610000e+02 3.000000e+02 L 1.640000e+02 3.000000e+02 L 1.670000e+02 3.000000e+02 L 1.700000e+02 3.000000e+02 L 1.730000e+02 3.000000e+02 L 1.760000e+02 3.000000e+02 L 1.790000e+02 3.000000e+02 L 1.820000e+02 3.000000e+02 L 1.850000e+02 3.000000e+02 L 1.880000e+02 3.000000e+02 L 1.910000e+02 3.000000e+02 L 1.930000e+02 3.000000e+02 L 1.960000e+02 3.000000e+02 L 1.990000e+02 3.000000e+02 L 2.020000e+02 3.000000e+02 L 2.050000e+02 3.000000e+02 L 2.080000e+02 3.000000e+02 L 2.110000e+02 3.000000e+02 L 2.140000e+02 3.000000e+02 L 2.170000e+02 3.000000e+02 L 2.200000e+02 3.000000e+02 L 2.230000e+02 3.000000e+02 L 2.250000e+02 3.000000e+02 L 2.280000e+02 3.000000e+02 L 2.310000e+02 3.000000e+02 L 2.340000e+02 3.000000e+02 L 2.370000e+02 3.000000e+02 L 2.400000e+02 3.000000e+02 L 2.430000e+02 3.000000e+02 L 2.460000e+02 3.000000e+02 L 2.490000e+02 3.000000e+02 L 2.520000e+02 3.000000e+02 L 2.550000e+02 3.000000e+02 L 2.570000e+02 3.000000e+02 L 2.600000e+02 3.000000e+02 L 2.630000e+02 3.000000e+02 L 2.660000e+02 3.000000e+02 L 2.690000e+02 3.000000e+02 L 2.720000e+02 3.000000e+02 L 2.750000e+02 3.000000e+02 L 2.780000e+02 3.000000e+02 L 2.810000e+02 3.000000e+02 L 2.840000e+02 3.000000e+02 L 2.870000e+02 3.000000e+02 L 2.890000e+02 3.000000e+02 L 2.920000e+02 3.000000e+02 L 2.950000e+02 3.000000e+02 L 2.980000e+02 3.000000e+02 L 3.010000e+02 3.000000e+02 L 3.040000e+02 3.000000e+02 L 3.070000e+02 3.000000e+02 L 3.100000e+02 3.000000e+02 L 3.130000e+02 3.000000e+02 L 3.160000e+02 3.000000e+02 L 3.190000e+02 3.000000e+02 L 3.210000e+02 3.000000e+02 L 3.240000e+02 3.000000e+02 L 3.270000e+02 3.000000e+02 L 3.300000e+02 3.000000e+02 L 3.330000e+02 3.000000e+02 L 3.360000e+02 3.000000e+02 L 3.390000e+02 3.000000e+02 L 3.420000e+02 3.000000e+02 L 3.450000e+02 3.000000e+02 L 3.480000e+02 3.000000e+02 L 3.510000e+02 3.000000e+02 L 3.530000e+02 3.000000e+02 L 3.560000e+02 3.000000e+02 L 3.590000e+02 3.000000e+02 L 3.620000e+02 3.000000e+02 L 3.650000e+02 3.000000e+02 L 3.680000e+02 3.000000e+02 L 3.710000e+02 3.000000e+02 L 3.740000e+02 3.000000e+02 L 3.770000e+02 3.000000e+02 L 3.800000e+02 3.000000e+02 L 3.830000e+02 3.000000e+02 L 3.850000e+02 3.000000e+02 L 3.880000e+02 3.000000e+02 L 3.910000e+02 3.000000e+02 L 3.940000e+02 3.000000e+02 L 3.970000e+02 3.000000e+02 L 4.000000e+02 3.000000e+02 L 4.030000e+02 3.000000e+02 L 4.060000e+02 3.000000e+02 L 4.090000e+02 3.000000e+02 L 4.120000e+02 3.000000e+02 L 4.150000e+02 3.000000e+02 L 4.170000e+02 3.000000e+02 L 4.200000e+02 3.000000e+02 L 4.230000e+02 3.000000e+02 L 4.260000e+02 3.000000e+02 L 4.290000e+02 3.000000e+02 L 4.320000e+02 3.000000e+02 L 4.350000e+02 3.000000e+02 L 4.380000e+02 3.000000e+02 L 4.410000e+02 3.000000e+02 L 4.440000e+02 3.000000e+02 L 4.470000e+02 3.000000e+02 L 4.490000e+02 3.000000e+02 L 4.520000e+02 3.000000e+02 L 4.550000e+02 3.000000e+02 L 4.580000e+02 3.000000e+02 L 4.610000e+02 3.000000e+02 L 4.640000e+02 3.000000e+02 L 4.670000e+02 3.000000e+02 L 4.700000e+02 3.000000e+02 L 4.730000e+02 3.000000e+02 L 4.760000e+02 3.000000e+02 L 4.790000e+02 3.000000e+02 L 4.810000e+02 3.000000e+02 L 4.840000e+02 3.000000e+02 L 4.870000e+02 3.000000e+02 L 4.900000e+02 3.000000e+02 L 4.930000e+02 3.000000e+02 L 4.960000e+02 3.000000e+02 L 4.990000e+02 3.000000e+02 L 5.020000e+02 3.000000e+02 L 5.050000e+02 3.000000e+02 L 5.080000e+02 3.000000e+02 L 5.110000e+02 3.000000e+02 L 5.130000e+02 3.000000e+02 L 5.160000e+02 3.000000e+02 L 5.190000e+02 3.000000e+02 L 5.220000e+02 3.000000e+02 L 5.250000e+02 3.000000e+02 L 5.280000e+02 3.000000e+02 L 5.310000e+02 3.000000e+02 L 5.340000e+02 3.000000e+02 L 5.370000e+02 3.000000e+02 L 5.400000e+02 3.000000e+02 L 5.430000e+02 3.000000e+02 L 5.450000e+02 3.000000e+02 L 5.480000e+02 3.000000e+02 L 5.510000e+02 3.000000e+02 L 5.540000e+02 3.000000e+02 L 5.570000e+02 3.000000e+02 L 5.600000e+02 3.000000e+02 L 5.630000e+02 3.000000e+02 L 5.660000e+02 3.000000e+02 L 5.690000e+02 3.000000e+02 L 5.720000e+02 3.000000e+02 L 5.750000e+02 3.000000e+02 L 5.770000e+02 3.000000e+02 L 5.800000e+02 3.000000e+02 L 5.830000e+02 3.000000e+02 L 5.860000e+02 3.000000e+02 L 5.890000e+02 3.000000e+02 L 5.920000e+02 3.000000e+02 L 5.950000e+02 3.000000e+02 L 5.980000e+02 3.000000e+02 L 6.010000e+02 3.000000e+02 L 6.040000e+02 3.000000e+02 L 6.070000e+02 3.000000e+02 L 6.090000e+02 3.000000e+02 L 6.120000e+02 3.000000e+02 L 6.150000e+02 3.000000e+02 L 6.180000e+02 3.000000e+02 L 6.210000e+02 3.000000e+02 L 6.240000e+02 3.000000e+02 L 6.270000e+02 3.000000e+02 L 6.300000e+02 3.000000e+02 L 6.330000e+02 3.000000e+02 L 6.360000e+02 3.000000e+02 L 6.390000e+02 3.000000e+02 L 6.410000e+02 3.000000e+02 L 6.440000e+02 3.000000e+02 L 6.470000e+02 3.000000e+02 L 6.500000e+02 3.000000e+02 L 6.530000e+02 3.000000e+02 L 6.560000e+02 3.000000e+02 L 6.590000e+02 3.000000e+02 L 6.620000e+02 3.000000e+02" style="stroke:#117733; fill:none; stroke-width:2;" stroke-dasharray="0" />
<text x="650" y="210" text-anchor="end" font-family="Arial, Helvetica, sans-serif" style="font-size:20;">Cl(f)</text>
<line stroke-dasharray="0" x1="660" y1="200" x2="700" y2="200" style="stroke:#88CCEE;stroke-width:2;"></line>
<path d=" M 8.300000e+01 3.000000e+02 L 8.600000e+01 3.000000e+02 L 8.900000e+01 3.000000e+02 L 9.200000e+01 3.000000e+02 L 9.500000e+01 3.000000e+02 L 9.700000e+01 3.000000e+02 L 1.000000e+02 3.000000e+02 L 1.030000e+02 3.000000e+02 L 1.060000e+02 3.000000e+02 L 1.090000e+02 3.000000e+02 L 1.120000e+02 3.000000e+02 L 1.150000e+02 3.000000e+02 L 1.180000e+02 3.000000e+02 L 1.210000e+02 3.000000e+02 L 1.240000e+02 3.000000e+02 L 1.270000e+02 3.000000e+02 L 1.290000e+02 3.000000e+02 L 1.320000e+02 3.000000e+02 L 1.350000e+02 3.000000e+02 L 1.380000e+02 3.000000e+02 L 1.410000e+02 3.000000e+02 L 1.440000e+02 3.000000e+02 L 1.470000e+02 3.000000e+02 L 1.500000e+02 3.000000e+02 L 1.530000e+02 3.000000e+02 L 1.560000e+02 3.000000e+02 L 1.590000e+02 3.000000e+02 L 1.610000e+02 3.000000e+02 L 1.640000e+02 3.000000e+02 L 1.670000e+02 3.000000e+02 L 1.700000e+02 3.000000e+02 L 1.730000e+02 3.000000e+02 L 1.760000e+02 3.000000e+02 L 1.790000e+02 3.000000e+02 L 1.820000e+02 3.000000e+02 L 1.850000e+02 3.000000e+02 L 1.880000e+02 3.000000e+02 L 1.910000e+02 3.000000e+02 L 1.930000e+02 3.000000e+02 L 1.960000e+02 3.000000e+02 L 1.990000e+02 3.000000e+02 L 2.020000e+02 3.000000e+02 L 2.050000e+02 3.000000e+02 L 2.080000e+02 3.000000e+02 L 2.110000e+02 3.000000e+02 L 2.140000e+02 3.000000e+02 L 2.170000e+02 3.000000e+02 L 2.200000e+02 3.000000e+02 L 2.230000e+02 3.000000e+02 L 2.250000e+02 3.000000e+02 L 2.280000e+02 3.000000e+02 L 2.310000e+02 3.000000e+02 L 2.340000e+02 3.000000e+02 L 2.370000e+02 3.000000e+02 L 2.400000e+02 3.000000e+02 L 2.430000e+02 3.000000e+02 L 2.460000e+02 3.000000e+02 L 2.490000e+02 3.000000e+02 L 2.520000e+02 3.000000e+02 L 2.550000e+02 3.000000e+02 L 2.570000e+02 3.000000e+02 L 2.600000e+02 3.000000e+02 L 2.630000e+02 3.000000e+02 L 2.660000e+02 3.000000e+02 L 2.690000e+02 3.000000e+02 L 2.720000e+02 3.000000e+02 L 2.750000e+02 3.000000e+02 L 2.780000e+02 3.000000e+02 L 2.810000e+02 3.000000e+02 L 2.840000e+02 3.000000e+02 L 2.870000e+02 3.000000e+02 L 2.890000e+02 3.000000e+02 L 2.920000e+02 3.000000e+02 L 2.950000e+02 3.000000e+02 L 2.980000e+02 3.000000e+02 L 3.010000e+02 3.000000e+02 L 3.040000e+02 3.000000e+02 L 3.070000e+02 3.000000e+02 L 3.100000e+02 3.000000e+02 L 3.130000e+02 3.000000e+02 L 3.160000e+02 3.000000e+02 L 3.190000e+02 3.000000e+02 L 3.210000e+02 3.000000e+02 L 3.240000e+02 3.000000e+02 L 3.270000e+02 3.000000e+02 L 3.300000e+02 3.000000e+02 L 3.330000e+02 3.000000e+02 L 3.360000e+02 3.000000e+02 L 3.390000e+02 3.000000e+02 L 3.420000e+02 3.000000e+02 L 3.450000e+02 3.000000e+02 L 3.480000e+02 3.000000e+02 L 3.510000e+02 3.000000e+02 L 3.530000e+02 3.000000e+02 L 3.560000e+02 3.000000e+02 L 3.590000e+02 3.000000e+02 L 3.620000e+02 3.000000e+02 L 3.650000e+02 3.000000e+02 L 3.680000e+02 3.000000e+02 L 3.710000e+02 3.000000e+02 L 3.740000e+02 3.000000e+02 L 3.770000e+02 3.000000e+02 L 3.800000e+02 3.000000e+02 L 3.830000e+02 3.000000e+02 L 3.850000e+02 3.000000e+02 L 3.880000e+02 3.000000e+02 L 3.910000e+02 3.000000e+02 L 3.940000e+02 3.000000e+02 L 3.970000e+02 3.000000e+02 L 4.000000e+02 3.000000e+02 L 4.030000e+02 3.000000e+02 L 4.060000e+02 3.000000e+02 L 4.090000e+02 3.000000e+02 L 4.120000e+02 3.000000e+02 L 4.150000e+02 3.000000e+02 L 4.170000e+02 3.000000e+02 L 4.200000e+02 3.000000e+02 L 4.230000e+02 3.000000e+02 L 4.260000e+02 3.000000e+02 L 4.290000e+02 3.000000e+02 L 4.320000e+02 3.000000e+02 L 4.350000e+02 3.000000e+02 L 4.380000e+02 3.000000e+02 L 4.410000e+02 3.000000e+02 L 4.440000e+02 3.000000e+02 L 4.470000e+02 3.000000e+02 L 4.490000e+02 3.000000e+02 L 4.520000e+02 3.000000e+02 L 4.550000e+02 3.000000e+02 L 4.580000e+02 3.000000e+02 L 4.610000e+02 3.000000e+02 L 4.640000e+02 3.000000e+02 L 4.670000e+02 3.000000e+02 L 4.700000e+02 3.000000e+02 L 4.730000e+02 3.000000e+02 L 4.760000e+02 3.000000e+02 L 4.790000e+02 3.000000e+02 L 4.810000e+02 3.000000e+02 L 4.840000e+02 3.000000e+02 L 4.870000e+02 3.000000e+02 L 4.900000e+02 3.000000e+02 L 4.930000e+02 3.000000e+02 L 4.960000e+02 3.000000e+02 L 4.990000e+02 3.000000e+02 L 5.020000e+02 3.000000e+02 L 5.050000e+02 3.000000e+02 L 5.080000e+02 3.000000e+02 L 5.110000e+02 3.000000e+02 L 5.130000e+02 3.000000e+02 L 5.160000e+02 3.000000e+02 L 5.190000e+02 3.000000e+02 L 5.220000e+02 3.000000e+02 L 5.250000e+02 3.000000e+02 L 5.280000e+02 3.000000e+02 L 5.310000e+02 3.000000e+02 L 5.340000e+02 3.000000e+02 L 5.370000e+02 3.000000e+02 L 5.400000e+02 3.000000e+02 L 5.430000e+02 3.000000e+02 L 5.450000e+02 3.000000e+02 L 5.480000e+02 3.000000e+02 L 5.510000e+02 3.000000e+02 L 5.540000e+02 3.000000e+02 L 5.570000e+02 3.000000e+02 L 5.600000e+02 3.000000e+02 L 5.630000e+02 3.000000e+02 L 5.660000e+02 3.000000e+02 L 5.690000e+02 3.000000e+02 L 5.720000e+02 3.000000e+02 L 5.750000e+02 3.000000e+02 L 5.770000e+02 3.000000e+02 L 5.800000e+02 3.000000e+02 L 5.830000e+02 3.000000e+02 L 5.860000e+02 3.000000e+02 L 5.890000e+02 3.000000e+02 L 5.920000e+02 3.000000e+02 L 5.950000e+02 3.000000e+02 L 5.980000e+02 3.000000e+02 L 6.010000e+02 3.000000e+02 L 6.040000e+02 3.000000e+02 L 6.070000e+02 3.000000e+02 L 6.090000e+02 3.000000e+02 L 6.120000e+02 3.000000e+02 L 6.150000e+02 3.000000e+02 L 6.180000e+02 3.000000e+02 L 6.210000e+02 3.000000e+02 L 6.240000e+02 3.000000e+02 L 6.270000e+02 3.000000e+02 L 6.300000e+02 3.000000e+02 L 6.330000e+02 3.000000e+02 L 6.360000e+02 3.000000e+02 L 6.390000e+02 3.000000e+02 L 6.410000e+02 3.000000e+02 L 6.440000e+02 3.000000e+02 L 6.470000e+02 3.000000e+02 L 6.500000e+02 3.000000e+02 L 6.530000e+02 3.000000e+02 L 6.560000e+02 3.000000e+02 L 6.590000e+02 3.000000e+02 L 6.620000e+02 3.000000e+02" style="stroke:#88CCEE; fill:none; stroke-width:2;" stroke-dasharray="0" />
<text x="650" y="240" text-anchor="end" font-family="Arial, Helvetica, sans-serif" style="font-size:20;">Cl(r)</text>
<line stroke-dasharray="0" x1="660" y1="230" x2="700" y2="230" style="stroke:#882255;stroke-width:2;"></line>
<path d=" M 8.300000e+01 3.000000e+02 L 8.600000e+01 3.000000e+02 L 8.900000e+01 3.000000e+02 L 9.200000e+01 3.000000e+02 L 9.500000e+01 3.000000e+02 L 9.700000e+01 3.000000e+02 L 1.000000e+02 3.000000e+02 L 1.030000e+02 3.000000e+02 L 1.060000e+02 3.000000e+02 L 1.090000e+02 3.000000e+02 L 1.120000e+02 3.000000e+02 L 1.150000e+02 3.000000e+02 L 1.180000e+02 3.000000e+02 L 1.210000e+02 3.000000e+02 L 1.240000e+02 3.000000e+02 L 1.270000e+02 3.000000e+02 L 1.290000e+02 3.000000e+02 L 1.320000e+02 3.000000e+02 L 1.350000e+02 3.000000e+02 L 1.380000e+02 3.000000e+02 L 1.410000e+02 3.000000e+02 L 1.440000e+02 3.000000e+02 L 1.470000e+02 3.000000e+02 L 1.500000e+02 3.000000e+02 L 1.530000e+02 3.000000e+02 L 1.560000e+02 3.000000e+02 L 1.590000e+02 3.000000e+02 L 1.610000e+02 3.000000e+02 L 1.640000e+02 3.000000e+02 L 1.670000e+02 3.000000e+02 L 1.700000e+02 3.000000e+02 L 1.730000e+02 3.000000e+02 L 1.760000e+02 3.000000e+02 L 1.790000e+02 3.000000e+02 L 1.820000e+02 3.000000e+02 L 1.850000e+02 3.000000e+02 L 1.880000e+02 3.000000e+02 L 1.910000e+02 3.000000e+02 L 1.930000e+02 3.000000e+02 L 1.960000e+02 3.000000e+02 L 1.990000e+02 3.000000e+02 L 2.020000e+02 3.000000e+02 L 2.050000e+02 3.000000e+02 L 2.080000e+02 3.000000e+02 L 2.110000e+02 3.000000e+02 L 2.140000e+02 3.000000e+02 L 2.170000e+02 3.000000e+02 L 2.200000e+02 3.000000e+02 L 2.230000e+02 3.000000e+02 L 2.250000e+02 3.000000e+02 L 2.280000e+02 3.000000e+02 L 2.310000e+02 3.000000e+02 L 2.340000e+02 3.000000e+02 L 2.370000e+02 3.000000e+02 L 2.400000e+02 3.000000e+02 L 2.430000e+02 3.000000e+02 L 2.460000e+02 3.000000e+02 L 2.490000e+02 3.000000e+02 L 2.520000e+02 3.000000e+02 L 2.550000e+02 3.000000e+02 L 2.570000e+02 3.000000e+02 L 2.600000e+02 3.000000e+02 L 2.630000e+02 3.000000e+02 L 2.660000e+02 3.000000e+02 L 2.690000e+02 3.000000e+02 L 2.720000e+02 3.000000e+02 L 2.750000e+02 3.000000e+02 L 2.780000e+02 3.000000e+02 L 2.810000e+02 3.000000e+02 L 2.840000e+02 3.000000e+02 L 2.870000e+02 3.000000e+02 L 2.890000e+02 3.000000e+02 L 2.920000e+02 3.000000e+02 L 2.950000e+02 3.000000e+02 L 2.980000e+02 3.000000e+02 L 3.010000e+02 3.000000e+02 L 3.040000e+02 3.000000e+02 L 3.070000e+02 3.000000e+02 L 3.100000e+02 3.000000e+02 L 3.130000e+02 3.000000e+02 L 3.160000e+02 3.000000e+02 L 3.190000e+02 3.000000e+02 L 3.210000e+02 3.000000e+02 L 3.240000e+02 3.000000e+02 L 3.270000e+02 3.000000e+02 L 3.300000e+02 3.000000e+02 L 3.330000e+02 3.000000e+02 L 3.360000e+02 3.000000e+02 L 3.390000e+02 3.000000e+02 L 3.420000e+02 3.000000e+02 L 3.450000e+02 3.000000e+02 L 3.480000e+02 3.000000e+02 L 3.510000e+02 3.000000e+02 L 3.530000e+02 3.000000e+02 L 3.560000e+02 3.000000e+02 L 3.590000e+02 3.000000e+02 L 3.620000e+02 3.000000e+02 L 3.650000e+02 3.000000e+02 L 3.680000e+02 3.000000e+02 L 3.710000e+02 3.000000e+02 L 3.740000e+02 3.000000e+02 L 3.770000e+02 3.000000e+02 L 3.800000e+02 3.000000e+02 L 3.830000e+02 3.000000e+02 L 3.850000e+02 3.000000e+02 L 3.880000e+02 3.000000e+02 L 3.910000e+02 3.000000e+02 L 3.940000e+02 3.000000e+02 L 3.970000e+02 3.000000e+02 L 4.000000e+02 3.000000e+02 L 4.030000e+02 3.000000e+02 L 4.060000e+02 3.000000e+02 L 4.090000e+02 3.000000e+02 L 4.120000e+02 3.000000e+02 L 4.150000e+02 3.000000e+02 L 4.170000e+02 3.000000e+02 L 4.200000e+02 3.000000e+02 L 4.230000e+02 3.000000e+02 L 4.260000e+02 3.000000e+02 L 4.290000e+02 3.000000e+02 L 4.320000e+02 3.000000e+02 L 4.350000e+02 3.000000e+02 L 4.380000e+02 3.000000e+02 L 4.410000e+02 3.000000e+02 L 4.440000e+02 3.000000e+02 L 4.470000e+02 3.000000e+02 L 4.490000e+02 3.000000e+02 L 4.520000e+02 3.000000e+02 L 4.550000e+02 3.000000e+02 L 4.580000e+02 3.000000e+02 L 4.610000e+02 3.000000e+02 L 4.640000e+02 3.000000e+02 L 4.670000e+02 3.000000e+02 L 4.700000e+02 3.000000e+02 L 4.730000e+02 3.000000e+02 L 4.760000e+02 3.000000e+02 L 4.790000e+02 3.000000e+02 L 4.810000e+02 3.000000e+02 L 4.840000e+02 3.000000e+02 L 4.870000e+02 3.000000e+02 L 4.900000e+02 3.000000e+02 L 4.930000e+02 3.000000e+02 L 4.960000e+02 3.000000e+02 L 4.990000e+02 3.000000e+02 L 5.020000e+02 3.000000e+02 L 5.050000e+02 3.000000e+02 L 5.080000e+02 3.000000e+02 L 5.110000e+02 3.000000e+02 L 5.130000e+02 3.000000e+02 L 5.160000e+02 3.000000e+02 L 5.190000e+02 3.000000e+02 L 5.220000e+02 3.000000e+02 L 5.250000e+02 3.000000e+02 L 5.280000e+02 3.000000e+02 L 5.310000e+02 3.000000e+02 L 5.340000e+02 3.000000e+02 L 5.370000e+02 3.000000e+02 L 5.400000e+02 3.000000e+02 L 5.430000e+02 3.000000e+02 L 5.450000e+02 3.000000e+02 L 5.480000e+02 3.000000e+02 L 5.510000e+02 3.000000e+02 L 5.540000e+02 3.000000e+02 L 5.570000e+02 3.000000e+02 L 5.600000e+02 3.000000e+02 L 5.630000e+02 3.000000e+02 L 5.660000e+02 3.000000e+02 L 5.690000e+02 3.000000e+02 L 5.720000e+02 3.000000e+02 L 5.750000e+02 3.000000e+02 L 5.770000e+02 3.000000e+02 L 5.800000e+02 3.000000e+02 L 5.830000e+02 3.000000e+02 L 5.860000e+02 3.000000e+02 L 5.890000e+02 3.000000e+02 L 5.920000e+02 3.000000e+02 L 5.950000e+02 3.000000e+02 L 5.980000e+02 3.000000e+02 L 6.010000e+02 3.000000e+02 L 6.040000e+02 3.000000e+02 L 6.070000e+02 3.000000e+02 L 6.090000e+02 3.000000e+02 L 6.120000e+02 3.000000e+02 L 6.150000e+02 3.000000e+02 L 6.180000e+02 3.000000e+02 L 6.210000e+02 3.000000e+02 L 6.240000e+02 3.000000e+02 L 6.270000e+02 3.000000e+02 L 6.300000e+02 3.000000e+02 L 6.330000e+02 3.000000e+02 L 6.360000e+02 3.000000e+02 L 6.390000e+02 3.000000e+02 L 6.410000e+02 3.000000e+02 L 6.440000e+02 3.000000e+02 L 6.470000e+02 3.000000e+02 L 6.500000e+02 3.000000e+02 L 6.530000e+02 3.000000e+02 L 6.560000e+02 3.000000e+02 L 6.590000e+02 3.000000e+02 L 6.620000e+02 3.000000e+02" style="stroke:#882255; fill:none; stroke-width:2;" stroke-dasharray="0" />
</svg>
