<svg viewBox="0 0 800 600" xmlns="http://www.w3.org/2000/svg" xmlns:xlink="http://www.w3.org/1999/xlink" xmlns:bx="https://www.boxy-svg.com/bx">
<rect x="80" y="60" width="640" height="480" style="fill:none;stroke:rgb(105,105,105);"></rect>
<text x="400" y="590" text-anchor="middle" font-family="Arial, Helvetica, sans-serif" style="font-size:24;">Iteration</text>
<text x="0" y="0" text-anchor="middle" font-family="Arial, Helvetica, sans-serif" alignment-baseline="middle" transform="translate(20,300) rotate(270)" style="font-size:24;">Coefficient</text>
<line x1="171" y1="540" x2="171" y2="60" style="stroke:rgb(200,200,200);stroke-width:1;stroke-dasharray:4;"></line>
<line x1="263" y1="540" x2="263" y2="60" style="stroke:rgb(200,200,200);stroke-width:1;stroke-dasharray:4;"></line>
<line x1="354" y1="540" x2="354" y2="60" style="stroke:rgb(200,200,200);stroke-width:1;stroke-dasharray:4;"></line>
<line x1="446" y1="540" x2="446" y2="60" style="stroke:rgb(200,200,200);stroke-width:1;stroke-dasharray:4;"></line>
<line x1="537" y1="540" x2="537" y2="60" style="stroke:rgb(200,200,200);stroke-width:1;stroke-dasharray:4;"></line>
<line x1="629" y1="540" x2="629" y2="60" style="stroke:rgb(200,200,200);stroke-width:1;stroke-dasharray:4;"></line>
<line x1="80" y1="500" x2="720" y2="500" style="stroke:rgb(200,200,200);stroke-width:1;stroke-dasharray:4;"></line>
<line x1="80" y1="460" x2="720" y2="460" style="stroke:rgb(200,200,200);stroke-width:1;stroke-dasharray:4;"></line>
<line x1="80" y1="420" x2="720" y2="420" style="stroke:rgb(200,200,200);stroke-width:1;stroke-dasharray:4;"></line>
<line x1="80" y1="380" x2="720" y2="380" style="stroke:rgb(200,200,200);stroke-width:1;stroke-dasharray:4;"></line>
<line x1="80" y1="340" x2="720" y2="340" style="stroke:rgb(200,200,200);stroke-width:1;stroke-dasharray:4;"></line>
<line x1="80" y1="300" x2="720" y2="300" style="stroke:rgb(200,200,200);stroke-width:1;stroke-dasharray:4;"></line>
<line x1="80" y1="260" x2="720" y2="260" style="stroke:rgb(200,200,200);stroke-width:1;stroke-dasharray:4;"></line>
<line x1="80" y1="220" x2="720" y2="220" style="stroke:rgb(200,200,200);stroke-width:1;stroke-dasharray:4;"></line>
<line x1="80" y1="180" x2="720" y2="180" style="stroke:rgb(200,200,200);stroke-width:1;stroke-dasharray:4;"></line>
<line x1="80" y1="140" x2="720" y2="140" style="stroke:rgb(200,200,200);stroke-width:1;stroke-dasharray:4;"></line>
<line x1="80" y1="100" x2="720" y2="100" style="stroke:rgb(200,200,200);stroke-width:1;stroke-dasharray:4;"></line>
<line x1="80" y1="540" x2="80" y2="544" style="stroke:rgb(105,105,105);stroke-width:2;"></line>
<text x="80" y="569" text-anchor="middle" font-family="Arial, Helvetica, sans-serif" style="font-size:20;">0</text>
<line x1="171" y1="540" x2="171" y2="544" style="stroke:rgb(105,105,105);stroke-width:2;"></line>
<text x="171" y="569" text-anchor="middle" font-family="Arial, Helvetica, sans-serif" style="font-size:20;">50</text>
<line x1="263" y1="540" x2="263" y2="544" style="stroke:rgb(105,105,105);stroke-width:2;"></line>
<text x="263" y="569" text-anchor="middle" font-family="Arial, Helvetica, sans-serif" style="font-size:20;">100</text>
<line x1="354" y1="540" x2="354" y2="544" style="stroke:rgb(105,105,105);stroke-width:2;"></line>
<text x="354" y="569" text-anchor="middle" font-family="Arial, Helvetica, sans-serif" style="font-size:20;">150</text>
<line x1="446" y1="540" x2="446" y2="544" style="stroke:rgb(105,105,105);stroke-width:2;"></line>
<text x="446" y="569" text-anchor="middle" font-family="Arial, Helvetica, sans-serif" style="font-size:20;">200</text>
<line x1="537" y1="540" x2="537" y2="544" style="stroke:rgb(105,105,105);stroke-width:2;"></line>
<text x="537" y="569" text-anchor="middle" font-family="Arial, Helvetica, sans-serif" style="font-size:20;">250</text>
<line x1="629" y1="540" x2="629" y2="544" style="stroke:rgb(105,105,105);stroke-width:2;"></line>
<text x="629" y="569" text-anchor="middle" font-family="Arial, Helvetica, sans-serif" style="font-size:20;">300</text>
<line x1="720" y1="540" x2="720" y2="544" style="stroke:rgb(105,105,105);stroke-width:2;"></line>
<text x="720" y="569" text-anchor="middle" font-family="Arial, Helvetica, sans-serif" style="font-size:20;">350</text>
<line x1="80" y1="540" x2="76" y2="540" style="stroke:rgb(105,105,105);stroke-width:1;"></line>
<text x="66" y="548" text-anchor="end" font-family="Arial, Helvetica, sans-serif" style="font-size:20;">-1.2</text>
<line x1="80" y1="500" x2="76" y2="500" style="stroke:rgb(105,105,105);stroke-width:1;"></line>
<text x="66" y="508" text-anchor="end" font-family="Arial, Helvetica, sans-serif" style="font-size:20;">-1</text>
<line x1="80" y1="460" x2="76" y2="460" style="stroke:rgb(105,105,105);stroke-width:1;"></line>
<text x="66" y="468" text-anchor="end" font-family="Arial, Helvetica, sans-serif" style="font-size:20;">-0.8</text>
<line x1="80" y1="420" x2="76" y2="420" style="stroke:rgb(105,105,105);stroke-width:1;"></line>
<text x="66" y="428" text-anchor="end" font-family="Arial, Helvetica, sans-serif" style="font-size:20;">-0.6</text>
<line x1="80" y1="380" x2="76" y2="380" style="stroke:rgb(105,105,105);stroke-width:1;"></line>
<text x="66" y="388" text-anchor="end" font-family="Arial, Helvetica, sans-serif" style="font-size:20;">-0.4</text>
<line x1="80" y1="340" x2="76" y2="340" style="stroke:rgb(105,105,105);stroke-width:1;"></line>
<text x="66" y="348" text-anchor="end" font-family="Arial, Helvetica, sans-serif" style="font-size:20;">-0.2</text>
<line x1="80" y1="300" x2="76" y2="300" style="stroke:rgb(105,105,105);stroke-width:1;"></line>
<text x="66" y="308" text-anchor="end" font-family="Arial, Helvetica, sans-serif" style="font-size:20;">0</text>
<line x1="80" y1="260" x2="76" y2="260" style="stroke:rgb(105,105,105);stroke-width:1;"></line>
<text x="66" y="268" text-anchor="end" font-family="Arial, Helvetica, sans-serif" style="font-size:20;">0.2</text>
<line x1="80" y1="220" x2="76" y2="220" style="stroke:rgb(105,105,105);stroke-width:1;"></line>
<text x="66" y="228" text-anchor="end" font-family="Arial, Helvetica, sans-serif" style="font-size:20;">0.4</text>
<line x1="80" y1="180" x2="76" y2="180" style="stroke:rgb(105,105,105);stroke-width:1;"></line>
<text x="66" y="188" text-anchor="end" font-family="Arial, Helvetica, sans-serif" style="font-size:20;">0.6</text>
<line x1="80" y1="140" x2="76" y2="140" style="stroke:rgb(105,105,105);stroke-width:1;"></line>
<text x="66" y="148" text-anchor="end" font-family="Arial, Helvetica, sans-serif" style="font-size:20;">0.8</text>
<line x1="80" y1="100" x2="76" y2="100" style="stroke:rgb(105,105,105);stroke-width:1;"></line>
<text x="66" y="108" text-anchor="end" font-family="Arial, Helvetica, sans-serif" style="font-size:20;">1</text>
<line x1="80" y1="60" x2="76" y2="60" style="stroke:rgb(105,105,105);stroke-width:1;"></line>
<text x="66" y="68" text-anchor="end" font-family="Arial, Helvetica, sans-serif" style="font-size:20;">1.2</text>
<text x="650" y="90" text-anchor="end" font-family="Arial, Helvetica, sans-serif" style="font-size:20;">Cd</text>
<line stroke-dasharray="0" x1="660" y1="80" x2="700" y2="80" style="stroke:#CC6677;stroke-width:2;"></line>
<path d=" M 8.200000e+01 3.000000e+02 L 8.400000e+01 3.000000e+02 L 8.500000e+01 3.000000e+02 L 8.700000e+01 3.000000e+02 L 8.900000e+01 3.000000e+02 L 9.100000e+01 3.000000e+02 L 9.300000e+01 3.000000e+02 L 9.500000e+01 3.000000e+02 L 9.600000e+01 3.000000e+02 L 9.800000e+01 3.000000e+02 L 1.000000e+02 3.000000e+02 L 1.020000e+02 3.000000e+02 L 1.040000e+02 3.000000e+02 L 1.060000e+02 3.000000e+02 L 1.070000e+02 3.000000e+02 L 1.090000e+02 3.000000e+02 L 1.110000e+02 3.000000e+02 L 1.130000e+02 3.000000e+02 L 1.150000e+02 3.000000e+02 L 1.170000e+02 3.000000e+02 L 1.180000e+02 3.000000e+02 L 1.200000e+02 3.000000e+02 L 1.220000e+02 3.000000e+02 L 1.240000e+02 3.000000e+02 L 1.260000e+02 3.000000e+02 L 1.280000e+02 3.000000e+02 L 1.290000e+02 3.000000e+02 L 1.310000e+02 3.000000e+02 L 1.330000e+02 3.000000e+02 L 1.350000e+02 3.000000e+02 L 1.370000e+02 3.000000e+02 L 1.390000e+02 3.000000e+02 L 1.400000e+02 3.000000e+02 L 1.420000e+02 3.000000e+02 L 1.440000e+02 3.000000e+02 L 1.460000e+02 3.000000e+02 L 1.480000e+02 3.000000e+02 L 1.490000e+02 3.000000e+02 L 1.510000e+02 3.000000e+02 L 1.530000e+02 3.000000e+02 L 1.550000e+02 3.000000e+02 L 1.570000e+02 3.000000e+02 L 1.590000e+02 3.000000e+02 L 1.600000e+02 3.000000e+02 L 1.620000e+02 3.000000e+02 L 1.640000e+02 3.000000e+02 L 1.660000e+02 3.000000e+02 L 1.680000e+02 3.000000e+02 L 1.700000e+02 3.000000e+02 L 1.710000e+02 3.000000e+02 L 1.730000e+02 3.000000e+02 L 1.750000e+02 3.000000e+02 L 1.770000e+02 3.000000e+02 L 1.790000e+02 3.000000e+02 L 1.810000e+02 3.000000e+02 L 1.820000e+02 3.000000e+02 L 1.840000e+02 3.000000e+02 L 1.860000e+02 3.000000e+02 L 1.880000e+02 3.000000e+02 L 1.900000e+02 3.000000e+02 L 1.920000e+02 3.000000e+02 L 1.930000e+02 3.000000e+02 L 1.950000e+02 3.000000e+02 L 1.970000e+02 3.000000e+02 L 1.990000e+02 3.000000e+02 L 2.010000e+02 3.000000e+02 L 2.030000e+02 3.000000e+02 L 2.040000e+02 3.000000e+02 L 2.060000e+02 3.000000e+02 L 2.080000e+02 3.000000e+02 L 2.100000e+02 3.000000e+02 L 2.120000e+02 3.000000e+02 L 2.130000e+02 3.000000e+02 L 2.150000e+02 3.000000e+02 L 2.170000e+02 3.000000e+02 L 2.190000e+02 3.000000e+02 L 2.210000e+02 3.000000e+02 L 2.230000e+02 3.000000e+02 L 2.240000e+02 3.000000e+02 L 2.260000e+02 3.000000e+02 L 2.280000e+02 3.000000e+02 L 2.300000e+02 3.000000e+02 L 2.320000e+02 3.000000e+02 L 2.340000e+02 3.000000e+02 L 2.350000e+02 3.000000e+02 L 2.370000e+02 3.000000e+02 L 2.390000e+02 3.000000e+02 L 2.410000e+02 3.000000e+02 L 2.430000e+02 3.000000e+02 L 2.450000e+02 3.000000e+02 L 2.460000e+02 3.000000e+02 L 2.480000e+02 3.000000e+02 L 2.500000e+02 3.000000e+02 L 2.520000e+02 3.000000e+02 L 2.540000e+02 3.000000e+02 L 2.560000e+02 3.000000e+02 L 2.570000e+02 3.000000e+02 L 2.590000e+02 3.000000e+02 L 2.610000e+02 3.000000e+02 L 2.630000e+02 3.000000e+02 L 2.650000e+02 3.000000e+02 L 2.670000e+02 3.000000e+02 L 2.680000e+02 3.000000e+02 L 2.700000e+02 3.000000e+02 L 2.720000e+02 3.000000e+02 L 2.740000e+02 3.000000e+02 L 2.760000e+02 3.000000e+02 L 2.770000e+02 3.000000e+02 L 2.790000e+02 3.000000e+02 L 2.810000e+02 3.000000e+02 L 2.830000e+02 3.000000e+02 L 2.850000e+02 3.000000e+02 L 2.870000e+02 3.000000e+02 L 2.880000e+02 3.000000e+02 L 2.900000e+02 3.000000e+02 L 2.920000e+02 3.000000e+02 L 2.940000e+02 3.000000e+02 L 2.960000e+02 3.000000e+02 L 2.980000e+02 3.000000e+02 L 2.990000e+02 3.000000e+02 L 3.010000e+02 3.000000e+02 L 3.030000e+02 3.000000e+02 L 3.050000e+02 3.000000e+02 L 3.070000e+02 3.000000e+02 L 3.090000e+02 3.000000e+02 L 3.100000e+02 3.000000e+02 L 3.120000e+02 3.000000e+02 L 3.140000e+02 3.000000e+02 L 3.160000e+02 3.000000e+02 L 3.180000e+02 3.000000e+02 L 3.200000e+02 3.000000e+02 L 3.210000e+02 3.000000e+02 L 3.230000e+02 3.000000e+02 L 3.250000e+02 3.000000e+02 L 3.270000e+02 3.000000e+02 L 3.290000e+02 3.000000e+02 L 3.310000e+02 3.000000e+02 L 3.320000e+02 3.000000e+02 L 3.340000e+02 3.000000e+02 L 3.360000e+02 3.000000e+02 L 3.380000e+02 3.000000e+02 L 3.400000e+02 3.000000e+02 L 3.410000e+02 3.000000e+02 L 3.430000e+02 3.000000e+02 L 3.450000e+02 3.000000e+02 L 3.470000e+02 3.000000e+02 L 3.490000e+02 3.000000e+02 L 3.510000e+02 3.000000e+02 L 3.520000e+02 3.000000e+02 L 3.540000e+02 3.000000e+02 L 3.560000e+02 3.000000e+02 L 3.580000e+02 3.000000e+02 L 3.600000e+02 3.000000e+02 L 3.620000e+02 3.000000e+02 L 3.630000e+02 3.000000e+02 L 3.650000e+02 3.000000e+02 L 3.670000e+02 3.000000e+02 L 3.690000e+02 3.000000e+02 L 3.710000e+02 3.000000e+02 L 3.730000e+02 3.000000e+02 L 3.740000e+02 3.000000e+02 L 3.760000e+02 3.000000e+02 L 3.780000e+02 3.000000e+02 L 3.800000e+02 3.000000e+02 L 3.820000e+02 3.000000e+02 L 3.840000e+02 3.000000e+02 L 3.850000e+02 3.000000e+02 L 3.870000e+02 3.000000e+02 L 3.890000e+02 3.000000e+02 L 3.910000e+02 3.000000e+02 L 3.930000e+02 3.000000e+02 L 3.950000e+02 3.000000e+02 L 3.960000e+02 3.000000e+02 L 3.980000e+02 3.000000e+02 L 4.000000e+02 3.000000e+02 L 4.020000e+02 3.000000e+02 L 4.040000e+02 3.000000e+02 L 4.050000e+02 3.000000e+02 L 4.070000e+02 3.000000e+02 L 4.090000e+02 3.000000e+02 L 4.110000e+02 3.000000e+02 L 4.130000e+02 3.000000e+02 L 4.150000e+02 3.000000e+02 L 4.160000e+02 3.000000e+02 L 4.180000e+02 3.000000e+02 L 4.200000e+02 3.000000e+02 L 4.220000e+02 3.000000e+02 L 4.240000e+02 3.000000e+02 L 4.260000e+02 3.000000e+02 L 4.270000e+02 3.000000e+02 L 4.290000e+02 3.000000e+02 L 4.310000e+02 3.000000e+02 L 4.330000e+02 3.000000e+02 L 4.350000e+02 3.000000e+02 L 4.370000e+02 3.000000e+02 L 4.380000e+02 3.000000e+02 L 4.400000e+02 3.000000e+02 L 4.420000e+02 3.000000e+02 L 4.440000e+02 3.000000e+02 L 4.460000e+02 3.000000e+02 L 4.480000e+02 3.000000e+02 L 4.490000e+02 3.000000e+02 L 4.510000e+02 3.000000e+02 L 4.530000e+02 3.000000e+02 L 4.550000e+02 3.000000e+02 L 4.570000e+02 3.000000e+02 L 4.590000e+02 3.000000e+02 L 4.600000e+02 3.000000e+02 L 4.620000e+02 3.000000e+02 L 4.640000e+02 3.000000e+02 L 4.660000e+02 3.000000e+02 L 4.680000e+02 3.000000e+02 L 4.690000e+02 3.000000e+02 L 4.710000e+02 3.000000e+02 L 4.730000e+02 3.000000e+02 L 4.750000e+02 3.000000e+02 L 4.770000e+02 3.000000e+02 L 4.790000e+02 3.000000e+02 L 4.800000e+02 3.000000e+02 L 4.820000e+02 3.000000e+02 L 4.840000e+02 3.000000e+02 L 4.860000e+02 3.000000e+02 L 4.880000e+02 3.000000e+02 L 4.900000e+02 3.000000e+02 L 4.910000e+02 3.000000e+02 L 4.930000e+02 3.000000e+02 L 4.950000e+02 3.000000e+02 L 4.970000e+02 3.000000e+02 L 4.990000e+02 3.000000e+02 L 5.010000e+02 3.000000e+02 L 5.020000e+02 3.000000e+02 L 5.040000e+02 3.000000e+02 L 5.060000e+02 3.000000e+02 L 5.080000e+02 3.000000e+02 L 5.100000e+02 3.000000e+02 L 5.120000e+02 3.000000e+02 L 5.130000e+02 3.000000e+02 L 5.150000e+02 3.000000e+02 L 5.170000e+02 3.000000e+02 L 5.190000e+02 3.000000e+02 L 5.210000e+02 3.000000e+02 L 5.230000e+02 3.000000e+02 L 5.240000e+02 3.000000e+02 L 5.260000e+02 3.000000e+02 L 5.280000e+02 3.000000e+02 L 5.300000e+02 3.000000e+02 L 5.320000e+02 3.000000e+02 L 5.330000e+02 3.000000e+02 L 5.350000e+02 3.000000e+02 L 5.370000e+02 3.000000e+02 L 5.390000e+02 3.000000e+02 L 5.410000e+02 3.000000e+02 L 5.430000e+02 3.000000e+02 L 5.440000e+02 3.000000e+02 L 5.460000e+02 3.000000e+02 L 5.480000e+02 3.000000e+02 L 5.500000e+02 3.000000e+02 L 5.520000e+02 3.000000e+02 L 5.540000e+02 3.000000e+02 L 5.550000e+02 3.000000e+02 L 5.570000e+02 3.000000e+02 L 5.590000e+02 3.000000e+02 L 5.610000e+02 3.000000e+02 L 5.630000e+02 3.000000e+02 L 5.650000e+02 3.000000e+02 L 5.660000e+02 3.000000e+02 L 5.680000e+02 3.000000e+02 L 5.700000e+02 3.000000e+02 L 5.720000e+02 3.000000e+02 L 5.740000e+02 3.000000e+02 L 5.760000e+02 3.000000e+02 L 5.770000e+02 3.000000e+02 L 5.790000e+02 3.000000e+02 L 5.810000e+02 3.000000e+02 L 5.830000e+02 3.000000e+02 L 5.850000e+02 3.000000e+02 L 5.870000e+02 3.000000e+02 L 5.880000e+02 3.000000e+02 L 5.900000e+02 3.000000e+02 L 5.920000e+02 3.000000e+02 L 5.940000e+02 3.000000e+02 L 5.960000e+02 3.000000e+02 L 5.970000e+02 3.000000e+02 L 5.990000e+02 3.000000e+02 L 6.010000e+02 3.000000e+02 L 6.030000e+02 3.000000e+02 L 6.050000e+02 3.000000e+02 L 6.070000e+02 3.000000e+02 L 6.080000e+02 3.000000e+02 L 6.100000e+02 3.000000e+02 L 6.120000e+02 3.000000e+02 L 6.140000e+02 3.000000e+02 L 6.160000e+02 3.000000e+02 L 6.180000e+02 3.000000e+02 L 6.190000e+02 3.000000e+02 L 6.210000e+02 3.000000e+02 L 6.230000e+02 3.000000e+02 L 6.250000e+02 3.000000e+02 L 6.270000e+02 3.000000e+02 L 6.290000e+02 3.000000e+02" style="stroke:#CC6677; fill:none; stroke-width:2;" stroke-dasharray="0" />
<text x="650" y="120" text-anchor="end" font-family="Arial, Helvetica, sans-serif" style="font-size:20;">Cd(f)</text>
<line stroke-dasharray="0" x1="660" y1="110" x2="700" y2="110" style="stroke:#332288;stroke-width:2;"></line>
<path d=" M 8.200000e+01 3.000000e+02 L 8.400000e+01 3.000000e+02 L 8.500000e+01 3.000000e+02 L 8.700000e+01 3.000000e+02 L 8.900000e+01 3.000000e+02 L 9.100000e+01 3.000000e+02 L 9.300000e+01 3.000000e+02 L 9.500000e+01 3.000000e+02 L 9.600000e+01 3.000000e+02 L 9.800000e+01 3.000000e+02 L 1.000000e+02 3.000000e+02 L 1.020000e+02 3.000000e+02 L 1.040000e+02 3.000000e+02 L 1.060000e+02 3.000000e+02 L 1.070000e+02 3.000000e+02 L 1.090000e+02 3.000000e+02 L 1.110000e+02 3.000000e+02 L 1.130000e+02 3.000000e+02 L 1.150000e+02 3.000000e+02 L 1.170000e+02 3.000000e+02 L 1.180000e+02 3.000000e+02 L 1.200000e+02 3.000000e+02 L 1.220000e+02 3.000000e+02 L 1.240000e+02 3.000000e+02 L 1.260000e+02 3.000000e+02 L 1.280000e+02 3.000000e+02 L 1.290000e+02 3.000000e+02 L 1.310000e+02 3.000000e+02 L 1.330000e+02 3.000000e+02 L 1.350000e+02 3.000000e+02 L 1.370000e+02 3.000000e+02 L 1.390000e+02 3.000000e+02 L 1.400000e+02 3.000000e+02 L 1.420000e+02 3.000000e+02 L 1.440000e+02 3.000000e+02 L 1.460000e+02 3.000000e+02 L 1.480000e+02 3.000000e+02 L 1.490000e+02 3.000000e+02 L 1.510000e+02 3.000000e+02 L 1.530000e+02 3.000000e+02 L 1.550000e+02 3.000000e+02 L 1.570000e+02 3.000000e+02 L 1.590000e+02 3.000000e+02 L 1.600000e+02 3.000000e+02 L 1.620000e+02 3.000000e+02 L 1.640000e+02 3.000000e+02 L 1.660000e+02 3.000000e+02 L 1.680000e+02 3.000000e+02 L 1.700000e+02 3.000000e+02 L 1.710000e+02 3.000000e+02 L 1.730000e+02 3.000000e+02 L 1.750000e+02 3.000000e+02 L 1.770000e+02 3.000000e+02 L 1.790000e+02 3.000000e+02 L 1.810000e+02 3.000000e+02 L 1.820000e+02 3.000000e+02 L 1.840000e+02 3.000000e+02 L 1.860000e+02 3.000000e+02 L 1.880000e+02 3.000000e+02 L 1.900000e+02 3.000000e+02 L 1.920000e+02 3.000000e+02 L 1.930000e+02 3.000000e+02 L 1.950000e+02 3.000000e+02 L 1.970000e+02 3.000000e+02 L 1.990000e+02 3.000000e+02 L 2.010000e+02 3.000000e+02 L 2.030000e+02 3.000000e+02 L 2.040000e+02 3.000000e+02 L 2.060000e+02 3.000000e+02 L 2.080000e+02 3.000000e+02 L 2.100000e+02 3.000000e+02 L 2.120000e+02 3.000000e+02 L 2.130000e+02 3.000000e+02 L 2.150000e+02 3.000000e+02 L 2.170000e+02 3.000000e+02 L 2.190000e+02 3.000000e+02 L 2.210000e+02 3.000000e+02 L 2.230000e+02 3.000000e+02 L 2.240000e+02 3.000000e+02 L 2.260000e+02 3.000000e+02 L 2.280000e+02 3.000000e+02 L 2.300000e+02 3.000000e+02 L 2.320000e+02 3.000000e+02 L 2.340000e+02 3.000000e+02 L 2.350000e+02 3.000000e+02 L 2.370000e+02 3.000000e+02 L 2.390000e+02 3.000000e+02 L 2.410000e+02 3.000000e+02 L 2.430000e+02 3.000000e+02 L 2.450000e+02 3.000000e+02 L 2.460000e+02 3.000000e+02 L 2.480000e+02 3.000000e+02 L 2.500000e+02 3.000000e+02 L 2.520000e+02 3.000000e+02 L 2.540000e+02 3.000000e+02 L 2.560000e+02 3.000000e+02 L 2.570000e+02 3.000000e+02 L 2.590000e+02 3.000000e+02 L 2.610000e+02 3.000000e+02 L 2.630000e+02 3.000000e+02 L 2.650000e+02 3.000000e+02 L 2.670000e+02 3.000000e+02 L 2.680000e+02 3.000000e+02 L 2.700000e+02 3.000000e+02 L 2.720000e+02 3.000000e+02 L 2.740000e+02 3.000000e+02 L 2.760000e+02 3.000000e+02 L 2.770000e+02 3.000000e+02 L 2.790000e+02 3.000000e+02 L 2.810000e+02 3.000000e+02 L 2.830000e+02 3.000000e+02 L 2.850000e+02 3.000000e+02 L 2.870000e+02 3.000000e+02 L 2.880000e+02 3.000000e+02 L 2.900000e+02 3.000000e+02 L 2.920000e+02 3.000000e+02 L 2.940000e+02 3.000000e+02 L 2.960000e+02 3.000000e+02 L 2.980000e+02 3.000000e+02 L 2.990000e+02 3.000000e+02 L 3.010000e+02 3.000000e+02 L 3.030000e+02 3.000000e+02 L 3.050000e+02 3.000000e+02 L 3.070000e+02 3.000000e+02 L 3.090000e+02 3.000000e+02 L 3.100000e+02 3.000000e+02 L 3.120000e+02 3.000000e+02 L 3.140000e+02 3.000000e+02 L 3.160000e+02 3.000000e+02 L 3.180000e+02 3.000000e+02 L 3.200000e+02 3.000000e+02 L 3.210000e+02 3.000000e+02 L 3.230000e+02 3.000000e+02 L 3.250000e+02 3.000000e+02 L 3.270000e+02 3.000000e+02 L 3.290000e+02 3.000000e+02 L 3.310000e+02 3.000000e+02 L 3.320000e+02 3.000000e+02 L 3.340000e+02 3.000000e+02 L 3.360000e+02 3.000000e+02 L 3.380000e+02 3.000000e+02 L 3.400000e+02 3.000000e+02 L 3.410000e+02 3.000000e+02 L 3.430000e+02 3.000000e+02 L 3.450000e+02 3.000000e+02 L 3.470000e+02 3.000000e+02 L 3.490000e+02 3.000000e+02 L 3.510000e+02 3.000000e+02 L 3.520000e+02 3.000000e+02 L 3.540000e+02 3.000000e+02 L 3.560000e+02 3.000000e+02 L 3.580000e+02 3.000000e+02 L 3.600000e+02 3.000000e+02 L 3.620000e+02 3.000000e+02 L 3.630000e+02 3.000000e+02 L 3.650000e+02 3.000000e+02 L 3.670000e+02 3.000000e+02 L 3.690000e+02 3.000000e+02 L 3.710000e+02 3.000000e+02 L 3.730000e+02 3.000000e+02 L 3.740000e+02 3.000000e+02 L 3.760000e+02 3.000000e+02 L 3.780000e+02 3.000000e+02 L 3.800000e+02 3.000000e+02 L 3.820000e+02 3.000000e+02 L 3.840000e+02 3.000000e+02 L 3.850000e+02 3.000000e+02 L 3.870000e+02 3.000000e+02 L 3.890000e+02 3.000000e+02 L 3.910000e+02 3.000000e+02 L 3.930000e+02 3.000000e+02 L 3.950000e+02 3.000000e+02 L 3.960000e+02 3.000000e+02 L 3.980000e+02 3.000000e+02 L 4.000000e+02 3.000000e+02 L 4.020000e+02 3.000000e+02 L 4.040000e+02 3.000000e+02 L 4.050000e+02 3.000000e+02 L 4.070000e+02 3.000000e+02 L 4.090000e+02 3.000000e+02 L 4.110000e+02 3.000000e+02 L 4.130000e+02 3.000000e+02 L 4.150000e+02 3.000000e+02 L 4.160000e+02 3.000000e+02 L 4.180000e+02 3.000000e+02 L 4.200000e+02 3.000000e+02 L 4.220000e+02 3.000000e+02 L 4.240000e+02 3.000000e+02 L 4.260000e+02 3.000000e+02 L 4.270000e+02 3.000000e+02 L 4.290000e+02 3.000000e+02 L 4.310000e+02 3.000000e+02 L 4.330000e+02 3.000000e+02 L 4.350000e+02 3.000000e+02 L 4.370000e+02 3.000000e+02 L 4.380000e+02 3.000000e+02 L 4.400000e+02 3.000000e+02 L 4.420000e+02 3.000000e+02 L 4.440000e+02 3.000000e+02 L 4.460000e+02 3.000000e+02 L 4.480000e+02 3.000000e+02 L 4.490000e+02 3.000000e+02 L 4.510000e+02 3.000000e+02 L 4.530000e+02 3.000000e+02 L 4.550000e+02 3.000000e+02 L 4.570000e+02 3.000000e+02 L 4.590000e+02 3.000000e+02 L 4.600000e+02 3.000000e+02 L 4.620000e+02 3.000000e+02 L 4.640000e+02 3.000000e+02 L 4.660000e+02 3.000000e+02 L 4.680000e+02 3.000000e+02 L 4.690000e+02 3.000000e+02 L 4.710000e+02 3.000000e+02 L 4.730000e+02 3.000000e+02 L 4.750000e+02 3.000000e+02 L 4.770000e+02 3.000000e+02 L 4.790000e+02 3.000000e+02 L 4.800000e+02 3.000000e+02 L 4.820000e+02 3.000000e+02 L 4.840000e+02 3.000000e+02 L 4.860000e+02 3.000000e+02 L 4.880000e+02 3.000000e+02 L 4.900000e+02 3.000000e+02 L 4.910000e+02 3.000000e+02 L 4.930000e+02 3.000000e+02 L 4.950000e+02 3.000000e+02 L 4.970000e+02 3.000000e+02 L 4.990000e+02 3.000000e+02 L 5.010000e+02 3.000000e+02 L 5.020000e+02 3.000000e+02 L 5.040000e+02 3.000000e+02 L 5.060000e+02 3.000000e+02 L 5.080000e+02 3.000000e+02 L 5.100000e+02 3.000000e+02 L 5.120000e+02 3.000000e+02 L 5.130000e+02 3.000000e+02 L 5.150000e+02 3.000000e+02 L 5.170000e+02 3.000000e+02 L 5.190000e+02 3.000000e+02 L 5.210000e+02 3.000000e+02 L 5.230000e+02 3.000000e+02 L 5.240000e+02 3.000000e+02 L 5.260000e+02 3.000000e+02 L 5.280000e+02 3.000000e+02 L 5.300000e+02 3.000000e+02 L 5.320000e+02 3.000000e+02 L 5.330000e+02 3.000000e+02 L 5.350000e+02 3.000000e+02 L 5.370000e+02 3.000000e+02 L 5.390000e+02 3.000000e+02 L 5.410000e+02 3.000000e+02 L 5.430000e+02 3.000000e+02 L 5.440000e+02 3.000000e+02 L 5.460000e+02 3.000000e+02 L 5.480000e+02 3.000000e+02 L 5.500000e+02 3.000000e+02 L 5.520000e+02 3.000000e+02 L 5.540000e+02 3.000000e+02 L 5.550000e+02 3.000000e+02 L 5.570000e+02 3.000000e+02 L 5.590000e+02 3.000000e+02 L 5.610000e+02 3.000000e+02 L 5.630000e+02 3.000000e+02 L 5.650000e+02 3.000000e+02 L 5.660000e+02 3.000000e+02 L 5.680000e+02 3.000000e+02 L 5.700000e+02 3.000000e+02 L 5.720000e+02 3.000000e+02 L 5.740000e+02 3.000000e+02 L 5.760000e+02 3.000000e+02 L 5.770000e+02 3.000000e+02 L 5.790000e+02 3.000000e+02 L 5.810000e+02 3.000000e+02 L 5.830000e+02 3.000000e+02 L 5.850000e+02 3.000000e+02 L 5.870000e+02 3.000000e+02 L 5.880000e+02 3.000000e+02 L 5.900000e+02 3.000000e+02 L 5.920000e+02 3.000000e+02 L 5.940000e+02 3.000000e+02 L 5.960000e+02 3.000000e+02 L 5.970000e+02 3.000000e+02 L 5.990000e+02 3.000000e+02 L 6.010000e+02 3.000000e+02 L 6.030000e+02 3.000000e+02 L 6.050000e+02 3.000000e+02 L 6.070000e+02 3.000000e+02 L 6.080000e+02 3.000000e+02 L 6.100000e+02 3.000000e+02 L 6.120000e+02 3.000000e+02 L 6.140000e+02 3.000000e+02 L 6.160000e+02 3.000000e+02 L 6.180000e+02 3.000000e+02 L 6.190000e+02 3.000000e+02 L 6.210000e+02 3.000000e+02 L 6.230000e+02 3.000000e+02 L 6.250000e+02 3.000000e+02 L 6.270000e+02 3.000000e+02 L 6.290000e+02 3.000000e+02" style="stroke:#332288; fill:none; stroke-width:2;" stroke-dasharray="0" />
<text x="650" y="150" text-anchor="end" font-family="Arial, Helvetica, sans-serif" style="font-size:20;">Cd(r)</text>
<line stroke-dasharray="0" x1="660" y1="140" x2="700" y2="140" style="stroke:#DDCC77;stroke-width:2;"></line>
<path d=" M 8.200000e+01 3.000000e+02 L 8.400000e+01 3.000000e+02 L 8.500000e+01 3.000000e+02 L 8.700000e+01 3.000000e+02 L 8.900000e+01 3.000000e+02 L 9.100000e+01 3.000000e+02 L 9.300000e+01 3.000000e+02 L 9.500000e+01 3.000000e+02 L 9.600000e+01 3.000000e+02 L 9.800000e+01 3.000000e+02 L 1.000000e+02 3.000000e+02 L 1.020000e+02 3.000000e+02 L 1.040000e+02 3.000000e+02 L 1.060000e+02 3.000000e+02 L 1.070000e+02 3.000000e+02 L 1.090000e+02 3.000000e+02 L 1.110000e+02 3.000000e+02 L 1.130000e+02 3.000000e+02 L 1.150000e+02 3.000000e+02 L 1.170000e+02 3.000000e+02 L 1.180000e+02 3.000000e+02 L 1.200000e+02 3.000000e+02 L 1.220000e+02 3.000000e+02 L 1.240000e+02 3.000000e+02 L 1.260000e+02 3.000000e+02 L 1.280000e+02 3.000000e+02 L 1.290000e+02 3.000000e+02 L 1.310000e+02 3.000000e+02 L 1.330000e+02 3.000000e+02 L 1.350000e+02 3.000000e+02 L 1.370000e+02 3.000000e+02 L 1.390000e+02 3.000000e+02 L 1.400000e+02 3.000000e+02 L 1.420000e+02 3.000000e+02 L 1.440000e+02 3.000000e+02 L 1.460000e+02 3.000000e+02 L 1.480000e+02 3.000000e+02 L 1.490000e+02 3.000000e+02 L 1.510000e+02 3.000000e+02 L 1.530000e+02 3.000000e+02 L 1.550000e+02 3.000000e+02 L 1.570000e+02 3.000000e+02 L 1.590000e+02 3.000000e+02 L 1.600000e+02 3.000000e+02 L 1.620000e+02 3.000000e+02 L 1.640000e+02 3.000000e+02 L 1.660000e+02 3.000000e+02 L 1.680000e+02 3.000000e+02 L 1.700000e+02 3.000000e+02 L 1.710000e+02 3.000000e+02 L 1.730000e+02 3.000000e+02 L 1.750000e+02 3.000000e+02 L 1.770000e+02 3.000000e+02 L 1.790000e+02 3.000000e+02 L 1.810000e+02 3.000000e+02 L 1.820000e+02 3.000000e+02 L 1.840000e+02 3.000000e+02 L 1.860000e+02 3.000000e+02 L 1.880000e+02 3.000000e+02 L 1.900000e+02 3.000000e+02 L 1.920000e+02 3.000000e+02 L 1.930000e+02 3.000000e+02 L 1.950000e+02 3.000000e+02 L 1.970000e+02 3.000000e+02 L 1.990000e+02 3.000000e+02 L 2.010000e+02 3.000000e+02 L 2.030000e+02 3.000000e+02 L 2.040000e+02 3.000000e+02 L 2.060000e+02 3.000000e+02 L 2.080000e+02 3.000000e+02 L 2.100000e+02 3.000000e+02 L 2.120000e+02 3.000000e+02 L 2.130000e+02 3.000000e+02 L 2.150000e+02 3.000000e+02 L 2.170000e+02 3.000000e+02 L 2.190000e+02 3.000000e+02 L 2.210000e+02 3.000000e+02 L 2.230000e+02 3.000000e+02 L 2.240000e+02 3.000000e+02 L 2.260000e+02 3.000000e+02 L 2.280000e+02 3.000000e+02 L 2.300000e+02 3.000000e+02 L 2.320000e+02 3.000000e+02 L 2.340000e+02 3.000000e+02 L 2.350000e+02 3.000000e+02 L 2.370000e+02 3.000000e+02 L 2.390000e+02 3.000000e+02 L 2.410000e+02 3.000000e+02 L 2.430000e+02 3.000000e+02 L 2.450000e+02 3.000000e+02 L 2.460000e+02 3.000000e+02 L 2.480000e+02 3.000000e+02 L 2.500000e+02 3.000000e+02 L 2.520000e+02 3.000000e+02 L 2.540000e+02 3.000000e+02 L 2.560000e+02 3.000000e+02 L 2.570000e+02 3.000000e+02 L 2.590000e+02 3.000000e+02 L 2.610000e+02 3.000000e+02 L 2.630000e+02 3.000000e+02 L 2.650000e+02 3.000000e+02 L 2.670000e+02 3.000000e+02 L 2.680000e+02 3.000000e+02 L 2.700000e+02 3.000000e+02 L 2.720000e+02 3.000000e+02 L 2.740000e+02 3.000000e+02 L 2.760000e+02 3.000000e+02 L 2.770000e+02 3.000000e+02 L 2.790000e+02 3.000000e+02 L 2.810000e+02 3.000000e+02 L 2.830000e+02 3.000000e+02 L 2.850000e+02 3.000000e+02 L 2.870000e+02 3.000000e+02 L 2.880000e+02 3.000000e+02 L 2.900000e+02 3.000000e+02 L 2.920000e+02 3.000000e+02 L 2.940000e+02 3.000000e+02 L 2.960000e+02 3.000000e+02 L 2.980000e+02 3.000000e+02 L 2.990000e+02 3.000000e+02 L 3.010000e+02 3.000000e+02 L 3.030000e+02 3.000000e+02 L 3.050000e+02 3.000000e+02 L 3.070000e+02 3.000000e+02 L 3.090000e+02 3.000000e+02 L 3.100000e+02 3.000000e+02 L 3.120000e+02 3.000000e+02 L 3.140000e+02 3.000000e+02 L 3.160000e+02 3.000000e+02 L 3.180000e+02 3.000000e+02 L 3.200000e+02 3.000000e+02 L 3.210000e+02 3.000000e+02 L 3.230000e+02 3.000000e+02 L 3.250000e+02 3.000000e+02 L 3.270000e+02 3.000000e+02 L 3.290000e+02 3.000000e+02 L 3.310000e+02 3.000000e+02 L 3.320000e+02 3.000000e+02 L 3.340000e+02 3.000000e+02 L 3.360000e+02 3.000000e+02 L 3.380000e+02 3.000000e+02 L 3.400000e+02 3.000000e+02 L 3.410000e+02 3.000000e+02 L 3.430000e+02 3.000000e+02 L 3.450000e+02 3.000000e+02 L 3.470000e+02 3.000000e+02 L 3.490000e+02 3.000000e+02 L 3.510000e+02 3.000000e+02 L 3.520000e+02 3.000000e+02 L 3.540000e+02 3.000000e+02 L 3.560000e+02 3.000000e+02 L 3.580000e+02 3.000000e+02 L 3.600000e+02 3.000000e+02 L 3.620000e+02 3.000000e+02 L 3.630000e+02 3.000000e+02 L 3.650000e+02 3.000000e+02 L 3.670000e+02 3.000000e+02 L 3.690000e+02 3.000000e+02 L 3.710000e+02 3.000000e+02 L 3.730000e+02 3.000000e+02 L 3.740000e+02 3.000000e+02 L 3.760000e+02 3.000000e+02 L 3.780000e+02 3.000000e+02 L 3.800000e+02 3.000000e+02 L 3.820000e+02 3.000000e+02 L 3.840000e+02 3.000000e+02 L 3.850000e+02 3.000000e+02 L 3.870000e+02 3.000000e+02 L 3.890000e+02 3.000000e+02 L 3.910000e+02 3.000000e+02 L 3.930000e+02 3.000000e+02 L 3.950000e+02 3.000000e+02 L 3.960000e+02 3.000000e+02 L 3.980000e+02 3.000000e+02 L 4.000000e+02 3.000000e+02 L 4.020000e+02 3.000000e+02 L 4.040000e+02 3.000000e+02 L 4.050000e+02 3.000000e+02 L 4.070000e+02 3.000000e+02 L 4.090000e+02 3.000000e+02 L 4.110000e+02 3.000000e+02 L 4.130000e+02 3.000000e+02 L 4.150000e+02 3.000000e+02 L 4.160000e+02 3.000000e+02 L 4.180000e+02 3.000000e+02 L 4.200000e+02 3.000000e+02 L 4.220000e+02 3.000000e+02 L 4.240000e+02 3.000000e+02 L 4.260000e+02 3.000000e+02 L 4.270000e+02 3.000000e+02 L 4.290000e+02 3.000000e+02 L 4.310000e+02 3.000000e+02 L 4.330000e+02 3.000000e+02 L 4.350000e+02 3.000000e+02 L 4.370000e+02 3.000000e+02 L 4.380000e+02 3.000000e+02 L 4.400000e+02 3.000000e+02 L 4.420000e+02 3.000000e+02 L 4.440000e+02 3.000000e+02 L 4.460000e+02 3.000000e+02 L 4.480000e+02 3.000000e+02 L 4.490000e+02 3.000000e+02 L 4.510000e+02 3.000000e+02 L 4.530000e+02 3.000000e+02 L 4.550000e+02 3.000000e+02 L 4.570000e+02 3.000000e+02 L 4.590000e+02 3.000000e+02 L 4.600000e+02 3.000000e+02 L 4.620000e+02 3.000000e+02 L 4.640000e+02 3.000000e+02 L 4.660000e+02 3.000000e+02 L 4.680000e+02 3.000000e+02 L 4.690000e+02 3.000000e+02 L 4.710000e+02 3.000000e+02 L 4.730000e+02 3.000000e+02 L 4.750000e+02 3.000000e+02 L 4.770000e+02 3.000000e+02 L 4.790000e+02 3.000000e+02 L 4.800000e+02 3.000000e+02 L 4.820000e+02 3.000000e+02 L 4.840000e+02 3.000000e+02 L 4.860000e+02 3.000000e+02 L 4.880000e+02 3.000000e+02 L 4.900000e+02 3.000000e+02 L 4.910000e+02 3.000000e+02 L 4.930000e+02 3.000000e+02 L 4.950000e+02 3.000000e+02 L 4.970000e+02 3.000000e+02 L 4.990000e+02 3.000000e+02 L 5.010000e+02 3.000000e+02 L 5.020000e+02 3.000000e+02 L 5.040000e+02 3.000000e+02 L 5.060000e+02 3.000000e+02 L 5.080000e+02 3.000000e+02 L 5.100000e+02 3.000000e+02 L 5.120000e+02 3.000000e+02 L 5.130000e+02 3.000000e+02 L 5.150000e+02 3.000000e+02 L 5.170000e+02 3.000000e+02 L 5.190000e+02 3.000000e+02 L 5.210000e+02 3.000000e+02 L 5.230000e+02 3.000000e+02 L 5.240000e+02 3.000000e+02 L 5.260000e+02 3.000000e+02 L 5.280000e+02 3.000000e+02 L 5.300000e+02 3.000000e+02 L 5.320000e+02 3.000000e+02 L 5.330000e+02 3.000000e+02 L 5.350000e+02 3.000000e+02 L 5.370000e+02 3.000000e+02 L 5.390000e+02 3.000000e+02 L 5.410000e+02 3.000000e+02 L 5.430000e+02 3.000000e+02 L 5.440000e+02 3.000000e+02 L 5.460000e+02 3.000000e+02 L 5.480000e+02 3.000000e+02 L 5.500000e+02 3.000000e+02 L 5.520000e+02 3.000000e+02 L 5.540000e+02 3.000000e+02 L 5.550000e+02 3.000000e+02 L 5.570000e+02 3.000000e+02 L 5.590000e+02 3.000000e+02 L 5.610000e+02 3.000000e+02 L 5.630000e+02 3.000000e+02 L 5.650000e+02 3.000000e+02 L 5.660000e+02 3.000000e+02 L 5.680000e+02 3.000000e+02 L 5.700000e+02 3.000000e+02 L 5.720000e+02 3.000000e+02 L 5.740000e+02 3.000000e+02 L 5.760000e+02 3.000000e+02 L 5.770000e+02 3.000000e+02 L 5.790000e+02 3.000000e+02 L 5.810000e+02 3.000000e+02 L 5.830000e+02 3.000000e+02 L 5.850000e+02 3.000000e+02 L 5.870000e+02 3.000000e+02 L 5.880000e+02 3.000000e+02 L 5.900000e+02 3.000000e+02 L 5.920000e+02 3.000000e+02 L 5.940000e+02 3.000000e+02 L 5.960000e+02 3.000000e+02 L 5.970000e+02 3.000000e+02 L 5.990000e+02 3.000000e+02 L 6.010000e+02 3.000000e+02 L 6.030000e+02 3.000000e+02 L 6.050000e+02 3.000000e+02 L 6.070000e+02 3.000000e+02 L 6.080000e+02 3.000000e+02 L 6.100000e+02 3.000000e+02 L 6.120000e+02 3.000000e+02 L 6.140000e+02 3.000000e+02 L 6.160000e+02 3.000000e+02 L 6.180000e+02 3.000000e+02 L 6.190000e+02 3.000000e+02 L 6.210000e+02 3.000000e+02 L 6.230000e+02 3.000000e+02 L 6.250000e+02 3.000000e+02 L 6.270000e+02 3.000000e+02 L 6.290000e+02 3.000000e+02" style="stroke:#DDCC77; fill:none; stroke-width:2;" stroke-dasharray="0" />
<text x="650" y="180" text-anchor="end" font-family="Arial, Helvetica, sans-serif" style="font-size:20;">Cl</text>
<line stroke-dasharray="0" x1="660" y1="170" x2="700" y2="170" style="stroke:#117733;stroke-width:2;"></line>
<path d=" M 8.200000e+01 3.000000e+02 L 8.400000e+01 3.000000e+02 L 8.500000e+01 3.000000e+02 L 8.700000e+01 3.000000e+02 L 8.900000e+01 3.000000e+02 L 9.100000e+01 3.000000e+02 L 9.300000e+01 3.000000e+02 L 9.500000e+01 3.000000e+02 L 9.600000e+01 3.000000e+02 L 9.800000e+01 3.000000e+02 L 1.000000e+02 3.000000e+02 L 1.020000e+02 3.000000e+02 L 1.040000e+02 3.000000e+02 L 1.060000e+02 3.000000e+02 L 1.070000e+02 3.000000e+02 L 1.090000e+02 3.000000e+02 L 1.110000e+02 3.000000e+02 L 1.130000e+02 3.000000e+02 L 1.150000e+02 3.000000e+02 L 1.170000e+02 3.000000e+02 L 1.180000e+02 3.000000e+02 L 1.200000e+02 3.000000e+02 L 1.220000e+02 3.000000e+02 L 1.240000e+02 3.000000e+02 L 1.260000e+02 3.000000e+02 L 1.280000e+02 3.000000e+02 L 1.290000e+02 3.000000e+02 L 1.310000e+02 3.000000e+02 L 1.330000e+02 3.000000e+02 L 1.350000e+02 3.000000e+02 L 1.370000e+02 3.000000e+02 L 1.390000e+02 3.000000e+02 L 1.400000e+02 3.000000e+02 L 1.420000e+02 3.000000e+02 L 1.440000e+02 3.000000e+02 L 1.460000e+02 3.000000e+02 L 1.480000e+02 3.000000e+02 L 1.490000e+02 3.000000e+02 L 1.510000e+02 3.000000e+02 L 1.530000e+02 3.000000e+02 L 1.550000e+02 3.000000e+02 L 1.570000e+02 3.000000e+02 L 1.590000e+02 3.000000e+02 L 1.600000e+02 3.000000e+02 L 1.620000e+02 3.000000e+02 L 1.640000e+02 3.000000e+02 L 1.660000e+02 3.000000e+02 L 1.680000e+02 3.000000e+02 L 1.700000e+02 3.000000e+02 L 1.710000e+02 3.000000e+02 L 1.730000e+02 3.000000e+02 L 1.750000e+02 3.000000e+02 L 1.770000e+02 3.000000e+02 L 1.790000e+02 3.000000e+02 L 1.810000e+02 3.000000e+02 L 1.820000e+02 3.000000e+02 L 1.840000e+02 3.000000e+02 L 1.860000e+02 3.000000e+02 L 1.880000e+02 3.000000e+02 L 1.900000e+02 3.000000e+02 L 1.920000e+02 3.000000e+02 L 1.930000e+02 3.000000e+02 L 1.950000e+02 3.000000e+02 L 1.970000e+02 3.000000e+02 L 1.990000e+02 3.000000e+02 L 2.010000e+02 3.000000e+02 L 2.030000e+02 3.000000e+02 L 2.040000e+02 3.000000e+02 L 2.060000e+02 3.000000e+02 L 2.080000e+02 3.000000e+02 L 2.100000e+02 3.000000e+02 L 2.120000e+02 3.000000e+02 L 2.130000e+02 3.000000e+02 L 2.150000e+02 3.000000e+02 L 2.170000e+02 3.000000e+02 L 2.190000e+02 3.000000e+02 L 2.210000e+02 3.000000e+02 L 2.230000e+02 3.000000e+02 L 2.240000e+02 3.000000e+02 L 2.260000e+02 3.000000e+02 L 2.280000e+02 3.000000e+02 L 2.300000e+02 3.000000e+02 L 2.320000e+02 3.000000e+02 L 2.340000e+02 3.000000e+02 L 2.350000e+02 3.000000e+02 L 2.370000e+02 3.000000e+02 L 2.390000e+02 3.000000e+02 L 2.410000e+02 3.000000e+02 L 2.430000e+02 3.000000e+02 L 2.450000e+02 3.000000e+02 L 2.460000e+02 3.000000e+02 L 2.480000e+02 3.000000e+02 L 2.500000e+02 3.000000e+02 L 2.520000e+02 3.000000e+02 L 2.540000e+02 3.000000e+02 L 2.560000e+02 3.000000e+02 L 2.570000e+02 3.000000e+02 L 2.590000e+02 3.000000e+02 L 2.610000e+02 3.000000e+02 L 2.630000e+02 3.000000e+02 L 2.650000e+02 3.000000e+02 L 2.670000e+02 3.000000e+02 L 2.680000e+02 3.000000e+02 L 2.700000e+02 3.000000e+02 L 2.720000e+02 3.000000e+02 L 2.740000e+02 3.000000e+02 L 2.760000e+02 3.000000e+02 L 2.770000e+02 3.000000e+02 L 2.790000e+02 3.000000e+02 L 2.810000e+02 3.000000e+02 L 2.830000e+02 3.000000e+02 L 2.850000e+02 3.000000e+02 L 2.870000e+02 3.000000e+02 L 2.880000e+02 3.000000e+02 L 2.900000e+02 3.000000e+02 L 2.920000e+02 3.000000e+02 L 2.940000e+02 3.000000e+02 L 2.960000e+02 3.000000e+02 L 2.980000e+02 3.000000e+02 L 2.990000e+02 3.000000e+02 L 3.010000e+02 3.000000e+02 L 3.030000e+02 3.000000e+02 L 3.050000e+02 3.000000e+02 L 3.070000e+02 3.000000e+02 L 3.090000e+02 3.000000e+02 L 3.100000e+02 3.000000e+02 L 3.120000e+02 3.000000e+02 L 3.140000e+02 3.000000e+02 L 3.160000e+02 3.000000e+02 L 3.180000e+02 3.000000e+02 L 3.200000e+02 3.000000e+02 L 3.210000e+02 3.000000e+02 L 3.230000e+02 3.000000e+02 L 3.250000e+02 3.000000e+02 L 3.270000e+02 3.000000e+02 L 3.290000e+02 3.000000e+02 L 3.310000e+02 3.000000e+02 L 3.320000e+02 3.000000e+02 L 3.340000e+02 3.000000e+02 L 3.360000e+02 3.000000e+02 L 3.380000e+02 3.000000e+02 L 3.400000e+02 3.000000e+02 L 3.410000e+02 3.000000e+02 L 3.430000e+02 3.000000e+02 L 3.450000e+02 3.000000e+02 L 3.470000e+02 3.000000e+02 L 3.490000e+02 3.000000e+02 L 3.510000e+02 3.000000e+02 L 3.520000e+02 3.000000e+02 L 3.540000e+02 3.000000e+02 L 3.560000e+02 3.000000e+02 L 3.580000e+02 3.000000e+02 L 3.600000e+02 3.000000e+02 L 3.620000e+02 3.000000e+02 L 3.630000e+02 3.000000e+02 L 3.650000e+02 3.000000e+02 L 3.670000e+02 3.000000e+02 L 3.690000e+02 3.000000e+02 L 3.710000e+02 3.000000e+02 L 3.730000e+02 3.000000e+02 L 3.740000e+02 3.000000e+02 L 3.760000e+02 3.000000e+02 L 3.780000e+02 3.000000e+02 L 3.800000e+02 3.000000e+02 L 3.820000e+02 3.000000e+02 L 3.840000e+02 3.000000e+02 L 3.850000e+02 3.000000e+02 L 3.870000e+02 3.000000e+02 L 3.890000e+02 3.000000e+02 L 3.910000e+02 3.000000e+02 L 3.930000e+02 3.000000e+02 L 3.950000e+02 3.000000e+02 L 3.960000e+02 3.000000e+02 L 3.980000e+02 3.000000e+02 L 4.000000e+02 3.000000e+02 L 4.020000e+02 3.000000e+02 L 4.040000e+02 3.000000e+02 L 4.050000e+02 3.000000e+02 L 4.070000e+02 3.000000e+02 L 4.090000e+02 3.000000e+02 L 4.110000e+02 3.000000e+02 L 4.130000e+02 3.000000e+02 L 4.150000e+02 3.000000e+02 L 4.160000e+02 3.000000e+02 L 4.180000e+02 3.000000e+02 L 4.200000e+02 3.000000e+02 L 4.220000e+02 3.000000e+02 L 4.240000e+02 3.000000e+02 L 4.260000e+02 3.000000e+02 L 4.270000e+02 3.000000e+02 L 4.290000e+02 3.000000e+02 L 4.310000e+02 3.000000e+02 L 4.330000e+02 3.000000e+02 L 4.350000e+02 3.000000e+02 L 4.370000e+02 3.000000e+02 L 4.380000e+02 3.000000e+02 L 4.400000e+02 3.000000e+02 L 4.420000e+02 3.000000e+02 L 4.440000e+02 3.000000e+02 L 4.460000e+02 3.000000e+02 L 4.480000e+02 3.000000e+02 L 4.490000e+02 3.000000e+02 L 4.510000e+02 3.000000e+02 L 4.530000e+02 3.000000e+02 L 4.550000e+02 3.000000e+02 L 4.570000e+02 3.000000e+02 L 4.590000e+02 3.000000e+02 L 4.600000e+02 3.000000e+02 L 4.620000e+02 3.000000e+02 L 4.640000e+02 3.000000e+02 L 4.660000e+02 3.000000e+02 L 4.680000e+02 3.000000e+02 L 4.690000e+02 3.000000e+02 L 4.710000e+02 3.000000e+02 L 4.730000e+02 3.000000e+02 L 4.750000e+02 3.000000e+02 L 4.770000e+02 3.000000e+02 L 4.790000e+02 3.000000e+02 L 4.800000e+02 3.000000e+02 L 4.820000e+02 3.000000e+02 L 4.840000e+02 3.000000e+02 L 4.860000e+02 3.000000e+02 L 4.880000e+02 3.000000e+02 L 4.900000e+02 3.000000e+02 L 4.910000e+02 3.000000e+02 L 4.930000e+02 3.000000e+02 L 4.950000e+02 3.000000e+02 L 4.970000e+02 3.000000e+02 L 4.990000e+02 3.000000e+02 L 5.010000e+02 3.000000e+02 L 5.020000e+02 3.000000e+02 L 5.040000e+02 3.000000e+02 L 5.060000e+02 3.000000e+02 L 5.080000e+02 3.000000e+02 L 5.100000e+02 3.000000e+02 L 5.120000e+02 3.000000e+02 L 5.130000e+02 3.000000e+02 L 5.150000e+02 3.000000e+02 L 5.170000e+02 3.000000e+02 L 5.190000e+02 3.000000e+02 L 5.210000e+02 3.000000e+02 L 5.230000e+02 3.000000e+02 L 5.240000e+02 3.000000e+02 L 5.260000e+02 3.000000e+02 L 5.280000e+02 3.000000e+02 L 5.300000e+02 3.000000e+02 L 5.320000e+02 3.000000e+02 L 5.330000e+02 3.000000e+02 L 5.350000e+02 3.000000e+02 L 5.370000e+02 3.000000e+02 L 5.390000e+02 3.000000e+02 L 5.410000e+02 3.000000e+02 L 5.430000e+02 3.000000e+02 L 5.440000e+02 3.000000e+02 L 5.460000e+02 3.000000e+02 L 5.480000e+02 3.000000e+02 L 5.500000e+02 3.000000e+02 L 5.520000e+02 3.000000e+02 L 5.540000e+02 3.000000e+02 L 5.550000e+02 3.000000e+02 L 5.570000e+02 3.000000e+02 L 5.590000e+02 3.000000e+02 L 5.610000e+02 3.000000e+02 L 5.630000e+02 3.000000e+02 L 5.650000e+02 3.000000e+02 L 5.660000e+02 3.000000e+02 L 5.680000e+02 3.000000e+02 L 5.700000e+02 3.000000e+02 L 5.720000e+02 3.000000e+02 L 5.740000e+02 3.000000e+02 L 5.760000e+02 3.000000e+02 L 5.770000e+02 3.000000e+02 L 5.790000e+02 3.000000e+02 L 5.810000e+02 3.000000e+02 L 5.830000e+02 3.000000e+02 L 5.850000e+02 3.000000e+02 L 5.870000e+02 3.000000e+02 L 5.880000e+02 3.000000e+02 L 5.900000e+02 3.000000e+02 L 5.920000e+02 3.000000e+02 L 5.940000e+02 3.000000e+02 L 5.960000e+02 3.000000e+02 L 5.970000e+02 3.000000e+02 L 5.990000e+02 3.000000e+02 L 6.010000e+02 3.000000e+02 L 6.030000e+02 3.000000e+02 L 6.050000e+02 3.000000e+02 L 6.070000e+02 3.000000e+02 L 6.080000e+02 3.000000e+02 L 6.100000e+02 3.000000e+02 L 6.120000e+02 3.000000e+02 L 6.140000e+02 3.000000e+02 L 6.160000e+02 3.000000e+02 L 6.180000e+02 3.000000e+02 L 6.190000e+02 3.000000e+02 L 6.210000e+02 3.000000e+02 L 6.230000e+02 3.000000e+02 L 6.250000e+02 3.000000e+02 L 6.270000e+02 3.000000e+02 L 6.290000e+02 3.000000e+02" style="stroke:#117733; fill:none; stroke-width:2;" stroke-dasharray="0" />
<text x="650" y="210" text-anchor="end" font-family="Arial, Helvetica, sans-serif" style="font-size:20;">Cl(f)</text>
<line stroke-dasharray="0" x1="660" y1="200" x2="700" y2="200" style="stroke:#88CCEE;stroke-width:2;"></line>
<path d=" M 8.200000e+01 3.000000e+02 L 8.400000e+01 3.000000e+02 L 8.500000e+01 3.000000e+02 L 8.700000e+01 3.000000e+02 L 8.900000e+01 3.000000e+02 L 9.100000e+01 3.000000e+02 L 9.300000e+01 3.000000e+02 L 9.500000e+01 3.000000e+02 L 9.600000e+01 3.000000e+02 L 9.800000e+01 3.000000e+02 L 1.000000e+02 3.000000e+02 L 1.020000e+02 3.000000e+02 L 1.040000e+02 3.000000e+02 L 1.060000e+02 3.000000e+02 L 1.070000e+02 3.000000e+02 L 1.090000e+02 3.000000e+02 L 1.110000e+02 3.000000e+02 L 1.130000e+02 3.000000e+02 L 1.150000e+02 3.000000e+02 L 1.170000e+02 3.000000e+02 L 1.180000e+02 3.000000e+02 L 1.200000e+02 3.000000e+02 L 1.220000e+02 3.000000e+02 L 1.240000e+02 3.000000e+02 L 1.260000e+02 3.000000e+02 L 1.280000e+02 3.000000e+02 L 1.290000e+02 3.000000e+02 L 1.310000e+02 3.000000e+02 L 1.330000e+02 3.000000e+02 L 1.350000e+02 3.000000e+02 L 1.370000e+02 3.000000e+02 L 1.390000e+02 3.000000e+02 L 1.400000e+02 3.000000e+02 L 1.420000e+02 3.000000e+02 L 1.440000e+02 3.000000e+02 L 1.460000e+02 3.000000e+02 L 1.480000e+02 3.000000e+02 L 1.490000e+02 3.000000e+02 L 1.510000e+02 3.000000e+02 L 1.530000e+02 3.000000e+02 L 1.550000e+02 3.000000e+02 L 1.570000e+02 3.000000e+02 L 1.590000e+02 3.000000e+02 L 1.600000e+02 3.000000e+02 L 1.620000e+02 3.000000e+02 L 1.640000e+02 3.000000e+02 L 1.660000e+02 3.000000e+02 L 1.680000e+02 3.000000e+02 L 1.700000e+02 3.000000e+02 L 1.710000e+02 3.000000e+02 L 1.730000e+02 3.000000e+02 L 1.750000e+02 3.000000e+02 L 1.770000e+02 3.000000e+02 L 1.790000e+02 3.000000e+02 L 1.810000e+02 3.000000e+02 L 1.820000e+02 3.000000e+02 L 1.840000e+02 3.000000e+02 L 1.860000e+02 3.000000e+02 L 1.880000e+02 3.000000e+02 L 1.900000e+02 3.000000e+02 L 1.920000e+02 3.000000e+02 L 1.930000e+02 3.000000e+02 L 1.950000e+02 3.000000e+02 L 1.970000e+02 3.000000e+02 L 1.990000e+02 3.000000e+02 L 2.010000e+02 3.000000e+02 L 2.030000e+02 3.000000e+02 L 2.040000e+02 3.000000e+02 L 2.060000e+02 3.000000e+02 L 2.080000e+02 3.000000e+02 L 2.100000e+02 3.000000e+02 L 2.120000e+02 3.000000e+02 L 2.130000e+02 3.000000e+02 L 2.150000e+02 3.000000e+02 L 2.170000e+02 3.000000e+02 L 2.190000e+02 3.000000e+02 L 2.210000e+02 3.000000e+02 L 2.230000e+02 3.000000e+02 L 2.240000e+02 3.000000e+02 L 2.260000e+02 3.000000e+02 L 2.280000e+02 3.000000e+02 L 2.300000e+02 3.000000e+02 L 2.320000e+02 3.000000e+02 L 2.340000e+02 3.000000e+02 L 2.350000e+02 3.000000e+02 L 2.370000e+02 3.000000e+02 L 2.390000e+02 3.000000e+02 L 2.410000e+02 3.000000e+02 L 2.430000e+02 3.000000e+02 L 2.450000e+02 3.000000e+02 L 2.460000e+02 3.000000e+02 L 2.480000e+02 3.000000e+02 L 2.500000e+02 3.000000e+02 L 2.520000e+02 3.000000e+02 L 2.540000e+02 3.000000e+02 L 2.560000e+02 3.000000e+02 L 2.570000e+02 3.000000e+02 L 2.590000e+02 3.000000e+02 L 2.610000e+02 3.000000e+02 L 2.630000e+02 3.000000e+02 L 2.650000e+02 3.000000e+02 L 2.670000e+02 3.000000e+02 L 2.680000e+02 3.000000e+02 L 2.700000e+02 3.000000e+02 L 2.720000e+02 3.000000e+02 L 2.740000e+02 3.000000e+02 L 2.760000e+02 3.000000e+02 L 2.770000e+02 3.000000e+02 L 2.790000e+02 3.000000e+02 L 2.810000e+02 3.000000e+02 L 2.830000e+02 3.000000e+02 L 2.850000e+02 3.000000e+02 L 2.870000e+02 3.000000e+02 L 2.880000e+02 3.000000e+02 L 2.900000e+02 3.000000e+02 L 2.920000e+02 3.000000e+02 L 2.940000e+02 3.000000e+02 L 2.960000e+02 3.000000e+02 L 2.980000e+02 3.000000e+02 L 2.990000e+02 3.000000e+02 L 3.010000e+02 3.000000e+02 L 3.030000e+02 3.000000e+02 L 3.050000e+02 3.000000e+02 L 3.070000e+02 3.000000e+02 L 3.090000e+02 3.000000e+02 L 3.100000e+02 3.000000e+02 L 3.120000e+02 3.000000e+02 L 3.140000e+02 3.000000e+02 L 3.160000e+02 3.000000e+02 L 3.180000e+02 3.000000e+02 L 3.200000e+02 3.000000e+02 L 3.210000e+02 3.000000e+02 L 3.230000e+02 3.000000e+02 L 3.250000e+02 3.000000e+02 L 3.270000e+02 3.000000e+02 L 3.290000e+02 3.000000e+02 L 3.310000e+02 3.000000e+02 L 3.320000e+02 3.000000e+02 L 3.340000e+02 3.000000e+02 L 3.360000e+02 3.000000e+02 L 3.380000e+02 3.000000e+02 L 3.400000e+02 3.000000e+02 L 3.410000e+02 3.000000e+02 L 3.430000e+02 3.000000e+02 L 3.450000e+02 3.000000e+02 L 3.470000e+02 3.000000e+02 L 3.490000e+02 3.000000e+02 L 3.510000e+02 3.000000e+02 L 3.520000e+02 3.000000e+02 L 3.540000e+02 3.000000e+02 L 3.560000e+02 3.000000e+02 L 3.580000e+02 3.000000e+02 L 3.600000e+02 3.000000e+02 L 3.620000e+02 3.000000e+02 L 3.630000e+02 3.000000e+02 L 3.650000e+02 3.000000e+02 L 3.670000e+02 3.000000e+02 L 3.690000e+02 3.000000e+02 L 3.710000e+02 3.000000e+02 L 3.730000e+02 3.000000e+02 L 3.740000e+02 3.000000e+02 L 3.760000e+02 3.000000e+02 L 3.780000e+02 3.000000e+02 L 3.800000e+02 3.000000e+02 L 3.820000e+02 3.000000e+02 L 3.840000e+02 3.000000e+02 L 3.850000e+02 3.000000e+02 L 3.870000e+02 3.000000e+02 L 3.890000e+02 3.000000e+02 L 3.910000e+02 3.000000e+02 L 3.930000e+02 3.000000e+02 L 3.950000e+02 3.000000e+02 L 3.960000e+02 3.000000e+02 L 3.980000e+02 3.000000e+02 L 4.000000e+02 3.000000e+02 L 4.020000e+02 3.000000e+02 L 4.040000e+02 3.000000e+02 L 4.050000e+02 3.000000e+02 L 4.070000e+02 3.000000e+02 L 4.090000e+02 3.000000e+02 L 4.110000e+02 3.000000e+02 L 4.130000e+02 3.000000e+02 L 4.150000e+02 3.000000e+02 L 4.160000e+02 3.000000e+02 L 4.180000e+02 3.000000e+02 L 4.200000e+02 3.000000e+02 L 4.220000e+02 3.000000e+02 L 4.240000e+02 3.000000e+02 L 4.260000e+02 3.000000e+02 L 4.270000e+02 3.000000e+02 L 4.290000e+02 3.000000e+02 L 4.310000e+02 3.000000e+02 L 4.330000e+02 3.000000e+02 L 4.350000e+02 3.000000e+02 L 4.370000e+02 3.000000e+02 L 4.380000e+02 3.000000e+02 L 4.400000e+02 3.000000e+02 L 4.420000e+02 3.000000e+02 L 4.440000e+02 3.000000e+02 L 4.460000e+02 3.000000e+02 L 4.480000e+02 3.000000e+02 L 4.490000e+02 3.000000e+02 L 4.510000e+02 3.000000e+02 L 4.530000e+02 3.000000e+02 L 4.550000e+02 3.000000e+02 L 4.570000e+02 3.000000e+02 L 4.590000e+02 3.000000e+02 L 4.600000e+02 3.000000e+02 L 4.620000e+02 3.000000e+02 L 4.640000e+02 3.000000e+02 L 4.660000e+02 3.000000e+02 L 4.680000e+02 3.000000e+02 L 4.690000e+02 3.000000e+02 L 4.710000e+02 3.000000e+02 L 4.730000e+02 3.000000e+02 L 4.750000e+02 3.000000e+02 L 4.770000e+02 3.000000e+02 L 4.790000e+02 3.000000e+02 L 4.800000e+02 3.000000e+02 L 4.820000e+02 3.000000e+02 L 4.840000e+02 3.000000e+02 L 4.860000e+02 3.000000e+02 L 4.880000e+02 3.000000e+02 L 4.900000e+02 3.000000e+02 L 4.910000e+02 3.000000e+02 L 4.930000e+02 3.000000e+02 L 4.950000e+02 3.000000e+02 L 4.970000e+02 3.000000e+02 L 4.990000e+02 3.000000e+02 L 5.010000e+02 3.000000e+02 L 5.020000e+02 3.000000e+02 L 5.040000e+02 3.000000e+02 L 5.060000e+02 3.000000e+02 L 5.080000e+02 3.000000e+02 L 5.100000e+02 3.000000e+02 L 5.120000e+02 3.000000e+02 L 5.130000e+02 3.000000e+02 L 5.150000e+02 3.000000e+02 L 5.170000e+02 3.000000e+02 L 5.190000e+02 3.000000e+02 L 5.210000e+02 3.000000e+02 L 5.230000e+02 3.000000e+02 L 5.240000e+02 3.000000e+02 L 5.260000e+02 3.000000e+02 L 5.280000e+02 3.000000e+02 L 5.300000e+02 3.000000e+02 L 5.320000e+02 3.000000e+02 L 5.330000e+02 3.000000e+02 L 5.350000e+02 3.000000e+02 L 5.370000e+02 3.000000e+02 L 5.390000e+02 3.000000e+02 L 5.410000e+02 3.000000e+02 L 5.430000e+02 3.000000e+02 L 5.440000e+02 3.000000e+02 L 5.460000e+02 3.000000e+02 L 5.480000e+02 3.000000e+02 L 5.500000e+02 3.000000e+02 L 5.520000e+02 3.000000e+02 L 5.540000e+02 3.000000e+02 L 5.550000e+02 3.000000e+02 L 5.570000e+02 3.000000e+02 L 5.590000e+02 3.000000e+02 L 5.610000e+02 3.000000e+02 L 5.630000e+02 3.000000e+02 L 5.650000e+02 3.000000e+02 L 5.660000e+02 3.000000e+02 L 5.680000e+02 3.000000e+02 L 5.700000e+02 3.000000e+02 L 5.720000e+02 3.000000e+02 L 5.740000e+02 3.000000e+02 L 5.760000e+02 3.000000e+02 L 5.770000e+02 3.000000e+02 L 5.790000e+02 3.000000e+02 L 5.810000e+02 3.000000e+02 L 5.830000e+02 3.000000e+02 L 5.850000e+02 3.000000e+02 L 5.870000e+02 3.000000e+02 L 5.880000e+02 3.000000e+02 L 5.900000e+02 3.000000e+02 L 5.920000e+02 3.000000e+02 L 5.940000e+02 3.000000e+02 L 5.960000e+02 3.000000e+02 L 5.970000e+02 3.000000e+02 L 5.990000e+02 3.000000e+02 L 6.010000e+02 3.000000e+02 L 6.030000e+02 3.000000e+02 L 6.050000e+02 3.000000e+02 L 6.070000e+02 3.000000e+02 L 6.080000e+02 3.000000e+02 L 6.100000e+02 3.000000e+02 L 6.120000e+02 3.000000e+02 L 6.140000e+02 3.000000e+02 L 6.160000e+02 3.000000e+02 L 6.180000e+02 3.000000e+02 L 6.190000e+02 3.000000e+02 L 6.210000e+02 3.000000e+02 L 6.230000e+02 3.000000e+02 L 6.250000e+02 3.000000e+02 L 6.270000e+02 3.000000e+02 L 6.290000e+02 3.000000e+02" style="stroke:#88CCEE; fill:none; stroke-width:2;" stroke-dasharray="0" />
<text x="650" y="240" text-anchor="end" font-family="Arial, Helvetica, sans-serif" style="font-size:20;">Cl(r)</text>
<line stroke-dasharray="0" x1="660" y1="230" x2="700" y2="230" style="stroke:#882255;stroke-width:2;"></line>
<path d=" M 8.200000e+01 3.000000e+02 L 8.400000e+01 3.000000e+02 L 8.500000e+01 3.000000e+02 L 8.700000e+01 3.000000e+02 L 8.900000e+01 3.000000e+02 L 9.100000e+01 3.000000e+02 L 9.300000e+01 3.000000e+02 L 9.500000e+01 3.000000e+02 L 9.600000e+01 3.000000e+02 L 9.800000e+01 3.000000e+02 L 1.000000e+02 3.000000e+02 L 1.020000e+02 3.000000e+02 L 1.040000e+02 3.000000e+02 L 1.060000e+02 3.000000e+02 L 1.070000e+02 3.000000e+02 L 1.090000e+02 3.000000e+02 L 1.110000e+02 3.000000e+02 L 1.130000e+02 3.000000e+02 L 1.150000e+02 3.000000e+02 L 1.170000e+02 3.000000e+02 L 1.180000e+02 3.000000e+02 L 1.200000e+02 3.000000e+02 L 1.220000e+02 3.000000e+02 L 1.240000e+02 3.000000e+02 L 1.260000e+02 3.000000e+02 L 1.280000e+02 3.000000e+02 L 1.290000e+02 3.000000e+02 L 1.310000e+02 3.000000e+02 L 1.330000e+02 3.000000e+02 L 1.350000e+02 3.000000e+02 L 1.370000e+02 3.000000e+02 L 1.390000e+02 3.000000e+02 L 1.400000e+02 3.000000e+02 L 1.420000e+02 3.000000e+02 L 1.440000e+02 3.000000e+02 L 1.460000e+02 3.000000e+02 L 1.480000e+02 3.000000e+02 L 1.490000e+02 3.000000e+02 L 1.510000e+02 3.000000e+02 L 1.530000e+02 3.000000e+02 L 1.550000e+02 3.000000e+02 L 1.570000e+02 3.000000e+02 L 1.590000e+02 3.000000e+02 L 1.600000e+02 3.000000e+02 L 1.620000e+02 3.000000e+02 L 1.640000e+02 3.000000e+02 L 1.660000e+02 3.000000e+02 L 1.680000e+02 3.000000e+02 L 1.700000e+02 3.000000e+02 L 1.710000e+02 3.000000e+02 L 1.730000e+02 3.000000e+02 L 1.750000e+02 3.000000e+02 L 1.770000e+02 3.000000e+02 L 1.790000e+02 3.000000e+02 L 1.810000e+02 3.000000e+02 L 1.820000e+02 3.000000e+02 L 1.840000e+02 3.000000e+02 L 1.860000e+02 3.000000e+02 L 1.880000e+02 3.000000e+02 L 1.900000e+02 3.000000e+02 L 1.920000e+02 3.000000e+02 L 1.930000e+02 3.000000e+02 L 1.950000e+02 3.000000e+02 L 1.970000e+02 3.000000e+02 L 1.990000e+02 3.000000e+02 L 2.010000e+02 3.000000e+02 L 2.030000e+02 3.000000e+02 L 2.040000e+02 3.000000e+02 L 2.060000e+02 3.000000e+02 L 2.080000e+02 3.000000e+02 L 2.100000e+02 3.000000e+02 L 2.120000e+02 3.000000e+02 L 2.130000e+02 3.000000e+02 L 2.150000e+02 3.000000e+02 L 2.170000e+02 3.000000e+02 L 2.190000e+02 3.000000e+02 L 2.210000e+02 3.000000e+02 L 2.230000e+02 3.000000e+02 L 2.240000e+02 3.000000e+02 L 2.260000e+02 3.000000e+02 L 2.280000e+02 3.000000e+02 L 2.300000e+02 3.000000e+02 L 2.320000e+02 3.000000e+02 L 2.340000e+02 3.000000e+02 L 2.350000e+02 3.000000e+02 L 2.370000e+02 3.000000e+02 L 2.390000e+02 3.000000e+02 L 2.410000e+02 3.000000e+02 L 2.430000e+02 3.000000e+02 L 2.450000e+02 3.000000e+02 L 2.460000e+02 3.000000e+02 L 2.480000e+02 3.000000e+02 L 2.500000e+02 3.000000e+02 L 2.520000e+02 3.000000e+02 L 2.540000e+02 3.000000e+02 L 2.560000e+02 3.000000e+02 L 2.570000e+02 3.000000e+02 L 2.590000e+02 3.000000e+02 L 2.610000e+02 3.000000e+02 L 2.630000e+02 3.000000e+02 L 2.650000e+02 3.000000e+02 L 2.670000e+02 3.000000e+02 L 2.680000e+02 3.000000e+02 L 2.700000e+02 3.000000e+02 L 2.720000e+02 3.000000e+02 L 2.740000e+02 3.000000e+02 L 2.760000e+02 3.000000e+02 L 2.770000e+02 3.000000e+02 L 2.790000e+02 3.000000e+02 L 2.810000e+02 3.000000e+02 L 2.830000e+02 3.000000e+02 L 2.850000e+02 3.000000e+02 L 2.870000e+02 3.000000e+02 L 2.880000e+02 3.000000e+02 L 2.900000e+02 3.000000e+02 L 2.920000e+02 3.000000e+02 L 2.940000e+02 3.000000e+02 L 2.960000e+02 3.000000e+02 L 2.980000e+02 3.000000e+02 L 2.990000e+02 3.000000e+02 L 3.010000e+02 3.000000e+02 L 3.030000e+02 3.000000e+02 L 3.050000e+02 3.000000e+02 L 3.070000e+02 3.000000e+02 L 3.090000e+02 3.000000e+02 L 3.100000e+02 3.000000e+02 L 3.120000e+02 3.000000e+02 L 3.140000e+02 3.000000e+02 L 3.160000e+02 3.000000e+02 L 3.180000e+02 3.000000e+02 L 3.200000e+02 3.000000e+02 L 3.210000e+02 3.000000e+02 L 3.230000e+02 3.000000e+02 L 3.250000e+02 3.000000e+02 L 3.270000e+02 3.000000e+02 L 3.290000e+02 3.000000e+02 L 3.310000e+02 3.000000e+02 L 3.320000e+02 3.000000e+02 L 3.340000e+02 3.000000e+02 L 3.360000e+02 3.000000e+02 L 3.380000e+02 3.000000e+02 L 3.400000e+02 3.000000e+02 L 3.410000e+02 3.000000e+02 L 3.430000e+02 3.000000e+02 L 3.450000e+02 3.000000e+02 L 3.470000e+02 3.000000e+02 L 3.490000e+02 3.000000e+02 L 3.510000e+02 3.000000e+02 L 3.520000e+02 3.000000e+02 L 3.540000e+02 3.000000e+02 L 3.560000e+02 3.000000e+02 L 3.580000e+02 3.000000e+02 L 3.600000e+02 3.000000e+02 L 3.620000e+02 3.000000e+02 L 3.630000e+02 3.000000e+02 L 3.650000e+02 3.000000e+02 L 3.670000e+02 3.000000e+02 L 3.690000e+02 3.000000e+02 L 3.710000e+02 3.000000e+02 L 3.730000e+02 3.000000e+02 L 3.740000e+02 3.000000e+02 L 3.760000e+02 3.000000e+02 L 3.780000e+02 3.000000e+02 L 3.800000e+02 3.000000e+02 L 3.820000e+02 3.000000e+02 L 3.840000e+02 3.000000e+02 L 3.850000e+02 3.000000e+02 L 3.870000e+02 3.000000e+02 L 3.890000e+02 3.000000e+02 L 3.910000e+02 3.000000e+02 L 3.930000e+02 3.000000e+02 L 3.950000e+02 3.000000e+02 L 3.960000e+02 3.000000e+02 L 3.980000e+02 3.000000e+02 L 4.000000e+02 3.000000e+02 L 4.020000e+02 3.000000e+02 L 4.040000e+02 3.000000e+02 L 4.050000e+02 3.000000e+02 L 4.070000e+02 3.000000e+02 L 4.090000e+02 3.000000e+02 L 4.110000e+02 3.000000e+02 L 4.130000e+02 3.000000e+02 L 4.150000e+02 3.000000e+02 L 4.160000e+02 3.000000e+02 L 4.180000e+02 3.000000e+02 L 4.200000e+02 3.000000e+02 L 4.220000e+02 3.000000e+02 L 4.240000e+02 3.000000e+02 L 4.260000e+02 3.000000e+02 L 4.270000e+02 3.000000e+02 L 4.290000e+02 3.000000e+02 L 4.310000e+02 3.000000e+02 L 4.330000e+02 3.000000e+02 L 4.350000e+02 3.000000e+02 L 4.370000e+02 3.000000e+02 L 4.380000e+02 3.000000e+02 L 4.400000e+02 3.000000e+02 L 4.420000e+02 3.000000e+02 L 4.440000e+02 3.000000e+02 L 4.460000e+02 3.000000e+02 L 4.480000e+02 3.000000e+02 L 4.490000e+02 3.000000e+02 L 4.510000e+02 3.000000e+02 L 4.530000e+02 3.000000e+02 L 4.550000e+02 3.000000e+02 L 4.570000e+02 3.000000e+02 L 4.590000e+02 3.000000e+02 L 4.600000e+02 3.000000e+02 L 4.620000e+02 3.000000e+02 L 4.640000e+02 3.000000e+02 L 4.660000e+02 3.000000e+02 L 4.680000e+02 3.000000e+02 L 4.690000e+02 3.000000e+02 L 4.710000e+02 3.000000e+02 L 4.730000e+02 3.000000e+02 L 4.750000e+02 3.000000e+02 L 4.770000e+02 3.000000e+02 L 4.790000e+02 3.000000e+02 L 4.800000e+02 3.000000e+02 L 4.820000e+02 3.000000e+02 L 4.840000e+02 3.000000e+02 L 4.860000e+02 3.000000e+02 L 4.880000e+02 3.000000e+02 L 4.900000e+02 3.000000e+02 L 4.910000e+02 3.000000e+02 L 4.930000e+02 3.000000e+02 L 4.950000e+02 3.000000e+02 L 4.970000e+02 3.000000e+02 L 4.990000e+02 3.000000e+02 L 5.010000e+02 3.000000e+02 L 5.020000e+02 3.000000e+02 L 5.040000e+02 3.000000e+02 L 5.060000e+02 3.000000e+02 L 5.080000e+02 3.000000e+02 L 5.100000e+02 3.000000e+02 L 5.120000e+02 3.000000e+02 L 5.130000e+02 3.000000e+02 L 5.150000e+02 3.000000e+02 L 5.170000e+02 3.000000e+02 L 5.190000e+02 3.000000e+02 L 5.210000e+02 3.000000e+02 L 5.230000e+02 3.000000e+02 L 5.240000e+02 3.000000e+02 L 5.260000e+02 3.000000e+02 L 5.280000e+02 3.000000e+02 L 5.300000e+02 3.000000e+02 L 5.320000e+02 3.000000e+02 L 5.330000e+02 3.000000e+02 L 5.350000e+02 3.000000e+02 L 5.370000e+02 3.000000e+02 L 5.390000e+02 3.000000e+02 L 5.410000e+02 3.000000e+02 L 5.430000e+02 3.000000e+02 L 5.440000e+02 3.000000e+02 L 5.460000e+02 3.000000e+02 L 5.480000e+02 3.000000e+02 L 5.500000e+02 3.000000e+02 L 5.520000e+02 3.000000e+02 L 5.540000e+02 3.000000e+02 L 5.550000e+02 3.000000e+02 L 5.570000e+02 3.000000e+02 L 5.590000e+02 3.000000e+02 L 5.610000e+02 3.000000e+02 L 5.630000e+02 3.000000e+02 L 5.650000e+02 3.000000e+02 L 5.660000e+02 3.000000e+02 L 5.680000e+02 3.000000e+02 L 5.700000e+02 3.000000e+02 L 5.720000e+02 3.000000e+02 L 5.740000e+02 3.000000e+02 L 5.760000e+02 3.000000e+02 L 5.770000e+02 3.000000e+02 L 5.790000e+02 3.000000e+02 L 5.810000e+02 3.000000e+02 L 5.830000e+02 3.000000e+02 L 5.850000e+02 3.000000e+02 L 5.870000e+02 3.000000e+02 L 5.880000e+02 3.000000e+02 L 5.900000e+02 3.000000e+02 L 5.920000e+02 3.000000e+02 L 5.940000e+02 3.000000e+02 L 5.960000e+02 3.000000e+02 L 5.970000e+02 3.000000e+02 L 5.990000e+02 3.000000e+02 L 6.010000e+02 3.000000e+02 L 6.030000e+02 3.000000e+02 L 6.050000e+02 3.000000e+02 L 6.070000e+02 3.000000e+02 L 6.080000e+02 3.000000e+02 L 6.100000e+02 3.000000e+02 L 6.120000e+02 3.000000e+02 L 6.140000e+02 3.000000e+02 L 6.160000e+02 3.000000e+02 L 6.180000e+02 3.000000e+02 L 6.190000e+02 3.000000e+02 L 6.210000e+02 3.000000e+02 L 6.230000e+02 3.000000e+02 L 6.250000e+02 3.000000e+02 L 6.270000e+02 3.000000e+02 L 6.290000e+02 3.000000e+02" style="stroke:#882255; fill:none; stroke-width:2;" stroke-dasharray="0" />
</svg>
