<svg viewBox="0 0 800 600" xmlns="http://www.w3.org/2000/svg" xmlns:xlink="http://www.w3.org/1999/xlink" xmlns:bx="https://www.boxy-svg.com/bx">
<rect x="80" y="60" width="640" height="480" style="fill:none;stroke:rgb(105,105,105);"></rect>
<text x="400" y="590" text-anchor="middle" font-family="Arial, Helvetica, sans-serif" style="font-size:24;">Iteration</text>
<text x="0" y="0" text-anchor="middle" font-family="Arial, Helvetica, sans-serif" alignment-baseline="middle" transform="translate(20,300) rotate(270)" style="font-size:24;">log10(Initial residual)</text>
<line x1="151" y1="540" x2="151" y2="60" style="stroke:rgb(200,200,200);stroke-width:1;stroke-dasharray:4;"></line>
<line x1="222" y1="540" x2="222" y2="60" style="stroke:rgb(200,200,200);stroke-width:1;stroke-dasharray:4;"></line>
<line x1="293" y1="540" x2="293" y2="60" style="stroke:rgb(200,200,200);stroke-width:1;stroke-dasharray:4;"></line>
<line x1="364" y1="540" x2="364" y2="60" style="stroke:rgb(200,200,200);stroke-width:1;stroke-dasharray:4;"></line>
<line x1="436" y1="540" x2="436" y2="60" style="stroke:rgb(200,200,200);stroke-width:1;stroke-dasharray:4;"></line>
<line x1="507" y1="540" x2="507" y2="60" style="stroke:rgb(200,200,200);stroke-width:1;stroke-dasharray:4;"></line>
<line x1="578" y1="540" x2="578" y2="60" style="stroke:rgb(200,200,200);stroke-width:1;stroke-dasharray:4;"></line>
<line x1="649" y1="540" x2="649" y2="60" style="stroke:rgb(200,200,200);stroke-width:1;stroke-dasharray:4;"></line>
<line x1="80" y1="444" x2="720" y2="444" style="stroke:rgb(200,200,200);stroke-width:1;stroke-dasharray:4;"></line>
<line x1="80" y1="348" x2="720" y2="348" style="stroke:rgb(200,200,200);stroke-width:1;stroke-dasharray:4;"></line>
<line x1="80" y1="252" x2="720" y2="252" style="stroke:rgb(200,200,200);stroke-width:1;stroke-dasharray:4;"></line>
<line x1="80" y1="156" x2="720" y2="156" style="stroke:rgb(200,200,200);stroke-width:1;stroke-dasharray:4;"></line>
<line x1="80" y1="540" x2="80" y2="544" style="stroke:rgb(105,105,105);stroke-width:2;"></line>
<text x="80" y="569" text-anchor="middle" font-family="Arial, Helvetica, sans-serif" style="font-size:20;">0</text>
<line x1="151" y1="540" x2="151" y2="544" style="stroke:rgb(105,105,105);stroke-width:2;"></line>
<text x="151" y="569" text-anchor="middle" font-family="Arial, Helvetica, sans-serif" style="font-size:20;">50</text>
<line x1="222" y1="540" x2="222" y2="544" style="stroke:rgb(105,105,105);stroke-width:2;"></line>
<text x="222" y="569" text-anchor="middle" font-family="Arial, Helvetica, sans-serif" style="font-size:20;">100</text>
<line x1="293" y1="540" x2="293" y2="544" style="stroke:rgb(105,105,105);stroke-width:2;"></line>
<text x="293" y="569" text-anchor="middle" font-family="Arial, Helvetica, sans-serif" style="font-size:20;">150</text>
<line x1="364" y1="540" x2="364" y2="544" style="stroke:rgb(105,105,105);stroke-width:2;"></line>
<text x="364" y="569" text-anchor="middle" font-family="Arial, Helvetica, sans-serif" style="font-size:20;">200</text>
<line x1="436" y1="540" x2="436" y2="544" style="stroke:rgb(105,105,105);stroke-width:2;"></line>
<text x="436" y="569" text-anchor="middle" font-family="Arial, Helvetica, sans-serif" style="font-size:20;">250</text>
<line x1="507" y1="540" x2="507" y2="544" style="stroke:rgb(105,105,105);stroke-width:2;"></line>
<text x="507" y="569" text-anchor="middle" font-family="Arial, Helvetica, sans-serif" style="font-size:20;">300</text>
<line x1="578" y1="540" x2="578" y2="544" style="stroke:rgb(105,105,105);stroke-width:2;"></line>
<text x="578" y="569" text-anchor="middle" font-family="Arial, Helvetica, sans-serif" style="font-size:20;">350</text>
<line x1="649" y1="540" x2="649" y2="544" style="stroke:rgb(105,105,105);stroke-width:2;"></line>
<text x="649" y="569" text-anchor="middle" font-family="Arial, Helvetica, sans-serif" style="font-size:20;">400</text>
<line x1="720" y1="540" x2="720" y2="544" style="stroke:rgb(105,105,105);stroke-width:2;"></line>
<text x="720" y="569" text-anchor="middle" font-family="Arial, Helvetica, sans-serif" style="font-size:20;">450</text>
<line x1="80" y1="540" x2="76" y2="540" style="stroke:rgb(105,105,105);stroke-width:1;"></line>
<text x="66" y="548" text-anchor="end" font-family="Arial, Helvetica, sans-serif" style="font-size:20;"><tspan>10<tspan style="font-size:12px" dy="-8">-4</tspan></tspan></text>
<line x1="80" y1="444" x2="76" y2="444" style="stroke:rgb(105,105,105);stroke-width:1;"></line>
<text x="66" y="452" text-anchor="end" font-family="Arial, Helvetica, sans-serif" style="font-size:20;"><tspan>10<tspan style="font-size:12px" dy="-8">-3</tspan></tspan></text>
<line x1="80" y1="348" x2="76" y2="348" style="stroke:rgb(105,105,105);stroke-width:1;"></line>
<text x="66" y="356" text-anchor="end" font-family="Arial, Helvetica, sans-serif" style="font-size:20;"><tspan>10<tspan style="font-size:12px" dy="-8">-2</tspan></tspan></text>
<line x1="80" y1="252" x2="76" y2="252" style="stroke:rgb(105,105,105);stroke-width:1;"></line>
<text x="66" y="260" text-anchor="end" font-family="Arial, Helvetica, sans-serif" style="font-size:20;"><tspan>10<tspan style="font-size:12px" dy="-8">-1</tspan></tspan></text>
<line x1="80" y1="156" x2="76" y2="156" style="stroke:rgb(105,105,105);stroke-width:1;"></line>
<text x="66" y="164" text-anchor="end" font-family="Arial, Helvetica, sans-serif" style="font-size:20;"><tspan>10<tspan style="font-size:12px" dy="-8">0</tspan></tspan></text>
<line x1="80" y1="60" x2="76" y2="60" style="stroke:rgb(105,105,105);stroke-width:1;"></line>
<text x="66" y="68" text-anchor="end" font-family="Arial, Helvetica, sans-serif" style="font-size:20;"><tspan>10<tspan style="font-size:12px" dy="-8">1</tspan></tspan></text>
<text x="650" y="90" text-anchor="end" font-family="Arial, Helvetica, sans-serif" style="font-size:20;">Ux</text>
<line stroke-dasharray="0" x1="660" y1="80" x2="700" y2="80" style="stroke:#CC6677;stroke-width:2;"></line>
<path d=" M 8.100000e+01 1.560000e+02 L 8.300000e+01 2.350000e+02 L 8.400000e+01 2.320000e+02 L 8.600000e+01 2.610000e+02 L 8.700000e+01 2.880000e+02 L 8.900000e+01 2.940000e+02 L 9.000000e+01 2.950000e+02 L 9.100000e+01 2.990000e+02 L 9.300000e+01 3.050000e+02 L 9.400000e+01 3.110000e+02 L 9.600000e+01 3.170000e+02 L 9.700000e+01 3.220000e+02 L 9.800000e+01 3.250000e+02 L 1.000000e+02 3.280000e+02 L 1.010000e+02 3.300000e+02 L 1.030000e+02 3.310000e+02 L 1.040000e+02 3.320000e+02 L 1.060000e+02 3.340000e+02 L 1.070000e+02 3.350000e+02 L 1.080000e+02 3.370000e+02 L 1.100000e+02 3.390000e+02 L 1.110000e+02 3.400000e+02 L 1.130000e+02 3.390000e+02 L 1.140000e+02 3.380000e+02 L 1.160000e+02 3.360000e+02 L 1.170000e+02 3.350000e+02 L 1.180000e+02 3.330000e+02 L 1.200000e+02 3.320000e+02 L 1.210000e+02 3.300000e+02 L 1.230000e+02 3.280000e+02 L 1.240000e+02 3.270000e+02 L 1.260000e+02 3.260000e+02 L 1.270000e+02 3.250000e+02 L 1.280000e+02 3.250000e+02 L 1.300000e+02 3.240000e+02 L 1.310000e+02 3.240000e+02 L 1.330000e+02 3.250000e+02 L 1.340000e+02 3.270000e+02 L 1.350000e+02 3.290000e+02 L 1.370000e+02 3.320000e+02 L 1.380000e+02 3.350000e+02 L 1.400000e+02 3.380000e+02 L 1.410000e+02 3.420000e+02 L 1.430000e+02 3.450000e+02 L 1.440000e+02 3.490000e+02 L 1.450000e+02 3.520000e+02 L 1.470000e+02 3.560000e+02 L 1.480000e+02 3.580000e+02 L 1.500000e+02 3.610000e+02 L 1.510000e+02 3.640000e+02 L 1.530000e+02 3.670000e+02 L 1.540000e+02 3.710000e+02 L 1.550000e+02 3.760000e+02 L 1.570000e+02 3.810000e+02 L 1.580000e+02 3.860000e+02 L 1.600000e+02 3.910000e+02 L 1.610000e+02 3.950000e+02 L 1.620000e+02 4.000000e+02 L 1.640000e+02 4.060000e+02 L 1.650000e+02 4.110000e+02 L 1.670000e+02 4.170000e+02 L 1.680000e+02 4.220000e+02 L 1.700000e+02 4.270000e+02 L 1.710000e+02 4.300000e+02 L 1.720000e+02 4.330000e+02 L 1.740000e+02 4.370000e+02 L 1.750000e+02 4.400000e+02 L 1.770000e+02 4.430000e+02 L 1.780000e+02 4.460000e+02 L 1.800000e+02 4.490000e+02 L 1.810000e+02 4.520000e+02 L 1.820000e+02 4.540000e+02 L 1.840000e+02 4.560000e+02 L 1.850000e+02 4.580000e+02 L 1.870000e+02 4.600000e+02 L 1.880000e+02 4.610000e+02 L 1.900000e+02 4.630000e+02 L 1.910000e+02 4.650000e+02 L 1.920000e+02 4.660000e+02 L 1.940000e+02 4.680000e+02 L 1.950000e+02 4.700000e+02 L 1.970000e+02 4.710000e+02 L 1.980000e+02 4.730000e+02 L 1.990000e+02 4.750000e+02 L 2.010000e+02 4.760000e+02 L 2.020000e+02 4.770000e+02 L 2.040000e+02 4.780000e+02 L 2.050000e+02 4.790000e+02 L 2.070000e+02 4.790000e+02 L 2.080000e+02 4.790000e+02 L 2.090000e+02 4.800000e+02 L 2.110000e+02 4.810000e+02 L 2.120000e+02 4.820000e+02 L 2.140000e+02 4.830000e+02 L 2.150000e+02 4.840000e+02 L 2.170000e+02 4.850000e+02 L 2.180000e+02 4.860000e+02 L 2.190000e+02 4.860000e+02 L 2.210000e+02 4.860000e+02 L 2.220000e+02 4.850000e+02 L 2.240000e+02 4.850000e+02 L 2.250000e+02 4.850000e+02 L 2.260000e+02 4.850000e+02 L 2.280000e+02 4.850000e+02 L 2.290000e+02 4.840000e+02 L 2.310000e+02 4.840000e+02 L 2.320000e+02 4.830000e+02 L 2.340000e+02 4.820000e+02 L 2.350000e+02 4.820000e+02 L 2.360000e+02 4.820000e+02 L 2.380000e+02 4.820000e+02 L 2.390000e+02 4.810000e+02 L 2.410000e+02 4.800000e+02 L 2.420000e+02 4.790000e+02 L 2.440000e+02 4.790000e+02 L 2.450000e+02 4.780000e+02 L 2.460000e+02 4.790000e+02 L 2.480000e+02 4.800000e+02 L 2.490000e+02 4.810000e+02 L 2.510000e+02 4.820000e+02 L 2.520000e+02 4.830000e+02 L 2.540000e+02 4.830000e+02 L 2.550000e+02 4.830000e+02 L 2.560000e+02 4.830000e+02 L 2.580000e+02 4.830000e+02 L 2.590000e+02 4.840000e+02 L 2.610000e+02 4.840000e+02 L 2.620000e+02 4.850000e+02 L 2.630000e+02 4.860000e+02 L 2.650000e+02 4.870000e+02 L 2.660000e+02 4.870000e+02 L 2.680000e+02 4.870000e+02 L 2.690000e+02 4.870000e+02 L 2.710000e+02 4.880000e+02 L 2.720000e+02 4.890000e+02 L 2.730000e+02 4.890000e+02 L 2.750000e+02 4.900000e+02 L 2.760000e+02 4.900000e+02 L 2.780000e+02 4.900000e+02 L 2.790000e+02 4.910000e+02 L 2.810000e+02 4.910000e+02 L 2.820000e+02 4.900000e+02 L 2.830000e+02 4.900000e+02 L 2.850000e+02 4.900000e+02 L 2.860000e+02 4.910000e+02 L 2.880000e+02 4.910000e+02 L 2.890000e+02 4.910000e+02 L 2.900000e+02 4.920000e+02 L 2.920000e+02 4.930000e+02 L 2.930000e+02 4.940000e+02 L 2.950000e+02 4.940000e+02 L 2.960000e+02 4.950000e+02 L 2.980000e+02 4.950000e+02 L 2.990000e+02 4.960000e+02 L 3.000000e+02 4.970000e+02 L 3.020000e+02 4.980000e+02 L 3.030000e+02 4.990000e+02 L 3.050000e+02 5.000000e+02 L 3.060000e+02 5.010000e+02 L 3.080000e+02 5.010000e+02 L 3.090000e+02 5.010000e+02 L 3.100000e+02 5.020000e+02 L 3.120000e+02 5.020000e+02 L 3.130000e+02 5.030000e+02 L 3.150000e+02 5.030000e+02 L 3.160000e+02 5.030000e+02 L 3.180000e+02 5.020000e+02 L 3.190000e+02 5.020000e+02 L 3.200000e+02 5.010000e+02 L 3.220000e+02 5.010000e+02 L 3.230000e+02 5.010000e+02 L 3.250000e+02 5.000000e+02 L 3.260000e+02 5.000000e+02 L 3.270000e+02 5.000000e+02 L 3.290000e+02 4.990000e+02 L 3.300000e+02 4.980000e+02 L 3.320000e+02 4.960000e+02 L 3.330000e+02 4.950000e+02 L 3.350000e+02 4.940000e+02 L 3.360000e+02 4.940000e+02 L 3.370000e+02 4.940000e+02 L 3.390000e+02 4.940000e+02 L 3.400000e+02 4.950000e+02 L 3.420000e+02 4.950000e+02 L 3.430000e+02 4.950000e+02 L 3.450000e+02 4.950000e+02 L 3.460000e+02 4.950000e+02 L 3.470000e+02 4.940000e+02 L 3.490000e+02 4.940000e+02 L 3.500000e+02 4.930000e+02 L 3.520000e+02 4.930000e+02 L 3.530000e+02 4.930000e+02 L 3.540000e+02 4.930000e+02 L 3.560000e+02 4.920000e+02 L 3.570000e+02 4.920000e+02 L 3.590000e+02 4.910000e+02 L 3.600000e+02 4.910000e+02 L 3.620000e+02 4.920000e+02 L 3.630000e+02 4.920000e+02 L 3.640000e+02 4.930000e+02 L 3.660000e+02 4.930000e+02 L 3.670000e+02 4.930000e+02 L 3.690000e+02 4.930000e+02 L 3.700000e+02 4.920000e+02 L 3.720000e+02 4.920000e+02 L 3.730000e+02 4.930000e+02 L 3.740000e+02 4.930000e+02 L 3.760000e+02 4.940000e+02 L 3.770000e+02 4.950000e+02 L 3.790000e+02 4.950000e+02 L 3.800000e+02 4.950000e+02 L 3.820000e+02 4.950000e+02 L 3.830000e+02 4.940000e+02 L 3.840000e+02 4.930000e+02 L 3.860000e+02 4.920000e+02 L 3.870000e+02 4.910000e+02 L 3.890000e+02 4.900000e+02 L 3.900000e+02 4.890000e+02 L 3.910000e+02 4.890000e+02 L 3.930000e+02 4.880000e+02 L 3.940000e+02 4.880000e+02 L 3.960000e+02 4.880000e+02 L 3.970000e+02 4.880000e+02 L 3.990000e+02 4.880000e+02 L 4.000000e+02 4.880000e+02 L 4.010000e+02 4.880000e+02 L 4.030000e+02 4.880000e+02 L 4.040000e+02 4.880000e+02 L 4.060000e+02 4.880000e+02 L 4.070000e+02 4.880000e+02 L 4.090000e+02 4.890000e+02 L 4.100000e+02 4.890000e+02 L 4.110000e+02 4.890000e+02 L 4.130000e+02 4.890000e+02 L 4.140000e+02 4.900000e+02 L 4.160000e+02 4.900000e+02 L 4.170000e+02 4.900000e+02 L 4.180000e+02 4.900000e+02 L 4.200000e+02 4.900000e+02 L 4.210000e+02 4.900000e+02 L 4.230000e+02 4.890000e+02 L 4.240000e+02 4.890000e+02 L 4.260000e+02 4.900000e+02 L 4.270000e+02 4.900000e+02 L 4.280000e+02 4.890000e+02 L 4.300000e+02 4.890000e+02 L 4.310000e+02 4.890000e+02 L 4.330000e+02 4.890000e+02 L 4.340000e+02 4.890000e+02 L 4.360000e+02 4.890000e+02 L 4.370000e+02 4.880000e+02 L 4.380000e+02 4.880000e+02 L 4.400000e+02 4.890000e+02 L 4.410000e+02 4.890000e+02 L 4.430000e+02 4.890000e+02 L 4.440000e+02 4.890000e+02 L 4.460000e+02 4.900000e+02 L 4.470000e+02 4.900000e+02 L 4.480000e+02 4.910000e+02 L 4.500000e+02 4.910000e+02 L 4.510000e+02 4.920000e+02 L 4.530000e+02 4.920000e+02 L 4.540000e+02 4.930000e+02 L 4.550000e+02 4.940000e+02 L 4.570000e+02 4.940000e+02 L 4.580000e+02 4.950000e+02 L 4.600000e+02 4.950000e+02 L 4.610000e+02 4.950000e+02 L 4.630000e+02 4.950000e+02 L 4.640000e+02 4.960000e+02 L 4.650000e+02 4.970000e+02 L 4.670000e+02 4.980000e+02 L 4.680000e+02 4.980000e+02 L 4.700000e+02 4.980000e+02 L 4.710000e+02 4.980000e+02 L 4.730000e+02 4.970000e+02 L 4.740000e+02 4.960000e+02 L 4.750000e+02 4.960000e+02 L 4.770000e+02 4.960000e+02 L 4.780000e+02 4.960000e+02 L 4.800000e+02 4.960000e+02 L 4.810000e+02 4.970000e+02 L 4.820000e+02 4.970000e+02 L 4.840000e+02 4.960000e+02 L 4.850000e+02 4.950000e+02 L 4.870000e+02 4.940000e+02 L 4.880000e+02 4.920000e+02 L 4.900000e+02 4.910000e+02 L 4.910000e+02 4.900000e+02 L 4.920000e+02 4.890000e+02 L 4.940000e+02 4.890000e+02 L 4.950000e+02 4.890000e+02 L 4.970000e+02 4.890000e+02 L 4.980000e+02 4.890000e+02 L 5.000000e+02 4.900000e+02 L 5.010000e+02 4.910000e+02 L 5.020000e+02 4.920000e+02 L 5.040000e+02 4.930000e+02 L 5.050000e+02 4.930000e+02 L 5.070000e+02 4.940000e+02 L 5.080000e+02 4.940000e+02 L 5.100000e+02 4.940000e+02 L 5.110000e+02 4.940000e+02 L 5.120000e+02 4.930000e+02 L 5.140000e+02 4.930000e+02 L 5.150000e+02 4.930000e+02 L 5.170000e+02 4.930000e+02 L 5.180000e+02 4.930000e+02 L 5.190000e+02 4.920000e+02 L 5.210000e+02 4.920000e+02 L 5.220000e+02 4.920000e+02 L 5.240000e+02 4.910000e+02 L 5.250000e+02 4.900000e+02 L 5.270000e+02 4.900000e+02 L 5.280000e+02 4.890000e+02 L 5.290000e+02 4.890000e+02 L 5.310000e+02 4.900000e+02 L 5.320000e+02 4.900000e+02 L 5.340000e+02 4.910000e+02 L 5.350000e+02 4.920000e+02 L 5.370000e+02 4.920000e+02 L 5.380000e+02 4.930000e+02 L 5.390000e+02 4.940000e+02 L 5.410000e+02 4.940000e+02 L 5.420000e+02 4.940000e+02 L 5.440000e+02 4.930000e+02 L 5.450000e+02 4.930000e+02 L 5.460000e+02 4.930000e+02 L 5.480000e+02 4.930000e+02 L 5.490000e+02 4.930000e+02 L 5.510000e+02 4.940000e+02 L 5.520000e+02 4.940000e+02 L 5.540000e+02 4.950000e+02 L 5.550000e+02 4.950000e+02 L 5.560000e+02 4.960000e+02 L 5.580000e+02 4.970000e+02 L 5.590000e+02 4.980000e+02 L 5.610000e+02 4.980000e+02 L 5.620000e+02 4.980000e+02 L 5.640000e+02 4.980000e+02 L 5.650000e+02 4.980000e+02 L 5.660000e+02 4.980000e+02 L 5.680000e+02 4.970000e+02 L 5.690000e+02 4.960000e+02 L 5.710000e+02 4.950000e+02 L 5.720000e+02 4.950000e+02 L 5.740000e+02 4.940000e+02 L 5.750000e+02 4.930000e+02 L 5.760000e+02 4.920000e+02 L 5.780000e+02 4.920000e+02 L 5.790000e+02 4.910000e+02 L 5.810000e+02 4.910000e+02 L 5.820000e+02 4.900000e+02 L 5.830000e+02 4.890000e+02 L 5.850000e+02 4.890000e+02 L 5.860000e+02 4.880000e+02 L 5.880000e+02 4.860000e+02 L 5.890000e+02 4.850000e+02 L 5.910000e+02 4.840000e+02 L 5.920000e+02 4.840000e+02 L 5.930000e+02 4.830000e+02 L 5.950000e+02 4.830000e+02 L 5.960000e+02 4.830000e+02 L 5.980000e+02 4.840000e+02 L 5.990000e+02 4.850000e+02 L 6.010000e+02 4.860000e+02 L 6.020000e+02 4.870000e+02 L 6.030000e+02 4.880000e+02 L 6.050000e+02 4.880000e+02 L 6.060000e+02 4.890000e+02 L 6.080000e+02 4.890000e+02 L 6.090000e+02 4.890000e+02 L 6.100000e+02 4.890000e+02 L 6.120000e+02 4.890000e+02 L 6.130000e+02 4.890000e+02 L 6.150000e+02 4.890000e+02 L 6.160000e+02 4.900000e+02 L 6.180000e+02 4.900000e+02 L 6.190000e+02 4.900000e+02 L 6.200000e+02 4.910000e+02 L 6.220000e+02 4.920000e+02 L 6.230000e+02 4.930000e+02 L 6.250000e+02 4.950000e+02 L 6.260000e+02 4.960000e+02 L 6.280000e+02 4.970000e+02 L 6.290000e+02 4.980000e+02 L 6.300000e+02 4.990000e+02 L 6.320000e+02 4.990000e+02 L 6.330000e+02 4.990000e+02 L 6.350000e+02 4.990000e+02 L 6.360000e+02 5.000000e+02 L 6.380000e+02 5.000000e+02 L 6.390000e+02 5.010000e+02 L 6.400000e+02 5.020000e+02 L 6.420000e+02 5.030000e+02 L 6.430000e+02 5.040000e+02 L 6.450000e+02 5.040000e+02 L 6.460000e+02 5.050000e+02 L 6.470000e+02 5.060000e+02 L 6.490000e+02 5.060000e+02" style="stroke:#CC6677; fill:none; stroke-width:2;" stroke-dasharray="0" />
<text x="650" y="120" text-anchor="end" font-family="Arial, Helvetica, sans-serif" style="font-size:20;">Uy</text>
<line stroke-dasharray="0" x1="660" y1="110" x2="700" y2="110" style="stroke:#332288;stroke-width:2;"></line>
<path d=" M 8.100000e+01 1.560000e+02 L 8.300000e+01 1.660000e+02 L 8.400000e+01 1.780000e+02 L 8.600000e+01 1.930000e+02 L 8.700000e+01 2.080000e+02 L 8.900000e+01 2.140000e+02 L 9.000000e+01 2.180000e+02 L 9.100000e+01 2.190000e+02 L 9.300000e+01 2.190000e+02 L 9.400000e+01 2.170000e+02 L 9.600000e+01 2.170000e+02 L 9.700000e+01 2.180000e+02 L 9.800000e+01 2.220000e+02 L 1.000000e+02 2.250000e+02 L 1.010000e+02 2.270000e+02 L 1.030000e+02 2.260000e+02 L 1.040000e+02 2.260000e+02 L 1.060000e+02 2.260000e+02 L 1.070000e+02 2.260000e+02 L 1.080000e+02 2.270000e+02 L 1.100000e+02 2.290000e+02 L 1.110000e+02 2.320000e+02 L 1.130000e+02 2.340000e+02 L 1.140000e+02 2.350000e+02 L 1.160000e+02 2.350000e+02 L 1.170000e+02 2.320000e+02 L 1.180000e+02 2.260000e+02 L 1.200000e+02 2.240000e+02 L 1.210000e+02 2.280000e+02 L 1.230000e+02 2.310000e+02 L 1.240000e+02 2.330000e+02 L 1.260000e+02 2.310000e+02 L 1.270000e+02 2.280000e+02 L 1.280000e+02 2.240000e+02 L 1.300000e+02 2.190000e+02 L 1.310000e+02 2.170000e+02 L 1.330000e+02 2.160000e+02 L 1.340000e+02 2.150000e+02 L 1.350000e+02 2.150000e+02 L 1.370000e+02 2.160000e+02 L 1.380000e+02 2.220000e+02 L 1.400000e+02 2.280000e+02 L 1.410000e+02 2.350000e+02 L 1.430000e+02 2.440000e+02 L 1.440000e+02 2.510000e+02 L 1.450000e+02 2.590000e+02 L 1.470000e+02 2.650000e+02 L 1.480000e+02 2.710000e+02 L 1.500000e+02 2.740000e+02 L 1.510000e+02 2.750000e+02 L 1.530000e+02 2.780000e+02 L 1.540000e+02 2.800000e+02 L 1.550000e+02 2.840000e+02 L 1.570000e+02 2.880000e+02 L 1.580000e+02 2.920000e+02 L 1.600000e+02 2.960000e+02 L 1.610000e+02 2.980000e+02 L 1.620000e+02 2.990000e+02 L 1.640000e+02 3.000000e+02 L 1.650000e+02 3.030000e+02 L 1.670000e+02 3.060000e+02 L 1.680000e+02 3.090000e+02 L 1.700000e+02 3.110000e+02 L 1.710000e+02 3.140000e+02 L 1.720000e+02 3.170000e+02 L 1.740000e+02 3.190000e+02 L 1.750000e+02 3.220000e+02 L 1.770000e+02 3.260000e+02 L 1.780000e+02 3.290000e+02 L 1.800000e+02 3.330000e+02 L 1.810000e+02 3.370000e+02 L 1.820000e+02 3.400000e+02 L 1.840000e+02 3.430000e+02 L 1.850000e+02 3.450000e+02 L 1.870000e+02 3.480000e+02 L 1.880000e+02 3.500000e+02 L 1.900000e+02 3.520000e+02 L 1.910000e+02 3.540000e+02 L 1.920000e+02 3.560000e+02 L 1.940000e+02 3.580000e+02 L 1.950000e+02 3.600000e+02 L 1.970000e+02 3.620000e+02 L 1.980000e+02 3.640000e+02 L 1.990000e+02 3.660000e+02 L 2.010000e+02 3.680000e+02 L 2.020000e+02 3.700000e+02 L 2.040000e+02 3.710000e+02 L 2.050000e+02 3.720000e+02 L 2.070000e+02 3.720000e+02 L 2.080000e+02 3.730000e+02 L 2.090000e+02 3.730000e+02 L 2.110000e+02 3.740000e+02 L 2.120000e+02 3.750000e+02 L 2.140000e+02 3.760000e+02 L 2.150000e+02 3.770000e+02 L 2.170000e+02 3.780000e+02 L 2.180000e+02 3.790000e+02 L 2.190000e+02 3.800000e+02 L 2.210000e+02 3.810000e+02 L 2.220000e+02 3.820000e+02 L 2.240000e+02 3.830000e+02 L 2.250000e+02 3.840000e+02 L 2.260000e+02 3.850000e+02 L 2.280000e+02 3.860000e+02 L 2.290000e+02 3.880000e+02 L 2.310000e+02 3.880000e+02 L 2.320000e+02 3.880000e+02 L 2.340000e+02 3.880000e+02 L 2.350000e+02 3.880000e+02 L 2.360000e+02 3.880000e+02 L 2.380000e+02 3.880000e+02 L 2.390000e+02 3.880000e+02 L 2.410000e+02 3.870000e+02 L 2.420000e+02 3.860000e+02 L 2.440000e+02 3.850000e+02 L 2.450000e+02 3.840000e+02 L 2.460000e+02 3.830000e+02 L 2.480000e+02 3.830000e+02 L 2.490000e+02 3.830000e+02 L 2.510000e+02 3.840000e+02 L 2.520000e+02 3.850000e+02 L 2.540000e+02 3.850000e+02 L 2.550000e+02 3.860000e+02 L 2.560000e+02 3.870000e+02 L 2.580000e+02 3.880000e+02 L 2.590000e+02 3.900000e+02 L 2.610000e+02 3.910000e+02 L 2.620000e+02 3.930000e+02 L 2.630000e+02 3.940000e+02 L 2.650000e+02 3.950000e+02 L 2.660000e+02 3.960000e+02 L 2.680000e+02 3.960000e+02 L 2.690000e+02 3.970000e+02 L 2.710000e+02 3.980000e+02 L 2.720000e+02 3.990000e+02 L 2.730000e+02 4.010000e+02 L 2.750000e+02 4.020000e+02 L 2.760000e+02 4.020000e+02 L 2.780000e+02 4.030000e+02 L 2.790000e+02 4.030000e+02 L 2.810000e+02 4.030000e+02 L 2.820000e+02 4.020000e+02 L 2.830000e+02 4.010000e+02 L 2.850000e+02 4.000000e+02 L 2.860000e+02 3.980000e+02 L 2.880000e+02 3.970000e+02 L 2.890000e+02 3.970000e+02 L 2.900000e+02 3.960000e+02 L 2.920000e+02 3.960000e+02 L 2.930000e+02 3.960000e+02 L 2.950000e+02 3.970000e+02 L 2.960000e+02 3.980000e+02 L 2.980000e+02 3.980000e+02 L 2.990000e+02 3.980000e+02 L 3.000000e+02 3.990000e+02 L 3.020000e+02 3.990000e+02 L 3.030000e+02 3.990000e+02 L 3.050000e+02 3.990000e+02 L 3.060000e+02 4.000000e+02 L 3.080000e+02 4.000000e+02 L 3.090000e+02 4.000000e+02 L 3.100000e+02 4.010000e+02 L 3.120000e+02 4.020000e+02 L 3.130000e+02 4.030000e+02 L 3.150000e+02 4.050000e+02 L 3.160000e+02 4.060000e+02 L 3.180000e+02 4.060000e+02 L 3.190000e+02 4.070000e+02 L 3.200000e+02 4.080000e+02 L 3.220000e+02 4.080000e+02 L 3.230000e+02 4.080000e+02 L 3.250000e+02 4.090000e+02 L 3.260000e+02 4.090000e+02 L 3.270000e+02 4.100000e+02 L 3.290000e+02 4.090000e+02 L 3.300000e+02 4.090000e+02 L 3.320000e+02 4.070000e+02 L 3.330000e+02 4.060000e+02 L 3.350000e+02 4.050000e+02 L 3.360000e+02 4.040000e+02 L 3.370000e+02 4.030000e+02 L 3.390000e+02 4.030000e+02 L 3.400000e+02 4.020000e+02 L 3.420000e+02 4.020000e+02 L 3.430000e+02 4.010000e+02 L 3.450000e+02 4.000000e+02 L 3.460000e+02 4.000000e+02 L 3.470000e+02 4.000000e+02 L 3.490000e+02 4.000000e+02 L 3.500000e+02 4.010000e+02 L 3.520000e+02 4.010000e+02 L 3.530000e+02 4.020000e+02 L 3.540000e+02 4.020000e+02 L 3.560000e+02 4.020000e+02 L 3.570000e+02 4.020000e+02 L 3.590000e+02 4.030000e+02 L 3.600000e+02 4.040000e+02 L 3.620000e+02 4.060000e+02 L 3.630000e+02 4.070000e+02 L 3.640000e+02 4.080000e+02 L 3.660000e+02 4.080000e+02 L 3.670000e+02 4.080000e+02 L 3.690000e+02 4.070000e+02 L 3.700000e+02 4.060000e+02 L 3.720000e+02 4.050000e+02 L 3.730000e+02 4.050000e+02 L 3.740000e+02 4.040000e+02 L 3.760000e+02 4.040000e+02 L 3.770000e+02 4.030000e+02 L 3.790000e+02 4.020000e+02 L 3.800000e+02 4.020000e+02 L 3.820000e+02 4.010000e+02 L 3.830000e+02 4.000000e+02 L 3.840000e+02 4.000000e+02 L 3.860000e+02 4.000000e+02 L 3.870000e+02 4.000000e+02 L 3.890000e+02 3.990000e+02 L 3.900000e+02 3.980000e+02 L 3.910000e+02 3.970000e+02 L 3.930000e+02 3.960000e+02 L 3.940000e+02 3.950000e+02 L 3.960000e+02 3.950000e+02 L 3.970000e+02 3.940000e+02 L 3.990000e+02 3.940000e+02 L 4.000000e+02 3.930000e+02 L 4.010000e+02 3.920000e+02 L 4.030000e+02 3.920000e+02 L 4.040000e+02 3.910000e+02 L 4.060000e+02 3.910000e+02 L 4.070000e+02 3.910000e+02 L 4.090000e+02 3.910000e+02 L 4.100000e+02 3.920000e+02 L 4.110000e+02 3.930000e+02 L 4.130000e+02 3.940000e+02 L 4.140000e+02 3.950000e+02 L 4.160000e+02 3.960000e+02 L 4.170000e+02 3.970000e+02 L 4.180000e+02 3.970000e+02 L 4.200000e+02 3.970000e+02 L 4.210000e+02 3.980000e+02 L 4.230000e+02 3.980000e+02 L 4.240000e+02 3.990000e+02 L 4.260000e+02 3.990000e+02 L 4.270000e+02 3.990000e+02 L 4.280000e+02 3.990000e+02 L 4.300000e+02 3.980000e+02 L 4.310000e+02 3.980000e+02 L 4.330000e+02 3.970000e+02 L 4.340000e+02 3.960000e+02 L 4.360000e+02 3.950000e+02 L 4.370000e+02 3.940000e+02 L 4.380000e+02 3.940000e+02 L 4.400000e+02 3.950000e+02 L 4.410000e+02 3.950000e+02 L 4.430000e+02 3.960000e+02 L 4.440000e+02 3.970000e+02 L 4.460000e+02 3.970000e+02 L 4.470000e+02 3.980000e+02 L 4.480000e+02 3.990000e+02 L 4.500000e+02 4.010000e+02 L 4.510000e+02 4.020000e+02 L 4.530000e+02 4.040000e+02 L 4.540000e+02 4.050000e+02 L 4.550000e+02 4.070000e+02 L 4.570000e+02 4.070000e+02 L 4.580000e+02 4.080000e+02 L 4.600000e+02 4.080000e+02 L 4.610000e+02 4.080000e+02 L 4.630000e+02 4.090000e+02 L 4.640000e+02 4.100000e+02 L 4.650000e+02 4.110000e+02 L 4.670000e+02 4.120000e+02 L 4.680000e+02 4.130000e+02 L 4.700000e+02 4.120000e+02 L 4.710000e+02 4.120000e+02 L 4.730000e+02 4.110000e+02 L 4.740000e+02 4.100000e+02 L 4.750000e+02 4.080000e+02 L 4.770000e+02 4.070000e+02 L 4.780000e+02 4.070000e+02 L 4.800000e+02 4.060000e+02 L 4.810000e+02 4.060000e+02 L 4.820000e+02 4.060000e+02 L 4.840000e+02 4.050000e+02 L 4.850000e+02 4.040000e+02 L 4.870000e+02 4.030000e+02 L 4.880000e+02 4.010000e+02 L 4.900000e+02 4.000000e+02 L 4.910000e+02 3.990000e+02 L 4.920000e+02 3.990000e+02 L 4.940000e+02 3.990000e+02 L 4.950000e+02 3.980000e+02 L 4.970000e+02 3.980000e+02 L 4.980000e+02 3.980000e+02 L 5.000000e+02 3.980000e+02 L 5.010000e+02 3.980000e+02 L 5.020000e+02 3.980000e+02 L 5.040000e+02 3.990000e+02 L 5.050000e+02 3.990000e+02 L 5.070000e+02 4.000000e+02 L 5.080000e+02 4.010000e+02 L 5.100000e+02 4.020000e+02 L 5.110000e+02 4.030000e+02 L 5.120000e+02 4.040000e+02 L 5.140000e+02 4.050000e+02 L 5.150000e+02 4.060000e+02 L 5.170000e+02 4.070000e+02 L 5.180000e+02 4.070000e+02 L 5.190000e+02 4.070000e+02 L 5.210000e+02 4.070000e+02 L 5.220000e+02 4.070000e+02 L 5.240000e+02 4.070000e+02 L 5.250000e+02 4.060000e+02 L 5.270000e+02 4.060000e+02 L 5.280000e+02 4.060000e+02 L 5.290000e+02 4.060000e+02 L 5.310000e+02 4.070000e+02 L 5.320000e+02 4.070000e+02 L 5.340000e+02 4.080000e+02 L 5.350000e+02 4.080000e+02 L 5.370000e+02 4.080000e+02 L 5.380000e+02 4.090000e+02 L 5.390000e+02 4.090000e+02 L 5.410000e+02 4.080000e+02 L 5.420000e+02 4.070000e+02 L 5.440000e+02 4.070000e+02 L 5.450000e+02 4.060000e+02 L 5.460000e+02 4.050000e+02 L 5.480000e+02 4.040000e+02 L 5.490000e+02 4.040000e+02 L 5.510000e+02 4.030000e+02 L 5.520000e+02 4.030000e+02 L 5.540000e+02 4.030000e+02 L 5.550000e+02 4.020000e+02 L 5.560000e+02 4.020000e+02 L 5.580000e+02 4.020000e+02 L 5.590000e+02 4.010000e+02 L 5.610000e+02 4.010000e+02 L 5.620000e+02 4.020000e+02 L 5.640000e+02 4.020000e+02 L 5.650000e+02 4.020000e+02 L 5.660000e+02 4.020000e+02 L 5.680000e+02 4.020000e+02 L 5.690000e+02 4.020000e+02 L 5.710000e+02 4.020000e+02 L 5.720000e+02 4.030000e+02 L 5.740000e+02 4.040000e+02 L 5.750000e+02 4.040000e+02 L 5.760000e+02 4.040000e+02 L 5.780000e+02 4.050000e+02 L 5.790000e+02 4.050000e+02 L 5.810000e+02 4.050000e+02 L 5.820000e+02 4.050000e+02 L 5.830000e+02 4.040000e+02 L 5.850000e+02 4.030000e+02 L 5.860000e+02 4.020000e+02 L 5.880000e+02 4.000000e+02 L 5.890000e+02 3.990000e+02 L 5.910000e+02 3.980000e+02 L 5.920000e+02 3.980000e+02 L 5.930000e+02 3.970000e+02 L 5.950000e+02 3.970000e+02 L 5.960000e+02 3.970000e+02 L 5.980000e+02 3.980000e+02 L 5.990000e+02 3.980000e+02 L 6.010000e+02 3.990000e+02 L 6.020000e+02 4.000000e+02 L 6.030000e+02 4.010000e+02 L 6.050000e+02 4.020000e+02 L 6.060000e+02 4.020000e+02 L 6.080000e+02 4.020000e+02 L 6.090000e+02 4.020000e+02 L 6.100000e+02 4.020000e+02 L 6.120000e+02 4.020000e+02 L 6.130000e+02 4.020000e+02 L 6.150000e+02 4.030000e+02 L 6.160000e+02 4.030000e+02 L 6.180000e+02 4.030000e+02 L 6.190000e+02 4.040000e+02 L 6.200000e+02 4.040000e+02 L 6.220000e+02 4.050000e+02 L 6.230000e+02 4.070000e+02 L 6.250000e+02 4.080000e+02 L 6.260000e+02 4.090000e+02 L 6.280000e+02 4.090000e+02 L 6.290000e+02 4.100000e+02 L 6.300000e+02 4.110000e+02 L 6.320000e+02 4.120000e+02 L 6.330000e+02 4.120000e+02 L 6.350000e+02 4.130000e+02 L 6.360000e+02 4.130000e+02 L 6.380000e+02 4.130000e+02 L 6.390000e+02 4.140000e+02 L 6.400000e+02 4.140000e+02 L 6.420000e+02 4.150000e+02 L 6.430000e+02 4.150000e+02 L 6.450000e+02 4.150000e+02 L 6.460000e+02 4.160000e+02 L 6.470000e+02 4.160000e+02 L 6.490000e+02 4.170000e+02" style="stroke:#332288; fill:none; stroke-width:2;" stroke-dasharray="0" />
<text x="650" y="150" text-anchor="end" font-family="Arial, Helvetica, sans-serif" style="font-size:20;">Uz</text>
<line stroke-dasharray="0" x1="660" y1="140" x2="700" y2="140" style="stroke:#DDCC77;stroke-width:2;"></line>
<path d=" M 8.100000e+01 1.560000e+02 L 8.300000e+01 1.660000e+02 L 8.400000e+01 1.760000e+02 L 8.600000e+01 1.860000e+02 L 8.700000e+01 2.070000e+02 L 8.900000e+01 2.230000e+02 L 9.000000e+01 2.310000e+02 L 9.100000e+01 2.330000e+02 L 9.300000e+01 2.290000e+02 L 9.400000e+01 2.250000e+02 L 9.600000e+01 2.210000e+02 L 9.700000e+01 2.170000e+02 L 9.800000e+01 2.140000e+02 L 1.000000e+02 2.220000e+02 L 1.010000e+02 2.280000e+02 L 1.030000e+02 2.320000e+02 L 1.040000e+02 2.380000e+02 L 1.060000e+02 2.430000e+02 L 1.070000e+02 2.470000e+02 L 1.080000e+02 2.500000e+02 L 1.100000e+02 2.520000e+02 L 1.110000e+02 2.520000e+02 L 1.130000e+02 2.510000e+02 L 1.140000e+02 2.500000e+02 L 1.160000e+02 2.500000e+02 L 1.170000e+02 2.480000e+02 L 1.180000e+02 2.460000e+02 L 1.200000e+02 2.450000e+02 L 1.210000e+02 2.460000e+02 L 1.230000e+02 2.490000e+02 L 1.240000e+02 2.520000e+02 L 1.260000e+02 2.540000e+02 L 1.270000e+02 2.540000e+02 L 1.280000e+02 2.540000e+02 L 1.300000e+02 2.530000e+02 L 1.310000e+02 2.530000e+02 L 1.330000e+02 2.530000e+02 L 1.340000e+02 2.540000e+02 L 1.350000e+02 2.550000e+02 L 1.370000e+02 2.590000e+02 L 1.380000e+02 2.630000e+02 L 1.400000e+02 2.680000e+02 L 1.410000e+02 2.730000e+02 L 1.430000e+02 2.780000e+02 L 1.440000e+02 2.830000e+02 L 1.450000e+02 2.870000e+02 L 1.470000e+02 2.910000e+02 L 1.480000e+02 2.950000e+02 L 1.500000e+02 2.980000e+02 L 1.510000e+02 3.000000e+02 L 1.530000e+02 3.040000e+02 L 1.540000e+02 3.070000e+02 L 1.550000e+02 3.110000e+02 L 1.570000e+02 3.160000e+02 L 1.580000e+02 3.190000e+02 L 1.600000e+02 3.230000e+02 L 1.610000e+02 3.260000e+02 L 1.620000e+02 3.300000e+02 L 1.640000e+02 3.350000e+02 L 1.650000e+02 3.400000e+02 L 1.670000e+02 3.450000e+02 L 1.680000e+02 3.500000e+02 L 1.700000e+02 3.540000e+02 L 1.710000e+02 3.570000e+02 L 1.720000e+02 3.590000e+02 L 1.740000e+02 3.610000e+02 L 1.750000e+02 3.640000e+02 L 1.770000e+02 3.670000e+02 L 1.780000e+02 3.700000e+02 L 1.800000e+02 3.730000e+02 L 1.810000e+02 3.760000e+02 L 1.820000e+02 3.790000e+02 L 1.840000e+02 3.810000e+02 L 1.850000e+02 3.830000e+02 L 1.870000e+02 3.860000e+02 L 1.880000e+02 3.880000e+02 L 1.900000e+02 3.900000e+02 L 1.910000e+02 3.910000e+02 L 1.920000e+02 3.930000e+02 L 1.940000e+02 3.940000e+02 L 1.950000e+02 3.960000e+02 L 1.970000e+02 3.980000e+02 L 1.980000e+02 4.000000e+02 L 1.990000e+02 4.010000e+02 L 2.010000e+02 4.020000e+02 L 2.020000e+02 4.030000e+02 L 2.040000e+02 4.040000e+02 L 2.050000e+02 4.040000e+02 L 2.070000e+02 4.040000e+02 L 2.080000e+02 4.050000e+02 L 2.090000e+02 4.060000e+02 L 2.110000e+02 4.070000e+02 L 2.120000e+02 4.080000e+02 L 2.140000e+02 4.090000e+02 L 2.150000e+02 4.100000e+02 L 2.170000e+02 4.100000e+02 L 2.180000e+02 4.110000e+02 L 2.190000e+02 4.110000e+02 L 2.210000e+02 4.110000e+02 L 2.220000e+02 4.100000e+02 L 2.240000e+02 4.100000e+02 L 2.250000e+02 4.100000e+02 L 2.260000e+02 4.100000e+02 L 2.280000e+02 4.100000e+02 L 2.290000e+02 4.090000e+02 L 2.310000e+02 4.090000e+02 L 2.320000e+02 4.080000e+02 L 2.340000e+02 4.070000e+02 L 2.350000e+02 4.060000e+02 L 2.360000e+02 4.050000e+02 L 2.380000e+02 4.050000e+02 L 2.390000e+02 4.050000e+02 L 2.410000e+02 4.050000e+02 L 2.420000e+02 4.050000e+02 L 2.440000e+02 4.050000e+02 L 2.450000e+02 4.050000e+02 L 2.460000e+02 4.060000e+02 L 2.480000e+02 4.070000e+02 L 2.490000e+02 4.080000e+02 L 2.510000e+02 4.090000e+02 L 2.520000e+02 4.100000e+02 L 2.540000e+02 4.100000e+02 L 2.550000e+02 4.100000e+02 L 2.560000e+02 4.100000e+02 L 2.580000e+02 4.110000e+02 L 2.590000e+02 4.110000e+02 L 2.610000e+02 4.120000e+02 L 2.620000e+02 4.130000e+02 L 2.630000e+02 4.140000e+02 L 2.650000e+02 4.140000e+02 L 2.660000e+02 4.140000e+02 L 2.680000e+02 4.140000e+02 L 2.690000e+02 4.140000e+02 L 2.710000e+02 4.140000e+02 L 2.720000e+02 4.150000e+02 L 2.730000e+02 4.160000e+02 L 2.750000e+02 4.160000e+02 L 2.760000e+02 4.170000e+02 L 2.780000e+02 4.170000e+02 L 2.790000e+02 4.170000e+02 L 2.810000e+02 4.170000e+02 L 2.820000e+02 4.170000e+02 L 2.830000e+02 4.170000e+02 L 2.850000e+02 4.170000e+02 L 2.860000e+02 4.170000e+02 L 2.880000e+02 4.170000e+02 L 2.890000e+02 4.170000e+02 L 2.900000e+02 4.170000e+02 L 2.920000e+02 4.180000e+02 L 2.930000e+02 4.190000e+02 L 2.950000e+02 4.200000e+02 L 2.960000e+02 4.210000e+02 L 2.980000e+02 4.220000e+02 L 2.990000e+02 4.230000e+02 L 3.000000e+02 4.230000e+02 L 3.020000e+02 4.240000e+02 L 3.030000e+02 4.240000e+02 L 3.050000e+02 4.250000e+02 L 3.060000e+02 4.250000e+02 L 3.080000e+02 4.260000e+02 L 3.090000e+02 4.260000e+02 L 3.100000e+02 4.260000e+02 L 3.120000e+02 4.270000e+02 L 3.130000e+02 4.280000e+02 L 3.150000e+02 4.280000e+02 L 3.160000e+02 4.280000e+02 L 3.180000e+02 4.280000e+02 L 3.190000e+02 4.270000e+02 L 3.200000e+02 4.270000e+02 L 3.220000e+02 4.260000e+02 L 3.230000e+02 4.250000e+02 L 3.250000e+02 4.240000e+02 L 3.260000e+02 4.230000e+02 L 3.270000e+02 4.220000e+02 L 3.290000e+02 4.210000e+02 L 3.300000e+02 4.200000e+02 L 3.320000e+02 4.190000e+02 L 3.330000e+02 4.180000e+02 L 3.350000e+02 4.180000e+02 L 3.360000e+02 4.180000e+02 L 3.370000e+02 4.180000e+02 L 3.390000e+02 4.190000e+02 L 3.400000e+02 4.200000e+02 L 3.420000e+02 4.210000e+02 L 3.430000e+02 4.210000e+02 L 3.450000e+02 4.210000e+02 L 3.460000e+02 4.210000e+02 L 3.470000e+02 4.210000e+02 L 3.490000e+02 4.210000e+02 L 3.500000e+02 4.210000e+02 L 3.520000e+02 4.210000e+02 L 3.530000e+02 4.210000e+02 L 3.540000e+02 4.200000e+02 L 3.560000e+02 4.200000e+02 L 3.570000e+02 4.190000e+02 L 3.590000e+02 4.190000e+02 L 3.600000e+02 4.190000e+02 L 3.620000e+02 4.200000e+02 L 3.630000e+02 4.200000e+02 L 3.640000e+02 4.210000e+02 L 3.660000e+02 4.210000e+02 L 3.670000e+02 4.210000e+02 L 3.690000e+02 4.200000e+02 L 3.700000e+02 4.200000e+02 L 3.720000e+02 4.200000e+02 L 3.730000e+02 4.200000e+02 L 3.740000e+02 4.200000e+02 L 3.760000e+02 4.210000e+02 L 3.770000e+02 4.210000e+02 L 3.790000e+02 4.210000e+02 L 3.800000e+02 4.210000e+02 L 3.820000e+02 4.200000e+02 L 3.830000e+02 4.190000e+02 L 3.840000e+02 4.180000e+02 L 3.860000e+02 4.170000e+02 L 3.870000e+02 4.150000e+02 L 3.890000e+02 4.130000e+02 L 3.900000e+02 4.120000e+02 L 3.910000e+02 4.120000e+02 L 3.930000e+02 4.110000e+02 L 3.940000e+02 4.110000e+02 L 3.960000e+02 4.110000e+02 L 3.970000e+02 4.120000e+02 L 3.990000e+02 4.120000e+02 L 4.000000e+02 4.110000e+02 L 4.010000e+02 4.120000e+02 L 4.030000e+02 4.120000e+02 L 4.040000e+02 4.120000e+02 L 4.060000e+02 4.130000e+02 L 4.070000e+02 4.130000e+02 L 4.090000e+02 4.140000e+02 L 4.100000e+02 4.160000e+02 L 4.110000e+02 4.160000e+02 L 4.130000e+02 4.170000e+02 L 4.140000e+02 4.170000e+02 L 4.160000e+02 4.180000e+02 L 4.170000e+02 4.180000e+02 L 4.180000e+02 4.180000e+02 L 4.200000e+02 4.180000e+02 L 4.210000e+02 4.180000e+02 L 4.230000e+02 4.180000e+02 L 4.240000e+02 4.180000e+02 L 4.260000e+02 4.180000e+02 L 4.270000e+02 4.180000e+02 L 4.280000e+02 4.180000e+02 L 4.300000e+02 4.170000e+02 L 4.310000e+02 4.170000e+02 L 4.330000e+02 4.160000e+02 L 4.340000e+02 4.160000e+02 L 4.360000e+02 4.150000e+02 L 4.370000e+02 4.150000e+02 L 4.380000e+02 4.150000e+02 L 4.400000e+02 4.150000e+02 L 4.410000e+02 4.150000e+02 L 4.430000e+02 4.160000e+02 L 4.440000e+02 4.160000e+02 L 4.460000e+02 4.170000e+02 L 4.470000e+02 4.170000e+02 L 4.480000e+02 4.170000e+02 L 4.500000e+02 4.180000e+02 L 4.510000e+02 4.190000e+02 L 4.530000e+02 4.200000e+02 L 4.540000e+02 4.210000e+02 L 4.550000e+02 4.210000e+02 L 4.570000e+02 4.220000e+02 L 4.580000e+02 4.220000e+02 L 4.600000e+02 4.220000e+02 L 4.610000e+02 4.220000e+02 L 4.630000e+02 4.210000e+02 L 4.640000e+02 4.210000e+02 L 4.650000e+02 4.220000e+02 L 4.670000e+02 4.230000e+02 L 4.680000e+02 4.230000e+02 L 4.700000e+02 4.240000e+02 L 4.710000e+02 4.240000e+02 L 4.730000e+02 4.240000e+02 L 4.740000e+02 4.240000e+02 L 4.750000e+02 4.230000e+02 L 4.770000e+02 4.230000e+02 L 4.780000e+02 4.230000e+02 L 4.800000e+02 4.230000e+02 L 4.810000e+02 4.230000e+02 L 4.820000e+02 4.220000e+02 L 4.840000e+02 4.210000e+02 L 4.850000e+02 4.200000e+02 L 4.870000e+02 4.190000e+02 L 4.880000e+02 4.170000e+02 L 4.900000e+02 4.160000e+02 L 4.910000e+02 4.150000e+02 L 4.920000e+02 4.140000e+02 L 4.940000e+02 4.140000e+02 L 4.950000e+02 4.140000e+02 L 4.970000e+02 4.140000e+02 L 4.980000e+02 4.150000e+02 L 5.000000e+02 4.160000e+02 L 5.010000e+02 4.170000e+02 L 5.020000e+02 4.180000e+02 L 5.040000e+02 4.180000e+02 L 5.050000e+02 4.180000e+02 L 5.070000e+02 4.190000e+02 L 5.080000e+02 4.190000e+02 L 5.100000e+02 4.190000e+02 L 5.110000e+02 4.190000e+02 L 5.120000e+02 4.190000e+02 L 5.140000e+02 4.190000e+02 L 5.150000e+02 4.200000e+02 L 5.170000e+02 4.200000e+02 L 5.180000e+02 4.200000e+02 L 5.190000e+02 4.190000e+02 L 5.210000e+02 4.190000e+02 L 5.220000e+02 4.190000e+02 L 5.240000e+02 4.180000e+02 L 5.250000e+02 4.180000e+02 L 5.270000e+02 4.170000e+02 L 5.280000e+02 4.170000e+02 L 5.290000e+02 4.180000e+02 L 5.310000e+02 4.180000e+02 L 5.320000e+02 4.180000e+02 L 5.340000e+02 4.180000e+02 L 5.350000e+02 4.180000e+02 L 5.370000e+02 4.190000e+02 L 5.380000e+02 4.200000e+02 L 5.390000e+02 4.200000e+02 L 5.410000e+02 4.210000e+02 L 5.420000e+02 4.210000e+02 L 5.440000e+02 4.210000e+02 L 5.450000e+02 4.200000e+02 L 5.460000e+02 4.200000e+02 L 5.480000e+02 4.200000e+02 L 5.490000e+02 4.200000e+02 L 5.510000e+02 4.210000e+02 L 5.520000e+02 4.210000e+02 L 5.540000e+02 4.210000e+02 L 5.550000e+02 4.210000e+02 L 5.560000e+02 4.210000e+02 L 5.580000e+02 4.200000e+02 L 5.590000e+02 4.190000e+02 L 5.610000e+02 4.190000e+02 L 5.620000e+02 4.180000e+02 L 5.640000e+02 4.180000e+02 L 5.650000e+02 4.180000e+02 L 5.660000e+02 4.180000e+02 L 5.680000e+02 4.180000e+02 L 5.690000e+02 4.170000e+02 L 5.710000e+02 4.170000e+02 L 5.720000e+02 4.160000e+02 L 5.740000e+02 4.170000e+02 L 5.750000e+02 4.170000e+02 L 5.760000e+02 4.170000e+02 L 5.780000e+02 4.170000e+02 L 5.790000e+02 4.170000e+02 L 5.810000e+02 4.160000e+02 L 5.820000e+02 4.150000e+02 L 5.830000e+02 4.150000e+02 L 5.850000e+02 4.140000e+02 L 5.860000e+02 4.130000e+02 L 5.880000e+02 4.120000e+02 L 5.890000e+02 4.110000e+02 L 5.910000e+02 4.100000e+02 L 5.920000e+02 4.100000e+02 L 5.930000e+02 4.100000e+02 L 5.950000e+02 4.100000e+02 L 5.960000e+02 4.100000e+02 L 5.980000e+02 4.100000e+02 L 5.990000e+02 4.110000e+02 L 6.010000e+02 4.120000e+02 L 6.020000e+02 4.130000e+02 L 6.030000e+02 4.140000e+02 L 6.050000e+02 4.150000e+02 L 6.060000e+02 4.150000e+02 L 6.080000e+02 4.160000e+02 L 6.090000e+02 4.160000e+02 L 6.100000e+02 4.160000e+02 L 6.120000e+02 4.160000e+02 L 6.130000e+02 4.170000e+02 L 6.150000e+02 4.170000e+02 L 6.160000e+02 4.180000e+02 L 6.180000e+02 4.180000e+02 L 6.190000e+02 4.190000e+02 L 6.200000e+02 4.200000e+02 L 6.220000e+02 4.200000e+02 L 6.230000e+02 4.220000e+02 L 6.250000e+02 4.230000e+02 L 6.260000e+02 4.240000e+02 L 6.280000e+02 4.250000e+02 L 6.290000e+02 4.250000e+02 L 6.300000e+02 4.260000e+02 L 6.320000e+02 4.270000e+02 L 6.330000e+02 4.280000e+02 L 6.350000e+02 4.290000e+02 L 6.360000e+02 4.290000e+02 L 6.380000e+02 4.300000e+02 L 6.390000e+02 4.310000e+02 L 6.400000e+02 4.320000e+02 L 6.420000e+02 4.320000e+02 L 6.430000e+02 4.330000e+02 L 6.450000e+02 4.330000e+02 L 6.460000e+02 4.330000e+02 L 6.470000e+02 4.320000e+02 L 6.490000e+02 4.330000e+02" style="stroke:#DDCC77; fill:none; stroke-width:2;" stroke-dasharray="0" />
<text x="650" y="180" text-anchor="end" font-family="Arial, Helvetica, sans-serif" style="font-size:20;">p</text>
<line stroke-dasharray="0" x1="660" y1="170" x2="700" y2="170" style="stroke:#117733;stroke-width:2;"></line>
<path d=" M 8.100000e+01 1.560000e+02 L 8.300000e+01 2.070000e+02 L 8.400000e+01 2.260000e+02 L 8.600000e+01 2.960000e+02 L 8.700000e+01 3.220000e+02 L 8.900000e+01 3.250000e+02 L 9.000000e+01 3.220000e+02 L 9.100000e+01 3.210000e+02 L 9.300000e+01 3.200000e+02 L 9.400000e+01 3.190000e+02 L 9.600000e+01 3.180000e+02 L 9.700000e+01 3.180000e+02 L 9.800000e+01 3.180000e+02 L 1.000000e+02 3.180000e+02 L 1.010000e+02 3.170000e+02 L 1.030000e+02 3.160000e+02 L 1.040000e+02 3.130000e+02 L 1.060000e+02 3.110000e+02 L 1.070000e+02 3.100000e+02 L 1.080000e+02 3.090000e+02 L 1.100000e+02 3.080000e+02 L 1.110000e+02 3.070000e+02 L 1.130000e+02 3.050000e+02 L 1.140000e+02 3.040000e+02 L 1.160000e+02 3.030000e+02 L 1.170000e+02 3.010000e+02 L 1.180000e+02 2.990000e+02 L 1.200000e+02 2.970000e+02 L 1.210000e+02 2.960000e+02 L 1.230000e+02 2.960000e+02 L 1.240000e+02 2.950000e+02 L 1.260000e+02 2.950000e+02 L 1.270000e+02 2.960000e+02 L 1.280000e+02 2.970000e+02 L 1.300000e+02 2.980000e+02 L 1.310000e+02 3.000000e+02 L 1.330000e+02 3.020000e+02 L 1.340000e+02 3.040000e+02 L 1.350000e+02 3.060000e+02 L 1.370000e+02 3.080000e+02 L 1.380000e+02 3.100000e+02 L 1.400000e+02 3.110000e+02 L 1.410000e+02 3.120000e+02 L 1.430000e+02 3.140000e+02 L 1.440000e+02 3.160000e+02 L 1.450000e+02 3.190000e+02 L 1.470000e+02 3.200000e+02 L 1.480000e+02 3.200000e+02 L 1.500000e+02 3.210000e+02 L 1.510000e+02 3.220000e+02 L 1.530000e+02 3.240000e+02 L 1.540000e+02 3.260000e+02 L 1.550000e+02 3.300000e+02 L 1.570000e+02 3.330000e+02 L 1.580000e+02 3.380000e+02 L 1.600000e+02 3.420000e+02 L 1.610000e+02 3.450000e+02 L 1.620000e+02 3.470000e+02 L 1.640000e+02 3.500000e+02 L 1.650000e+02 3.520000e+02 L 1.670000e+02 3.550000e+02 L 1.680000e+02 3.580000e+02 L 1.700000e+02 3.600000e+02 L 1.710000e+02 3.620000e+02 L 1.720000e+02 3.640000e+02 L 1.740000e+02 3.660000e+02 L 1.750000e+02 3.680000e+02 L 1.770000e+02 3.710000e+02 L 1.780000e+02 3.730000e+02 L 1.800000e+02 3.750000e+02 L 1.810000e+02 3.780000e+02 L 1.820000e+02 3.800000e+02 L 1.840000e+02 3.830000e+02 L 1.850000e+02 3.840000e+02 L 1.870000e+02 3.860000e+02 L 1.880000e+02 3.880000e+02 L 1.900000e+02 3.890000e+02 L 1.910000e+02 3.900000e+02 L 1.920000e+02 3.920000e+02 L 1.940000e+02 3.930000e+02 L 1.950000e+02 3.950000e+02 L 1.970000e+02 3.960000e+02 L 1.980000e+02 3.970000e+02 L 1.990000e+02 3.990000e+02 L 2.010000e+02 4.000000e+02 L 2.020000e+02 4.010000e+02 L 2.040000e+02 4.020000e+02 L 2.050000e+02 4.030000e+02 L 2.070000e+02 4.030000e+02 L 2.080000e+02 4.040000e+02 L 2.090000e+02 4.040000e+02 L 2.110000e+02 4.050000e+02 L 2.120000e+02 4.050000e+02 L 2.140000e+02 4.060000e+02 L 2.150000e+02 4.070000e+02 L 2.170000e+02 4.080000e+02 L 2.180000e+02 4.090000e+02 L 2.190000e+02 4.100000e+02 L 2.210000e+02 4.100000e+02 L 2.220000e+02 4.100000e+02 L 2.240000e+02 4.100000e+02 L 2.250000e+02 4.090000e+02 L 2.260000e+02 4.090000e+02 L 2.280000e+02 4.080000e+02 L 2.290000e+02 4.080000e+02 L 2.310000e+02 4.070000e+02 L 2.320000e+02 4.060000e+02 L 2.340000e+02 4.060000e+02 L 2.350000e+02 4.050000e+02 L 2.360000e+02 4.050000e+02 L 2.380000e+02 4.050000e+02 L 2.390000e+02 4.050000e+02 L 2.410000e+02 4.050000e+02 L 2.420000e+02 4.050000e+02 L 2.440000e+02 4.050000e+02 L 2.450000e+02 4.060000e+02 L 2.460000e+02 4.060000e+02 L 2.480000e+02 4.070000e+02 L 2.490000e+02 4.070000e+02 L 2.510000e+02 4.090000e+02 L 2.520000e+02 4.100000e+02 L 2.540000e+02 4.110000e+02 L 2.550000e+02 4.120000e+02 L 2.560000e+02 4.120000e+02 L 2.580000e+02 4.130000e+02 L 2.590000e+02 4.140000e+02 L 2.610000e+02 4.140000e+02 L 2.620000e+02 4.140000e+02 L 2.630000e+02 4.140000e+02 L 2.650000e+02 4.140000e+02 L 2.660000e+02 4.140000e+02 L 2.680000e+02 4.140000e+02 L 2.690000e+02 4.140000e+02 L 2.710000e+02 4.140000e+02 L 2.720000e+02 4.150000e+02 L 2.730000e+02 4.160000e+02 L 2.750000e+02 4.160000e+02 L 2.760000e+02 4.170000e+02 L 2.780000e+02 4.170000e+02 L 2.790000e+02 4.170000e+02 L 2.810000e+02 4.170000e+02 L 2.820000e+02 4.170000e+02 L 2.830000e+02 4.160000e+02 L 2.850000e+02 4.160000e+02 L 2.860000e+02 4.150000e+02 L 2.880000e+02 4.150000e+02 L 2.890000e+02 4.160000e+02 L 2.900000e+02 4.160000e+02 L 2.920000e+02 4.160000e+02 L 2.930000e+02 4.170000e+02 L 2.950000e+02 4.180000e+02 L 2.960000e+02 4.190000e+02 L 2.980000e+02 4.190000e+02 L 2.990000e+02 4.200000e+02 L 3.000000e+02 4.210000e+02 L 3.020000e+02 4.210000e+02 L 3.030000e+02 4.220000e+02 L 3.050000e+02 4.220000e+02 L 3.060000e+02 4.230000e+02 L 3.080000e+02 4.230000e+02 L 3.090000e+02 4.240000e+02 L 3.100000e+02 4.250000e+02 L 3.120000e+02 4.250000e+02 L 3.130000e+02 4.260000e+02 L 3.150000e+02 4.260000e+02 L 3.160000e+02 4.270000e+02 L 3.180000e+02 4.260000e+02 L 3.190000e+02 4.260000e+02 L 3.200000e+02 4.250000e+02 L 3.220000e+02 4.240000e+02 L 3.230000e+02 4.240000e+02 L 3.250000e+02 4.240000e+02 L 3.260000e+02 4.230000e+02 L 3.270000e+02 4.230000e+02 L 3.290000e+02 4.220000e+02 L 3.300000e+02 4.210000e+02 L 3.320000e+02 4.210000e+02 L 3.330000e+02 4.200000e+02 L 3.350000e+02 4.200000e+02 L 3.360000e+02 4.200000e+02 L 3.370000e+02 4.200000e+02 L 3.390000e+02 4.210000e+02 L 3.400000e+02 4.210000e+02 L 3.420000e+02 4.210000e+02 L 3.430000e+02 4.220000e+02 L 3.450000e+02 4.220000e+02 L 3.460000e+02 4.220000e+02 L 3.470000e+02 4.220000e+02 L 3.490000e+02 4.210000e+02 L 3.500000e+02 4.210000e+02 L 3.520000e+02 4.200000e+02 L 3.530000e+02 4.200000e+02 L 3.540000e+02 4.200000e+02 L 3.560000e+02 4.200000e+02 L 3.570000e+02 4.190000e+02 L 3.590000e+02 4.190000e+02 L 3.600000e+02 4.190000e+02 L 3.620000e+02 4.190000e+02 L 3.630000e+02 4.190000e+02 L 3.640000e+02 4.200000e+02 L 3.660000e+02 4.210000e+02 L 3.670000e+02 4.210000e+02 L 3.690000e+02 4.220000e+02 L 3.700000e+02 4.220000e+02 L 3.720000e+02 4.220000e+02 L 3.730000e+02 4.220000e+02 L 3.740000e+02 4.230000e+02 L 3.760000e+02 4.230000e+02 L 3.770000e+02 4.240000e+02 L 3.790000e+02 4.240000e+02 L 3.800000e+02 4.240000e+02 L 3.820000e+02 4.240000e+02 L 3.830000e+02 4.240000e+02 L 3.840000e+02 4.230000e+02 L 3.860000e+02 4.220000e+02 L 3.870000e+02 4.210000e+02 L 3.890000e+02 4.190000e+02 L 3.900000e+02 4.180000e+02 L 3.910000e+02 4.170000e+02 L 3.930000e+02 4.160000e+02 L 3.940000e+02 4.150000e+02 L 3.960000e+02 4.140000e+02 L 3.970000e+02 4.140000e+02 L 3.990000e+02 4.140000e+02 L 4.000000e+02 4.140000e+02 L 4.010000e+02 4.150000e+02 L 4.030000e+02 4.150000e+02 L 4.040000e+02 4.150000e+02 L 4.060000e+02 4.160000e+02 L 4.070000e+02 4.160000e+02 L 4.090000e+02 4.160000e+02 L 4.100000e+02 4.170000e+02 L 4.110000e+02 4.170000e+02 L 4.130000e+02 4.170000e+02 L 4.140000e+02 4.170000e+02 L 4.160000e+02 4.170000e+02 L 4.170000e+02 4.170000e+02 L 4.180000e+02 4.170000e+02 L 4.200000e+02 4.170000e+02 L 4.210000e+02 4.170000e+02 L 4.230000e+02 4.160000e+02 L 4.240000e+02 4.160000e+02 L 4.260000e+02 4.160000e+02 L 4.270000e+02 4.160000e+02 L 4.280000e+02 4.160000e+02 L 4.300000e+02 4.160000e+02 L 4.310000e+02 4.160000e+02 L 4.330000e+02 4.160000e+02 L 4.340000e+02 4.170000e+02 L 4.360000e+02 4.170000e+02 L 4.370000e+02 4.160000e+02 L 4.380000e+02 4.160000e+02 L 4.400000e+02 4.160000e+02 L 4.410000e+02 4.160000e+02 L 4.430000e+02 4.150000e+02 L 4.440000e+02 4.160000e+02 L 4.460000e+02 4.160000e+02 L 4.470000e+02 4.160000e+02 L 4.480000e+02 4.170000e+02 L 4.500000e+02 4.180000e+02 L 4.510000e+02 4.180000e+02 L 4.530000e+02 4.190000e+02 L 4.540000e+02 4.200000e+02 L 4.550000e+02 4.210000e+02 L 4.570000e+02 4.210000e+02 L 4.580000e+02 4.220000e+02 L 4.600000e+02 4.220000e+02 L 4.610000e+02 4.220000e+02 L 4.630000e+02 4.210000e+02 L 4.640000e+02 4.220000e+02 L 4.650000e+02 4.220000e+02 L 4.670000e+02 4.230000e+02 L 4.680000e+02 4.240000e+02 L 4.700000e+02 4.240000e+02 L 4.710000e+02 4.240000e+02 L 4.730000e+02 4.240000e+02 L 4.740000e+02 4.230000e+02 L 4.750000e+02 4.230000e+02 L 4.770000e+02 4.220000e+02 L 4.780000e+02 4.220000e+02 L 4.800000e+02 4.220000e+02 L 4.810000e+02 4.220000e+02 L 4.820000e+02 4.220000e+02 L 4.840000e+02 4.220000e+02 L 4.850000e+02 4.220000e+02 L 4.870000e+02 4.220000e+02 L 4.880000e+02 4.210000e+02 L 4.900000e+02 4.210000e+02 L 4.910000e+02 4.200000e+02 L 4.920000e+02 4.200000e+02 L 4.940000e+02 4.200000e+02 L 4.950000e+02 4.210000e+02 L 4.970000e+02 4.210000e+02 L 4.980000e+02 4.210000e+02 L 5.000000e+02 4.210000e+02 L 5.010000e+02 4.220000e+02 L 5.020000e+02 4.220000e+02 L 5.040000e+02 4.220000e+02 L 5.050000e+02 4.230000e+02 L 5.070000e+02 4.230000e+02 L 5.080000e+02 4.230000e+02 L 5.100000e+02 4.230000e+02 L 5.110000e+02 4.230000e+02 L 5.120000e+02 4.230000e+02 L 5.140000e+02 4.230000e+02 L 5.150000e+02 4.230000e+02 L 5.170000e+02 4.220000e+02 L 5.180000e+02 4.210000e+02 L 5.190000e+02 4.210000e+02 L 5.210000e+02 4.200000e+02 L 5.220000e+02 4.200000e+02 L 5.240000e+02 4.200000e+02 L 5.250000e+02 4.200000e+02 L 5.270000e+02 4.200000e+02 L 5.280000e+02 4.200000e+02 L 5.290000e+02 4.210000e+02 L 5.310000e+02 4.200000e+02 L 5.320000e+02 4.210000e+02 L 5.340000e+02 4.210000e+02 L 5.350000e+02 4.210000e+02 L 5.370000e+02 4.220000e+02 L 5.380000e+02 4.220000e+02 L 5.390000e+02 4.230000e+02 L 5.410000e+02 4.230000e+02 L 5.420000e+02 4.230000e+02 L 5.440000e+02 4.230000e+02 L 5.450000e+02 4.230000e+02 L 5.460000e+02 4.230000e+02 L 5.480000e+02 4.220000e+02 L 5.490000e+02 4.220000e+02 L 5.510000e+02 4.220000e+02 L 5.520000e+02 4.210000e+02 L 5.540000e+02 4.210000e+02 L 5.550000e+02 4.210000e+02 L 5.560000e+02 4.200000e+02 L 5.580000e+02 4.200000e+02 L 5.590000e+02 4.210000e+02 L 5.610000e+02 4.210000e+02 L 5.620000e+02 4.210000e+02 L 5.640000e+02 4.220000e+02 L 5.650000e+02 4.220000e+02 L 5.660000e+02 4.230000e+02 L 5.680000e+02 4.220000e+02 L 5.690000e+02 4.220000e+02 L 5.710000e+02 4.210000e+02 L 5.720000e+02 4.200000e+02 L 5.740000e+02 4.180000e+02 L 5.750000e+02 4.170000e+02 L 5.760000e+02 4.170000e+02 L 5.780000e+02 4.170000e+02 L 5.790000e+02 4.160000e+02 L 5.810000e+02 4.160000e+02 L 5.820000e+02 4.150000e+02 L 5.830000e+02 4.150000e+02 L 5.850000e+02 4.150000e+02 L 5.860000e+02 4.150000e+02 L 5.880000e+02 4.140000e+02 L 5.890000e+02 4.140000e+02 L 5.910000e+02 4.140000e+02 L 5.920000e+02 4.130000e+02 L 5.930000e+02 4.130000e+02 L 5.950000e+02 4.130000e+02 L 5.960000e+02 4.120000e+02 L 5.980000e+02 4.130000e+02 L 5.990000e+02 4.130000e+02 L 6.010000e+02 4.140000e+02 L 6.020000e+02 4.150000e+02 L 6.030000e+02 4.160000e+02 L 6.050000e+02 4.170000e+02 L 6.060000e+02 4.180000e+02 L 6.080000e+02 4.190000e+02 L 6.090000e+02 4.200000e+02 L 6.100000e+02 4.200000e+02 L 6.120000e+02 4.200000e+02 L 6.130000e+02 4.200000e+02 L 6.150000e+02 4.210000e+02 L 6.160000e+02 4.210000e+02 L 6.180000e+02 4.210000e+02 L 6.190000e+02 4.210000e+02 L 6.200000e+02 4.210000e+02 L 6.220000e+02 4.220000e+02 L 6.230000e+02 4.220000e+02 L 6.250000e+02 4.230000e+02 L 6.260000e+02 4.230000e+02 L 6.280000e+02 4.240000e+02 L 6.290000e+02 4.250000e+02 L 6.300000e+02 4.260000e+02 L 6.320000e+02 4.270000e+02 L 6.330000e+02 4.280000e+02 L 6.350000e+02 4.280000e+02 L 6.360000e+02 4.290000e+02 L 6.380000e+02 4.290000e+02 L 6.390000e+02 4.290000e+02 L 6.400000e+02 4.300000e+02 L 6.420000e+02 4.300000e+02 L 6.430000e+02 4.310000e+02 L 6.450000e+02 4.310000e+02 L 6.460000e+02 4.320000e+02 L 6.470000e+02 4.320000e+02 L 6.490000e+02 4.330000e+02" style="stroke:#117733; fill:none; stroke-width:2;" stroke-dasharray="0" />
</svg>
