<svg viewBox="0 0 800 600" xmlns="http://www.w3.org/2000/svg" xmlns:xlink="http://www.w3.org/1999/xlink" xmlns:bx="https://www.boxy-svg.com/bx">
<rect x="80" y="60" width="640" height="480" style="fill:none;stroke:rgb(105,105,105);"></rect>
<text x="400" y="590" text-anchor="middle" font-family="Arial, Helvetica, sans-serif" style="font-size:24;">Iteration</text>
<text x="0" y="0" text-anchor="middle" font-family="Arial, Helvetica, sans-serif" alignment-baseline="middle" transform="translate(20,300) rotate(270)" style="font-size:24;">log10(Initial residual)</text>
<line x1="187" y1="540" x2="187" y2="60" style="stroke:rgb(200,200,200);stroke-width:1;stroke-dasharray:4;"></line>
<line x1="293" y1="540" x2="293" y2="60" style="stroke:rgb(200,200,200);stroke-width:1;stroke-dasharray:4;"></line>
<line x1="400" y1="540" x2="400" y2="60" style="stroke:rgb(200,200,200);stroke-width:1;stroke-dasharray:4;"></line>
<line x1="507" y1="540" x2="507" y2="60" style="stroke:rgb(200,200,200);stroke-width:1;stroke-dasharray:4;"></line>
<line x1="613" y1="540" x2="613" y2="60" style="stroke:rgb(200,200,200);stroke-width:1;stroke-dasharray:4;"></line>
<line x1="80" y1="460" x2="720" y2="460" style="stroke:rgb(200,200,200);stroke-width:1;stroke-dasharray:4;"></line>
<line x1="80" y1="380" x2="720" y2="380" style="stroke:rgb(200,200,200);stroke-width:1;stroke-dasharray:4;"></line>
<line x1="80" y1="300" x2="720" y2="300" style="stroke:rgb(200,200,200);stroke-width:1;stroke-dasharray:4;"></line>
<line x1="80" y1="220" x2="720" y2="220" style="stroke:rgb(200,200,200);stroke-width:1;stroke-dasharray:4;"></line>
<line x1="80" y1="140" x2="720" y2="140" style="stroke:rgb(200,200,200);stroke-width:1;stroke-dasharray:4;"></line>
<line x1="80" y1="540" x2="80" y2="544" style="stroke:rgb(105,105,105);stroke-width:2;"></line>
<text x="80" y="569" text-anchor="middle" font-family="Arial, Helvetica, sans-serif" style="font-size:20;">0</text>
<line x1="187" y1="540" x2="187" y2="544" style="stroke:rgb(105,105,105);stroke-width:2;"></line>
<text x="187" y="569" text-anchor="middle" font-family="Arial, Helvetica, sans-serif" style="font-size:20;">20</text>
<line x1="293" y1="540" x2="293" y2="544" style="stroke:rgb(105,105,105);stroke-width:2;"></line>
<text x="293" y="569" text-anchor="middle" font-family="Arial, Helvetica, sans-serif" style="font-size:20;">40</text>
<line x1="400" y1="540" x2="400" y2="544" style="stroke:rgb(105,105,105);stroke-width:2;"></line>
<text x="400" y="569" text-anchor="middle" font-family="Arial, Helvetica, sans-serif" style="font-size:20;">60</text>
<line x1="507" y1="540" x2="507" y2="544" style="stroke:rgb(105,105,105);stroke-width:2;"></line>
<text x="507" y="569" text-anchor="middle" font-family="Arial, Helvetica, sans-serif" style="font-size:20;">80</text>
<line x1="613" y1="540" x2="613" y2="544" style="stroke:rgb(105,105,105);stroke-width:2;"></line>
<text x="613" y="569" text-anchor="middle" font-family="Arial, Helvetica, sans-serif" style="font-size:20;">100</text>
<line x1="720" y1="540" x2="720" y2="544" style="stroke:rgb(105,105,105);stroke-width:2;"></line>
<text x="720" y="569" text-anchor="middle" font-family="Arial, Helvetica, sans-serif" style="font-size:20;">120</text>
<line x1="80" y1="540" x2="76" y2="540" style="stroke:rgb(105,105,105);stroke-width:1;"></line>
<text x="66" y="548" text-anchor="end" font-family="Arial, Helvetica, sans-serif" style="font-size:20;"><tspan>10<tspan style="font-size:12px" dy="-8">-5</tspan></tspan></text>
<line x1="80" y1="460" x2="76" y2="460" style="stroke:rgb(105,105,105);stroke-width:1;"></line>
<text x="66" y="468" text-anchor="end" font-family="Arial, Helvetica, sans-serif" style="font-size:20;"><tspan>10<tspan style="font-size:12px" dy="-8">-4</tspan></tspan></text>
<line x1="80" y1="380" x2="76" y2="380" style="stroke:rgb(105,105,105);stroke-width:1;"></line>
<text x="66" y="388" text-anchor="end" font-family="Arial, Helvetica, sans-serif" style="font-size:20;"><tspan>10<tspan style="font-size:12px" dy="-8">-3</tspan></tspan></text>
<line x1="80" y1="300" x2="76" y2="300" style="stroke:rgb(105,105,105);stroke-width:1;"></line>
<text x="66" y="308" text-anchor="end" font-family="Arial, Helvetica, sans-serif" style="font-size:20;"><tspan>10<tspan style="font-size:12px" dy="-8">-2</tspan></tspan></text>
<line x1="80" y1="220" x2="76" y2="220" style="stroke:rgb(105,105,105);stroke-width:1;"></line>
<text x="66" y="228" text-anchor="end" font-family="Arial, Helvetica, sans-serif" style="font-size:20;"><tspan>10<tspan style="font-size:12px" dy="-8">-1</tspan></tspan></text>
<line x1="80" y1="140" x2="76" y2="140" style="stroke:rgb(105,105,105);stroke-width:1;"></line>
<text x="66" y="148" text-anchor="end" font-family="Arial, Helvetica, sans-serif" style="font-size:20;"><tspan>10<tspan style="font-size:12px" dy="-8">0</tspan></tspan></text>
<line x1="80" y1="60" x2="76" y2="60" style="stroke:rgb(105,105,105);stroke-width:1;"></line>
<text x="66" y="68" text-anchor="end" font-family="Arial, Helvetica, sans-serif" style="font-size:20;"><tspan>10<tspan style="font-size:12px" dy="-8">1</tspan></tspan></text>
<text x="650" y="90" text-anchor="end" font-family="Arial, Helvetica, sans-serif" style="font-size:20;">Ux</text>
<line stroke-dasharray="0" x1="660" y1="80" x2="700" y2="80" style="stroke:#CC6677;stroke-width:2;"></line>
<path d=" M 8.500000e+01 1.400000e+02 L 9.100000e+01 1.980000e+02 L 9.600000e+01 2.370000e+02 L 1.010000e+02 2.540000e+02 L 1.070000e+02 2.640000e+02 L 1.120000e+02 2.720000e+02 L 1.170000e+02 2.790000e+02 L 1.230000e+02 2.850000e+02 L 1.280000e+02 2.900000e+02 L 1.330000e+02 2.950000e+02 L 1.390000e+02 2.970000e+02 L 1.440000e+02 3.000000e+02 L 1.490000e+02 3.030000e+02 L 1.550000e+02 3.060000e+02 L 1.600000e+02 3.070000e+02 L 1.650000e+02 3.090000e+02 L 1.710000e+02 3.110000e+02 L 1.760000e+02 3.120000e+02 L 1.810000e+02 3.150000e+02 L 1.870000e+02 3.170000e+02 L 1.920000e+02 3.200000e+02 L 1.970000e+02 3.220000e+02 L 2.030000e+02 3.250000e+02 L 2.080000e+02 3.270000e+02 L 2.130000e+02 3.300000e+02 L 2.190000e+02 3.330000e+02 L 2.240000e+02 3.370000e+02 L 2.290000e+02 3.400000e+02 L 2.350000e+02 3.440000e+02 L 2.400000e+02 3.470000e+02 L 2.450000e+02 3.500000e+02 L 2.510000e+02 3.520000e+02 L 2.560000e+02 3.540000e+02 L 2.610000e+02 3.560000e+02 L 2.670000e+02 3.580000e+02 L 2.720000e+02 3.600000e+02 L 2.770000e+02 3.620000e+02 L 2.830000e+02 3.640000e+02 L 2.880000e+02 3.660000e+02 L 2.930000e+02 3.680000e+02 L 2.990000e+02 3.700000e+02 L 3.040000e+02 3.720000e+02 L 3.090000e+02 3.740000e+02 L 3.150000e+02 3.770000e+02 L 3.200000e+02 3.790000e+02 L 3.250000e+02 3.810000e+02 L 3.310000e+02 3.830000e+02 L 3.360000e+02 3.850000e+02 L 3.410000e+02 3.870000e+02 L 3.470000e+02 3.890000e+02 L 3.520000e+02 3.910000e+02 L 3.570000e+02 3.930000e+02 L 3.630000e+02 3.950000e+02 L 3.680000e+02 3.970000e+02 L 3.730000e+02 3.990000e+02 L 3.790000e+02 4.010000e+02 L 3.840000e+02 4.030000e+02 L 3.890000e+02 4.050000e+02 L 3.950000e+02 4.070000e+02 L 4.000000e+02 4.090000e+02 L 4.050000e+02 4.100000e+02 L 4.110000e+02 4.130000e+02 L 4.160000e+02 4.140000e+02 L 4.210000e+02 4.170000e+02 L 4.270000e+02 4.180000e+02 L 4.320000e+02 4.210000e+02 L 4.370000e+02 4.220000e+02 L 4.430000e+02 4.250000e+02 L 4.480000e+02 4.260000e+02 L 4.530000e+02 4.290000e+02 L 4.590000e+02 4.300000e+02 L 4.640000e+02 4.330000e+02 L 4.690000e+02 4.330000e+02 L 4.750000e+02 4.360000e+02 L 4.800000e+02 4.370000e+02 L 4.850000e+02 4.400000e+02 L 4.910000e+02 4.400000e+02 L 4.960000e+02 4.430000e+02 L 5.010000e+02 4.440000e+02 L 5.070000e+02 4.470000e+02 L 5.120000e+02 4.460000e+02 L 5.170000e+02 4.500000e+02 L 5.230000e+02 4.500000e+02 L 5.280000e+02 4.530000e+02 L 5.330000e+02 4.520000e+02 L 5.390000e+02 4.560000e+02 L 5.440000e+02 4.550000e+02 L 5.490000e+02 4.590000e+02 L 5.550000e+02 4.580000e+02 L 5.600000e+02 4.620000e+02 L 5.650000e+02 4.600000e+02 L 5.710000e+02 4.640000e+02 L 5.760000e+02 4.630000e+02 L 5.810000e+02 4.670000e+02 L 5.870000e+02 4.650000e+02 L 5.920000e+02 4.690000e+02 L 5.970000e+02 4.670000e+02 L 6.030000e+02 4.720000e+02 L 6.080000e+02 4.690000e+02 L 6.130000e+02 4.740000e+02" style="stroke:#CC6677; fill:none; stroke-width:2;" stroke-dasharray="0" />
<text x="650" y="120" text-anchor="end" font-family="Arial, Helvetica, sans-serif" style="font-size:20;">Uy</text>
<line stroke-dasharray="0" x1="660" y1="110" x2="700" y2="110" style="stroke:#332288;stroke-width:2;"></line>
<path d=" M 8.500000e+01 1.400000e+02 L 9.100000e+01 1.670000e+02 L 9.600000e+01 1.830000e+02 L 1.010000e+02 1.950000e+02 L 1.070000e+02 2.020000e+02 L 1.120000e+02 2.100000e+02 L 1.170000e+02 2.170000e+02 L 1.230000e+02 2.220000e+02 L 1.280000e+02 2.250000e+02 L 1.330000e+02 2.270000e+02 L 1.390000e+02 2.280000e+02 L 1.440000e+02 2.280000e+02 L 1.490000e+02 2.310000e+02 L 1.550000e+02 2.340000e+02 L 1.600000e+02 2.340000e+02 L 1.650000e+02 2.360000e+02 L 1.710000e+02 2.390000e+02 L 1.760000e+02 2.400000e+02 L 1.810000e+02 2.420000e+02 L 1.870000e+02 2.430000e+02 L 1.920000e+02 2.450000e+02 L 1.970000e+02 2.460000e+02 L 2.030000e+02 2.470000e+02 L 2.080000e+02 2.480000e+02 L 2.130000e+02 2.510000e+02 L 2.190000e+02 2.530000e+02 L 2.240000e+02 2.570000e+02 L 2.290000e+02 2.600000e+02 L 2.350000e+02 2.630000e+02 L 2.400000e+02 2.660000e+02 L 2.450000e+02 2.690000e+02 L 2.510000e+02 2.710000e+02 L 2.560000e+02 2.730000e+02 L 2.610000e+02 2.750000e+02 L 2.670000e+02 2.780000e+02 L 2.720000e+02 2.800000e+02 L 2.770000e+02 2.830000e+02 L 2.830000e+02 2.860000e+02 L 2.880000e+02 2.880000e+02 L 2.930000e+02 2.910000e+02 L 2.990000e+02 2.940000e+02 L 3.040000e+02 2.960000e+02 L 3.090000e+02 2.990000e+02 L 3.150000e+02 3.010000e+02 L 3.200000e+02 3.030000e+02 L 3.250000e+02 3.050000e+02 L 3.310000e+02 3.080000e+02 L 3.360000e+02 3.100000e+02 L 3.410000e+02 3.120000e+02 L 3.470000e+02 3.140000e+02 L 3.520000e+02 3.160000e+02 L 3.570000e+02 3.170000e+02 L 3.630000e+02 3.190000e+02 L 3.680000e+02 3.210000e+02 L 3.730000e+02 3.230000e+02 L 3.790000e+02 3.250000e+02 L 3.840000e+02 3.270000e+02 L 3.890000e+02 3.280000e+02 L 3.950000e+02 3.300000e+02 L 4.000000e+02 3.320000e+02 L 4.050000e+02 3.330000e+02 L 4.110000e+02 3.350000e+02 L 4.160000e+02 3.370000e+02 L 4.210000e+02 3.390000e+02 L 4.270000e+02 3.400000e+02 L 4.320000e+02 3.420000e+02 L 4.370000e+02 3.440000e+02 L 4.430000e+02 3.450000e+02 L 4.480000e+02 3.470000e+02 L 4.530000e+02 3.490000e+02 L 4.590000e+02 3.510000e+02 L 4.640000e+02 3.520000e+02 L 4.690000e+02 3.540000e+02 L 4.750000e+02 3.560000e+02 L 4.800000e+02 3.570000e+02 L 4.850000e+02 3.590000e+02 L 4.910000e+02 3.600000e+02 L 4.960000e+02 3.620000e+02 L 5.010000e+02 3.640000e+02 L 5.070000e+02 3.660000e+02 L 5.120000e+02 3.670000e+02 L 5.170000e+02 3.690000e+02 L 5.230000e+02 3.700000e+02 L 5.280000e+02 3.720000e+02 L 5.330000e+02 3.740000e+02 L 5.390000e+02 3.760000e+02 L 5.440000e+02 3.770000e+02 L 5.490000e+02 3.790000e+02 L 5.550000e+02 3.800000e+02 L 5.600000e+02 3.830000e+02 L 5.650000e+02 3.840000e+02 L 5.710000e+02 3.860000e+02 L 5.760000e+02 3.870000e+02 L 5.810000e+02 3.890000e+02 L 5.870000e+02 3.900000e+02 L 5.920000e+02 3.920000e+02 L 5.970000e+02 3.940000e+02 L 6.030000e+02 3.960000e+02 L 6.080000e+02 3.970000e+02 L 6.130000e+02 3.990000e+02" style="stroke:#332288; fill:none; stroke-width:2;" stroke-dasharray="0" />
<text x="650" y="150" text-anchor="end" font-family="Arial, Helvetica, sans-serif" style="font-size:20;">Uz</text>
<line stroke-dasharray="0" x1="660" y1="140" x2="700" y2="140" style="stroke:#DDCC77;stroke-width:2;"></line>
<path d=" M 8.500000e+01 1.400000e+02 L 9.100000e+01 1.650000e+02 L 9.600000e+01 2.100000e+02 L 1.010000e+02 2.260000e+02 L 1.070000e+02 2.340000e+02 L 1.120000e+02 2.400000e+02 L 1.170000e+02 2.460000e+02 L 1.230000e+02 2.510000e+02 L 1.280000e+02 2.540000e+02 L 1.330000e+02 2.560000e+02 L 1.390000e+02 2.580000e+02 L 1.440000e+02 2.590000e+02 L 1.490000e+02 2.600000e+02 L 1.550000e+02 2.620000e+02 L 1.600000e+02 2.630000e+02 L 1.650000e+02 2.640000e+02 L 1.710000e+02 2.650000e+02 L 1.760000e+02 2.660000e+02 L 1.810000e+02 2.680000e+02 L 1.870000e+02 2.690000e+02 L 1.920000e+02 2.710000e+02 L 1.970000e+02 2.720000e+02 L 2.030000e+02 2.750000e+02 L 2.080000e+02 2.770000e+02 L 2.130000e+02 2.790000e+02 L 2.190000e+02 2.810000e+02 L 2.240000e+02 2.840000e+02 L 2.290000e+02 2.870000e+02 L 2.350000e+02 2.900000e+02 L 2.400000e+02 2.930000e+02 L 2.450000e+02 2.960000e+02 L 2.510000e+02 2.990000e+02 L 2.560000e+02 3.010000e+02 L 2.610000e+02 3.040000e+02 L 2.670000e+02 3.070000e+02 L 2.720000e+02 3.100000e+02 L 2.770000e+02 3.130000e+02 L 2.830000e+02 3.160000e+02 L 2.880000e+02 3.180000e+02 L 2.930000e+02 3.210000e+02 L 2.990000e+02 3.230000e+02 L 3.040000e+02 3.260000e+02 L 3.090000e+02 3.270000e+02 L 3.150000e+02 3.300000e+02 L 3.200000e+02 3.320000e+02 L 3.250000e+02 3.350000e+02 L 3.310000e+02 3.360000e+02 L 3.360000e+02 3.390000e+02 L 3.410000e+02 3.410000e+02 L 3.470000e+02 3.430000e+02 L 3.520000e+02 3.450000e+02 L 3.570000e+02 3.470000e+02 L 3.630000e+02 3.490000e+02 L 3.680000e+02 3.510000e+02 L 3.730000e+02 3.530000e+02 L 3.790000e+02 3.550000e+02 L 3.840000e+02 3.560000e+02 L 3.890000e+02 3.590000e+02 L 3.950000e+02 3.600000e+02 L 4.000000e+02 3.620000e+02 L 4.050000e+02 3.630000e+02 L 4.110000e+02 3.660000e+02 L 4.160000e+02 3.670000e+02 L 4.210000e+02 3.690000e+02 L 4.270000e+02 3.700000e+02 L 4.320000e+02 3.720000e+02 L 4.370000e+02 3.730000e+02 L 4.430000e+02 3.750000e+02 L 4.480000e+02 3.760000e+02 L 4.530000e+02 3.790000e+02 L 4.590000e+02 3.800000e+02 L 4.640000e+02 3.820000e+02 L 4.690000e+02 3.830000e+02 L 4.750000e+02 3.850000e+02 L 4.800000e+02 3.860000e+02 L 4.850000e+02 3.880000e+02 L 4.910000e+02 3.890000e+02 L 4.960000e+02 3.920000e+02 L 5.010000e+02 3.930000e+02 L 5.070000e+02 3.950000e+02 L 5.120000e+02 3.960000e+02 L 5.170000e+02 3.990000e+02 L 5.230000e+02 3.990000e+02 L 5.280000e+02 4.020000e+02 L 5.330000e+02 4.030000e+02 L 5.390000e+02 4.050000e+02 L 5.440000e+02 4.060000e+02 L 5.490000e+02 4.090000e+02 L 5.550000e+02 4.100000e+02 L 5.600000e+02 4.130000e+02 L 5.650000e+02 4.130000e+02 L 5.710000e+02 4.160000e+02 L 5.760000e+02 4.170000e+02 L 5.810000e+02 4.200000e+02 L 5.870000e+02 4.200000e+02 L 5.920000e+02 4.230000e+02 L 5.970000e+02 4.230000e+02 L 6.030000e+02 4.260000e+02 L 6.080000e+02 4.270000e+02 L 6.130000e+02 4.300000e+02" style="stroke:#DDCC77; fill:none; stroke-width:2;" stroke-dasharray="0" />
<text x="650" y="180" text-anchor="end" font-family="Arial, Helvetica, sans-serif" style="font-size:20;">p</text>
<line stroke-dasharray="0" x1="660" y1="170" x2="700" y2="170" style="stroke:#117733;stroke-width:2;"></line>
<path d=" M 8.500000e+01 1.400000e+02 L 9.100000e+01 1.960000e+02 L 9.600000e+01 2.320000e+02 L 1.010000e+02 2.500000e+02 L 1.070000e+02 2.590000e+02 L 1.120000e+02 2.630000e+02 L 1.170000e+02 2.650000e+02 L 1.230000e+02 2.660000e+02 L 1.280000e+02 2.670000e+02 L 1.330000e+02 2.690000e+02 L 1.390000e+02 2.720000e+02 L 1.440000e+02 2.740000e+02 L 1.490000e+02 2.770000e+02 L 1.550000e+02 2.810000e+02 L 1.600000e+02 2.840000e+02 L 1.650000e+02 2.870000e+02 L 1.710000e+02 2.870000e+02 L 1.760000e+02 2.910000e+02 L 1.810000e+02 2.920000e+02 L 1.870000e+02 2.930000e+02 L 1.920000e+02 2.940000e+02 L 1.970000e+02 2.940000e+02 L 2.030000e+02 2.950000e+02 L 2.080000e+02 2.950000e+02 L 2.130000e+02 2.970000e+02 L 2.190000e+02 2.980000e+02 L 2.240000e+02 3.000000e+02 L 2.290000e+02 3.020000e+02 L 2.350000e+02 3.050000e+02 L 2.400000e+02 3.060000e+02 L 2.450000e+02 3.090000e+02 L 2.510000e+02 3.100000e+02 L 2.560000e+02 3.130000e+02 L 2.610000e+02 3.150000e+02 L 2.670000e+02 3.170000e+02 L 2.720000e+02 3.190000e+02 L 2.770000e+02 3.220000e+02 L 2.830000e+02 3.240000e+02 L 2.880000e+02 3.270000e+02 L 2.930000e+02 3.290000e+02 L 2.990000e+02 3.310000e+02 L 3.040000e+02 3.330000e+02 L 3.090000e+02 3.360000e+02 L 3.150000e+02 3.370000e+02 L 3.200000e+02 3.400000e+02 L 3.250000e+02 3.410000e+02 L 3.310000e+02 3.440000e+02 L 3.360000e+02 3.450000e+02 L 3.410000e+02 3.470000e+02 L 3.470000e+02 3.490000e+02 L 3.520000e+02 3.510000e+02 L 3.570000e+02 3.520000e+02 L 3.630000e+02 3.550000e+02 L 3.680000e+02 3.560000e+02 L 3.730000e+02 3.580000e+02 L 3.790000e+02 3.590000e+02 L 3.840000e+02 3.620000e+02 L 3.890000e+02 3.630000e+02 L 3.950000e+02 3.650000e+02 L 4.000000e+02 3.660000e+02 L 4.050000e+02 3.680000e+02 L 4.110000e+02 3.690000e+02 L 4.160000e+02 3.720000e+02 L 4.210000e+02 3.720000e+02 L 4.270000e+02 3.750000e+02 L 4.320000e+02 3.760000e+02 L 4.370000e+02 3.780000e+02 L 4.430000e+02 3.790000e+02 L 4.480000e+02 3.810000e+02 L 4.530000e+02 3.820000e+02 L 4.590000e+02 3.840000e+02 L 4.640000e+02 3.850000e+02 L 4.690000e+02 3.870000e+02 L 4.750000e+02 3.880000e+02 L 4.800000e+02 3.900000e+02 L 4.850000e+02 3.910000e+02 L 4.910000e+02 3.940000e+02 L 4.960000e+02 3.940000e+02 L 5.010000e+02 3.970000e+02 L 5.070000e+02 3.970000e+02 L 5.120000e+02 4.000000e+02 L 5.170000e+02 4.010000e+02 L 5.230000e+02 4.030000e+02 L 5.280000e+02 4.040000e+02 L 5.330000e+02 4.070000e+02 L 5.390000e+02 4.070000e+02 L 5.440000e+02 4.100000e+02 L 5.490000e+02 4.100000e+02 L 5.550000e+02 4.130000e+02 L 5.600000e+02 4.130000e+02 L 5.650000e+02 4.170000e+02 L 5.710000e+02 4.170000e+02 L 5.760000e+02 4.200000e+02 L 5.810000e+02 4.200000e+02 L 5.870000e+02 4.230000e+02 L 5.920000e+02 4.230000e+02 L 5.970000e+02 4.270000e+02 L 6.030000e+02 4.260000e+02 L 6.080000e+02 4.300000e+02 L 6.130000e+02 4.290000e+02" style="stroke:#117733; fill:none; stroke-width:2;" stroke-dasharray="0" />
</svg>
