<svg viewBox="0 0 800 600" xmlns="http://www.w3.org/2000/svg" xmlns:xlink="http://www.w3.org/1999/xlink" xmlns:bx="https://www.boxy-svg.com/bx">
<rect x="80" y="60" width="640" height="480" style="fill:none;stroke:rgb(105,105,105);"></rect>
<text x="400" y="590" text-anchor="middle" font-family="Arial, Helvetica, sans-serif" style="font-size:24;">Iteration</text>
<text x="0" y="0" text-anchor="middle" font-family="Arial, Helvetica, sans-serif" alignment-baseline="middle" transform="translate(20,300) rotate(270)" style="font-size:24;">Coefficient</text>
<line x1="187" y1="540" x2="187" y2="60" style="stroke:rgb(200,200,200);stroke-width:1;stroke-dasharray:4;"></line>
<line x1="293" y1="540" x2="293" y2="60" style="stroke:rgb(200,200,200);stroke-width:1;stroke-dasharray:4;"></line>
<line x1="400" y1="540" x2="400" y2="60" style="stroke:rgb(200,200,200);stroke-width:1;stroke-dasharray:4;"></line>
<line x1="507" y1="540" x2="507" y2="60" style="stroke:rgb(200,200,200);stroke-width:1;stroke-dasharray:4;"></line>
<line x1="613" y1="540" x2="613" y2="60" style="stroke:rgb(200,200,200);stroke-width:1;stroke-dasharray:4;"></line>
<line x1="80" y1="500" x2="720" y2="500" style="stroke:rgb(200,200,200);stroke-width:1;stroke-dasharray:4;"></line>
<line x1="80" y1="460" x2="720" y2="460" style="stroke:rgb(200,200,200);stroke-width:1;stroke-dasharray:4;"></line>
<line x1="80" y1="420" x2="720" y2="420" style="stroke:rgb(200,200,200);stroke-width:1;stroke-dasharray:4;"></line>
<line x1="80" y1="380" x2="720" y2="380" style="stroke:rgb(200,200,200);stroke-width:1;stroke-dasharray:4;"></line>
<line x1="80" y1="340" x2="720" y2="340" style="stroke:rgb(200,200,200);stroke-width:1;stroke-dasharray:4;"></line>
<line x1="80" y1="300" x2="720" y2="300" style="stroke:rgb(200,200,200);stroke-width:1;stroke-dasharray:4;"></line>
<line x1="80" y1="260" x2="720" y2="260" style="stroke:rgb(200,200,200);stroke-width:1;stroke-dasharray:4;"></line>
<line x1="80" y1="220" x2="720" y2="220" style="stroke:rgb(200,200,200);stroke-width:1;stroke-dasharray:4;"></line>
<line x1="80" y1="180" x2="720" y2="180" style="stroke:rgb(200,200,200);stroke-width:1;stroke-dasharray:4;"></line>
<line x1="80" y1="140" x2="720" y2="140" style="stroke:rgb(200,200,200);stroke-width:1;stroke-dasharray:4;"></line>
<line x1="80" y1="100" x2="720" y2="100" style="stroke:rgb(200,200,200);stroke-width:1;stroke-dasharray:4;"></line>
<line x1="80" y1="540" x2="80" y2="544" style="stroke:rgb(105,105,105);stroke-width:2;"></line>
<text x="80" y="569" text-anchor="middle" font-family="Arial, Helvetica, sans-serif" style="font-size:20;">0</text>
<line x1="187" y1="540" x2="187" y2="544" style="stroke:rgb(105,105,105);stroke-width:2;"></line>
<text x="187" y="569" text-anchor="middle" font-family="Arial, Helvetica, sans-serif" style="font-size:20;">20</text>
<line x1="293" y1="540" x2="293" y2="544" style="stroke:rgb(105,105,105);stroke-width:2;"></line>
<text x="293" y="569" text-anchor="middle" font-family="Arial, Helvetica, sans-serif" style="font-size:20;">40</text>
<line x1="400" y1="540" x2="400" y2="544" style="stroke:rgb(105,105,105);stroke-width:2;"></line>
<text x="400" y="569" text-anchor="middle" font-family="Arial, Helvetica, sans-serif" style="font-size:20;">60</text>
<line x1="507" y1="540" x2="507" y2="544" style="stroke:rgb(105,105,105);stroke-width:2;"></line>
<text x="507" y="569" text-anchor="middle" font-family="Arial, Helvetica, sans-serif" style="font-size:20;">80</text>
<line x1="613" y1="540" x2="613" y2="544" style="stroke:rgb(105,105,105);stroke-width:2;"></line>
<text x="613" y="569" text-anchor="middle" font-family="Arial, Helvetica, sans-serif" style="font-size:20;">100</text>
<line x1="720" y1="540" x2="720" y2="544" style="stroke:rgb(105,105,105);stroke-width:2;"></line>
<text x="720" y="569" text-anchor="middle" font-family="Arial, Helvetica, sans-serif" style="font-size:20;">120</text>
<line x1="80" y1="540" x2="76" y2="540" style="stroke:rgb(105,105,105);stroke-width:1;"></line>
<text x="66" y="548" text-anchor="end" font-family="Arial, Helvetica, sans-serif" style="font-size:20;">-1.2</text>
<line x1="80" y1="500" x2="76" y2="500" style="stroke:rgb(105,105,105);stroke-width:1;"></line>
<text x="66" y="508" text-anchor="end" font-family="Arial, Helvetica, sans-serif" style="font-size:20;">-1</text>
<line x1="80" y1="460" x2="76" y2="460" style="stroke:rgb(105,105,105);stroke-width:1;"></line>
<text x="66" y="468" text-anchor="end" font-family="Arial, Helvetica, sans-serif" style="font-size:20;">-0.8</text>
<line x1="80" y1="420" x2="76" y2="420" style="stroke:rgb(105,105,105);stroke-width:1;"></line>
<text x="66" y="428" text-anchor="end" font-family="Arial, Helvetica, sans-serif" style="font-size:20;">-0.6</text>
<line x1="80" y1="380" x2="76" y2="380" style="stroke:rgb(105,105,105);stroke-width:1;"></line>
<text x="66" y="388" text-anchor="end" font-family="Arial, Helvetica, sans-serif" style="font-size:20;">-0.4</text>
<line x1="80" y1="340" x2="76" y2="340" style="stroke:rgb(105,105,105);stroke-width:1;"></line>
<text x="66" y="348" text-anchor="end" font-family="Arial, Helvetica, sans-serif" style="font-size:20;">-0.2</text>
<line x1="80" y1="300" x2="76" y2="300" style="stroke:rgb(105,105,105);stroke-width:1;"></line>
<text x="66" y="308" text-anchor="end" font-family="Arial, Helvetica, sans-serif" style="font-size:20;">0</text>
<line x1="80" y1="260" x2="76" y2="260" style="stroke:rgb(105,105,105);stroke-width:1;"></line>
<text x="66" y="268" text-anchor="end" font-family="Arial, Helvetica, sans-serif" style="font-size:20;">0.2</text>
<line x1="80" y1="220" x2="76" y2="220" style="stroke:rgb(105,105,105);stroke-width:1;"></line>
<text x="66" y="228" text-anchor="end" font-family="Arial, Helvetica, sans-serif" style="font-size:20;">0.4</text>
<line x1="80" y1="180" x2="76" y2="180" style="stroke:rgb(105,105,105);stroke-width:1;"></line>
<text x="66" y="188" text-anchor="end" font-family="Arial, Helvetica, sans-serif" style="font-size:20;">0.6</text>
<line x1="80" y1="140" x2="76" y2="140" style="stroke:rgb(105,105,105);stroke-width:1;"></line>
<text x="66" y="148" text-anchor="end" font-family="Arial, Helvetica, sans-serif" style="font-size:20;">0.8</text>
<line x1="80" y1="100" x2="76" y2="100" style="stroke:rgb(105,105,105);stroke-width:1;"></line>
<text x="66" y="108" text-anchor="end" font-family="Arial, Helvetica, sans-serif" style="font-size:20;">1</text>
<line x1="80" y1="60" x2="76" y2="60" style="stroke:rgb(105,105,105);stroke-width:1;"></line>
<text x="66" y="68" text-anchor="end" font-family="Arial, Helvetica, sans-serif" style="font-size:20;">1.2</text>
<text x="650" y="90" text-anchor="end" font-family="Arial, Helvetica, sans-serif" style="font-size:20;">Cd</text>
<line stroke-dasharray="0" x1="660" y1="80" x2="700" y2="80" style="stroke:#CC6677;stroke-width:2;"></line>
<path d=" M 8.500000e+01 3.000000e+02 L 9.100000e+01 3.000000e+02 L 9.600000e+01 2.990000e+02 L 1.010000e+02 2.990000e+02 L 1.070000e+02 2.990000e+02 L 1.120000e+02 2.990000e+02 L 1.170000e+02 2.990000e+02 L 1.230000e+02 2.990000e+02 L 1.280000e+02 2.990000e+02 L 1.330000e+02 2.990000e+02 L 1.390000e+02 2.990000e+02 L 1.440000e+02 3.000000e+02 L 1.490000e+02 3.000000e+02 L 1.550000e+02 3.000000e+02 L 1.600000e+02 3.000000e+02 L 1.650000e+02 3.000000e+02 L 1.710000e+02 3.000000e+02 L 1.760000e+02 3.000000e+02 L 1.810000e+02 3.000000e+02 L 1.870000e+02 3.000000e+02 L 1.920000e+02 3.000000e+02 L 1.970000e+02 3.000000e+02 L 2.030000e+02 3.000000e+02 L 2.080000e+02 3.000000e+02 L 2.130000e+02 3.000000e+02 L 2.190000e+02 3.000000e+02 L 2.240000e+02 3.000000e+02 L 2.290000e+02 3.000000e+02 L 2.350000e+02 3.000000e+02 L 2.400000e+02 3.000000e+02 L 2.450000e+02 3.000000e+02 L 2.510000e+02 3.000000e+02 L 2.560000e+02 3.000000e+02 L 2.610000e+02 3.000000e+02 L 2.670000e+02 3.000000e+02 L 2.720000e+02 3.000000e+02 L 2.770000e+02 3.000000e+02 L 2.830000e+02 3.000000e+02 L 2.880000e+02 3.000000e+02 L 2.930000e+02 3.000000e+02 L 2.990000e+02 3.000000e+02 L 3.040000e+02 3.000000e+02 L 3.090000e+02 3.000000e+02 L 3.150000e+02 3.000000e+02 L 3.200000e+02 3.000000e+02 L 3.250000e+02 3.000000e+02 L 3.310000e+02 3.000000e+02 L 3.360000e+02 3.000000e+02 L 3.410000e+02 3.000000e+02 L 3.470000e+02 3.000000e+02 L 3.520000e+02 3.000000e+02 L 3.570000e+02 3.000000e+02 L 3.630000e+02 3.000000e+02 L 3.680000e+02 3.000000e+02 L 3.730000e+02 3.000000e+02 L 3.790000e+02 3.000000e+02 L 3.840000e+02 3.000000e+02 L 3.890000e+02 3.000000e+02 L 3.950000e+02 3.000000e+02 L 4.000000e+02 3.000000e+02 L 4.050000e+02 3.000000e+02 L 4.110000e+02 3.000000e+02 L 4.160000e+02 3.000000e+02 L 4.210000e+02 3.000000e+02 L 4.270000e+02 3.000000e+02 L 4.320000e+02 3.000000e+02 L 4.370000e+02 3.000000e+02 L 4.430000e+02 3.000000e+02 L 4.480000e+02 3.000000e+02 L 4.530000e+02 3.000000e+02 L 4.590000e+02 3.000000e+02 L 4.640000e+02 3.000000e+02 L 4.690000e+02 3.000000e+02 L 4.750000e+02 3.000000e+02 L 4.800000e+02 3.000000e+02 L 4.850000e+02 3.000000e+02 L 4.910000e+02 3.000000e+02 L 4.960000e+02 3.000000e+02 L 5.010000e+02 3.000000e+02 L 5.070000e+02 3.000000e+02 L 5.120000e+02 3.000000e+02 L 5.170000e+02 3.000000e+02 L 5.230000e+02 3.000000e+02 L 5.280000e+02 3.000000e+02 L 5.330000e+02 3.000000e+02 L 5.390000e+02 3.000000e+02 L 5.440000e+02 3.000000e+02 L 5.490000e+02 3.000000e+02 L 5.550000e+02 3.000000e+02 L 5.600000e+02 3.000000e+02 L 5.650000e+02 3.000000e+02 L 5.710000e+02 3.000000e+02 L 5.760000e+02 3.000000e+02 L 5.810000e+02 3.000000e+02 L 5.870000e+02 3.000000e+02 L 5.920000e+02 3.000000e+02 L 5.970000e+02 3.000000e+02 L 6.030000e+02 3.000000e+02 L 6.080000e+02 3.000000e+02 L 6.130000e+02 3.000000e+02" style="stroke:#CC6677; fill:none; stroke-width:2;" stroke-dasharray="0" />
<text x="650" y="120" text-anchor="end" font-family="Arial, Helvetica, sans-serif" style="font-size:20;">Cd(f)</text>
<line stroke-dasharray="0" x1="660" y1="110" x2="700" y2="110" style="stroke:#332288;stroke-width:2;"></line>
<path d=" M 8.500000e+01 3.000000e+02 L 9.100000e+01 3.000000e+02 L 9.600000e+01 3.000000e+02 L 1.010000e+02 3.000000e+02 L 1.070000e+02 3.000000e+02 L 1.120000e+02 3.000000e+02 L 1.170000e+02 3.000000e+02 L 1.230000e+02 3.000000e+02 L 1.280000e+02 3.000000e+02 L 1.330000e+02 3.000000e+02 L 1.390000e+02 3.000000e+02 L 1.440000e+02 3.000000e+02 L 1.490000e+02 3.000000e+02 L 1.550000e+02 3.000000e+02 L 1.600000e+02 3.000000e+02 L 1.650000e+02 3.000000e+02 L 1.710000e+02 3.000000e+02 L 1.760000e+02 3.000000e+02 L 1.810000e+02 3.000000e+02 L 1.870000e+02 3.000000e+02 L 1.920000e+02 3.000000e+02 L 1.970000e+02 3.000000e+02 L 2.030000e+02 3.000000e+02 L 2.080000e+02 3.000000e+02 L 2.130000e+02 3.000000e+02 L 2.190000e+02 3.000000e+02 L 2.240000e+02 3.000000e+02 L 2.290000e+02 3.000000e+02 L 2.350000e+02 3.000000e+02 L 2.400000e+02 3.000000e+02 L 2.450000e+02 3.000000e+02 L 2.510000e+02 3.000000e+02 L 2.560000e+02 3.000000e+02 L 2.610000e+02 3.000000e+02 L 2.670000e+02 3.000000e+02 L 2.720000e+02 3.000000e+02 L 2.770000e+02 3.000000e+02 L 2.830000e+02 3.000000e+02 L 2.880000e+02 3.000000e+02 L 2.930000e+02 3.000000e+02 L 2.990000e+02 3.000000e+02 L 3.040000e+02 3.000000e+02 L 3.090000e+02 3.000000e+02 L 3.150000e+02 3.000000e+02 L 3.200000e+02 3.000000e+02 L 3.250000e+02 3.000000e+02 L 3.310000e+02 3.000000e+02 L 3.360000e+02 3.000000e+02 L 3.410000e+02 3.000000e+02 L 3.470000e+02 3.000000e+02 L 3.520000e+02 3.000000e+02 L 3.570000e+02 3.000000e+02 L 3.630000e+02 3.000000e+02 L 3.680000e+02 3.000000e+02 L 3.730000e+02 3.000000e+02 L 3.790000e+02 3.000000e+02 L 3.840000e+02 3.000000e+02 L 3.890000e+02 3.000000e+02 L 3.950000e+02 3.000000e+02 L 4.000000e+02 3.000000e+02 L 4.050000e+02 3.000000e+02 L 4.110000e+02 3.000000e+02 L 4.160000e+02 3.000000e+02 L 4.210000e+02 3.000000e+02 L 4.270000e+02 3.000000e+02 L 4.320000e+02 3.000000e+02 L 4.370000e+02 3.000000e+02 L 4.430000e+02 3.000000e+02 L 4.480000e+02 3.000000e+02 L 4.530000e+02 3.000000e+02 L 4.590000e+02 3.000000e+02 L 4.640000e+02 3.000000e+02 L 4.690000e+02 3.000000e+02 L 4.750000e+02 3.000000e+02 L 4.800000e+02 3.000000e+02 L 4.850000e+02 3.000000e+02 L 4.910000e+02 3.000000e+02 L 4.960000e+02 3.000000e+02 L 5.010000e+02 3.000000e+02 L 5.070000e+02 3.000000e+02 L 5.120000e+02 3.000000e+02 L 5.170000e+02 3.000000e+02 L 5.230000e+02 3.000000e+02 L 5.280000e+02 3.000000e+02 L 5.330000e+02 3.000000e+02 L 5.390000e+02 3.000000e+02 L 5.440000e+02 3.000000e+02 L 5.490000e+02 3.000000e+02 L 5.550000e+02 3.000000e+02 L 5.600000e+02 3.000000e+02 L 5.650000e+02 3.000000e+02 L 5.710000e+02 3.000000e+02 L 5.760000e+02 3.000000e+02 L 5.810000e+02 3.000000e+02 L 5.870000e+02 3.000000e+02 L 5.920000e+02 3.000000e+02 L 5.970000e+02 3.000000e+02 L 6.030000e+02 3.000000e+02 L 6.080000e+02 3.000000e+02 L 6.130000e+02 3.000000e+02" style="stroke:#332288; fill:none; stroke-width:2;" stroke-dasharray="0" />
<text x="650" y="150" text-anchor="end" font-family="Arial, Helvetica, sans-serif" style="font-size:20;">Cd(r)</text>
<line stroke-dasharray="0" x1="660" y1="140" x2="700" y2="140" style="stroke:#DDCC77;stroke-width:2;"></line>
<path d=" M 8.500000e+01 3.000000e+02 L 9.100000e+01 3.000000e+02 L 9.600000e+01 3.000000e+02 L 1.010000e+02 3.000000e+02 L 1.070000e+02 3.000000e+02 L 1.120000e+02 3.000000e+02 L 1.170000e+02 3.000000e+02 L 1.230000e+02 3.000000e+02 L 1.280000e+02 3.000000e+02 L 1.330000e+02 3.000000e+02 L 1.390000e+02 3.000000e+02 L 1.440000e+02 3.000000e+02 L 1.490000e+02 3.000000e+02 L 1.550000e+02 3.000000e+02 L 1.600000e+02 3.000000e+02 L 1.650000e+02 3.000000e+02 L 1.710000e+02 3.000000e+02 L 1.760000e+02 3.000000e+02 L 1.810000e+02 3.000000e+02 L 1.870000e+02 3.000000e+02 L 1.920000e+02 3.000000e+02 L 1.970000e+02 3.000000e+02 L 2.030000e+02 3.000000e+02 L 2.080000e+02 3.000000e+02 L 2.130000e+02 3.000000e+02 L 2.190000e+02 3.000000e+02 L 2.240000e+02 3.000000e+02 L 2.290000e+02 3.000000e+02 L 2.350000e+02 3.000000e+02 L 2.400000e+02 3.000000e+02 L 2.450000e+02 3.000000e+02 L 2.510000e+02 3.000000e+02 L 2.560000e+02 3.000000e+02 L 2.610000e+02 3.000000e+02 L 2.670000e+02 3.000000e+02 L 2.720000e+02 3.000000e+02 L 2.770000e+02 3.000000e+02 L 2.830000e+02 3.000000e+02 L 2.880000e+02 3.000000e+02 L 2.930000e+02 3.000000e+02 L 2.990000e+02 3.000000e+02 L 3.040000e+02 3.000000e+02 L 3.090000e+02 3.000000e+02 L 3.150000e+02 3.000000e+02 L 3.200000e+02 3.000000e+02 L 3.250000e+02 3.000000e+02 L 3.310000e+02 3.000000e+02 L 3.360000e+02 3.000000e+02 L 3.410000e+02 3.000000e+02 L 3.470000e+02 3.000000e+02 L 3.520000e+02 3.000000e+02 L 3.570000e+02 3.000000e+02 L 3.630000e+02 3.000000e+02 L 3.680000e+02 3.000000e+02 L 3.730000e+02 3.000000e+02 L 3.790000e+02 3.000000e+02 L 3.840000e+02 3.000000e+02 L 3.890000e+02 3.000000e+02 L 3.950000e+02 3.000000e+02 L 4.000000e+02 3.000000e+02 L 4.050000e+02 3.000000e+02 L 4.110000e+02 3.000000e+02 L 4.160000e+02 3.000000e+02 L 4.210000e+02 3.000000e+02 L 4.270000e+02 3.000000e+02 L 4.320000e+02 3.000000e+02 L 4.370000e+02 3.000000e+02 L 4.430000e+02 3.000000e+02 L 4.480000e+02 3.000000e+02 L 4.530000e+02 3.000000e+02 L 4.590000e+02 3.000000e+02 L 4.640000e+02 3.000000e+02 L 4.690000e+02 3.000000e+02 L 4.750000e+02 3.000000e+02 L 4.800000e+02 3.000000e+02 L 4.850000e+02 3.000000e+02 L 4.910000e+02 3.000000e+02 L 4.960000e+02 3.000000e+02 L 5.010000e+02 3.000000e+02 L 5.070000e+02 3.000000e+02 L 5.120000e+02 3.000000e+02 L 5.170000e+02 3.000000e+02 L 5.230000e+02 3.000000e+02 L 5.280000e+02 3.000000e+02 L 5.330000e+02 3.000000e+02 L 5.390000e+02 3.000000e+02 L 5.440000e+02 3.000000e+02 L 5.490000e+02 3.000000e+02 L 5.550000e+02 3.000000e+02 L 5.600000e+02 3.000000e+02 L 5.650000e+02 3.000000e+02 L 5.710000e+02 3.000000e+02 L 5.760000e+02 3.000000e+02 L 5.810000e+02 3.000000e+02 L 5.870000e+02 3.000000e+02 L 5.920000e+02 3.000000e+02 L 5.970000e+02 3.000000e+02 L 6.030000e+02 3.000000e+02 L 6.080000e+02 3.000000e+02 L 6.130000e+02 3.000000e+02" style="stroke:#DDCC77; fill:none; stroke-width:2;" stroke-dasharray="0" />
<text x="650" y="180" text-anchor="end" font-family="Arial, Helvetica, sans-serif" style="font-size:20;">Cl</text>
<line stroke-dasharray="0" x1="660" y1="170" x2="700" y2="170" style="stroke:#117733;stroke-width:2;"></line>
<path d=" M 8.500000e+01 3.000000e+02 L 9.100000e+01 3.000000e+02 L 9.600000e+01 3.000000e+02 L 1.010000e+02 3.000000e+02 L 1.070000e+02 3.000000e+02 L 1.120000e+02 3.000000e+02 L 1.170000e+02 3.000000e+02 L 1.230000e+02 3.000000e+02 L 1.280000e+02 3.000000e+02 L 1.330000e+02 3.000000e+02 L 1.390000e+02 3.000000e+02 L 1.440000e+02 3.000000e+02 L 1.490000e+02 3.000000e+02 L 1.550000e+02 3.000000e+02 L 1.600000e+02 3.000000e+02 L 1.650000e+02 3.000000e+02 L 1.710000e+02 3.000000e+02 L 1.760000e+02 3.000000e+02 L 1.810000e+02 3.000000e+02 L 1.870000e+02 3.000000e+02 L 1.920000e+02 3.000000e+02 L 1.970000e+02 3.000000e+02 L 2.030000e+02 3.000000e+02 L 2.080000e+02 3.000000e+02 L 2.130000e+02 3.000000e+02 L 2.190000e+02 3.000000e+02 L 2.240000e+02 3.000000e+02 L 2.290000e+02 3.000000e+02 L 2.350000e+02 3.000000e+02 L 2.400000e+02 3.000000e+02 L 2.450000e+02 3.000000e+02 L 2.510000e+02 3.000000e+02 L 2.560000e+02 3.000000e+02 L 2.610000e+02 3.000000e+02 L 2.670000e+02 3.000000e+02 L 2.720000e+02 3.000000e+02 L 2.770000e+02 3.000000e+02 L 2.830000e+02 3.000000e+02 L 2.880000e+02 3.000000e+02 L 2.930000e+02 3.000000e+02 L 2.990000e+02 3.000000e+02 L 3.040000e+02 3.000000e+02 L 3.090000e+02 3.000000e+02 L 3.150000e+02 3.000000e+02 L 3.200000e+02 3.000000e+02 L 3.250000e+02 3.000000e+02 L 3.310000e+02 3.000000e+02 L 3.360000e+02 3.000000e+02 L 3.410000e+02 3.000000e+02 L 3.470000e+02 3.000000e+02 L 3.520000e+02 3.000000e+02 L 3.570000e+02 3.000000e+02 L 3.630000e+02 3.000000e+02 L 3.680000e+02 3.000000e+02 L 3.730000e+02 3.000000e+02 L 3.790000e+02 3.000000e+02 L 3.840000e+02 3.000000e+02 L 3.890000e+02 3.000000e+02 L 3.950000e+02 3.000000e+02 L 4.000000e+02 3.000000e+02 L 4.050000e+02 3.000000e+02 L 4.110000e+02 3.000000e+02 L 4.160000e+02 3.000000e+02 L 4.210000e+02 3.000000e+02 L 4.270000e+02 3.000000e+02 L 4.320000e+02 3.000000e+02 L 4.370000e+02 3.000000e+02 L 4.430000e+02 3.000000e+02 L 4.480000e+02 3.000000e+02 L 4.530000e+02 3.000000e+02 L 4.590000e+02 3.000000e+02 L 4.640000e+02 3.000000e+02 L 4.690000e+02 3.000000e+02 L 4.750000e+02 3.000000e+02 L 4.800000e+02 3.000000e+02 L 4.850000e+02 3.000000e+02 L 4.910000e+02 3.000000e+02 L 4.960000e+02 3.000000e+02 L 5.010000e+02 3.000000e+02 L 5.070000e+02 3.000000e+02 L 5.120000e+02 3.000000e+02 L 5.170000e+02 3.000000e+02 L 5.230000e+02 3.000000e+02 L 5.280000e+02 3.000000e+02 L 5.330000e+02 3.000000e+02 L 5.390000e+02 3.000000e+02 L 5.440000e+02 3.000000e+02 L 5.490000e+02 3.000000e+02 L 5.550000e+02 3.000000e+02 L 5.600000e+02 3.000000e+02 L 5.650000e+02 3.000000e+02 L 5.710000e+02 3.000000e+02 L 5.760000e+02 3.000000e+02 L 5.810000e+02 3.000000e+02 L 5.870000e+02 3.000000e+02 L 5.920000e+02 3.000000e+02 L 5.970000e+02 3.000000e+02 L 6.030000e+02 3.000000e+02 L 6.080000e+02 3.000000e+02 L 6.130000e+02 3.000000e+02" style="stroke:#117733; fill:none; stroke-width:2;" stroke-dasharray="0" />
<text x="650" y="210" text-anchor="end" font-family="Arial, Helvetica, sans-serif" style="font-size:20;">Cl(f)</text>
<line stroke-dasharray="0" x1="660" y1="200" x2="700" y2="200" style="stroke:#88CCEE;stroke-width:2;"></line>
<path d=" M 8.500000e+01 3.000000e+02 L 9.100000e+01 3.000000e+02 L 9.600000e+01 3.000000e+02 L 1.010000e+02 3.000000e+02 L 1.070000e+02 3.000000e+02 L 1.120000e+02 3.000000e+02 L 1.170000e+02 3.000000e+02 L 1.230000e+02 3.000000e+02 L 1.280000e+02 3.000000e+02 L 1.330000e+02 3.000000e+02 L 1.390000e+02 3.000000e+02 L 1.440000e+02 3.000000e+02 L 1.490000e+02 3.000000e+02 L 1.550000e+02 3.000000e+02 L 1.600000e+02 3.000000e+02 L 1.650000e+02 3.000000e+02 L 1.710000e+02 3.000000e+02 L 1.760000e+02 3.000000e+02 L 1.810000e+02 3.000000e+02 L 1.870000e+02 3.000000e+02 L 1.920000e+02 3.000000e+02 L 1.970000e+02 3.000000e+02 L 2.030000e+02 3.000000e+02 L 2.080000e+02 3.000000e+02 L 2.130000e+02 3.000000e+02 L 2.190000e+02 3.000000e+02 L 2.240000e+02 3.000000e+02 L 2.290000e+02 3.000000e+02 L 2.350000e+02 3.000000e+02 L 2.400000e+02 3.000000e+02 L 2.450000e+02 3.000000e+02 L 2.510000e+02 3.000000e+02 L 2.560000e+02 3.000000e+02 L 2.610000e+02 3.000000e+02 L 2.670000e+02 3.000000e+02 L 2.720000e+02 3.000000e+02 L 2.770000e+02 3.000000e+02 L 2.830000e+02 3.000000e+02 L 2.880000e+02 3.000000e+02 L 2.930000e+02 3.000000e+02 L 2.990000e+02 3.000000e+02 L 3.040000e+02 3.000000e+02 L 3.090000e+02 3.000000e+02 L 3.150000e+02 3.000000e+02 L 3.200000e+02 3.000000e+02 L 3.250000e+02 3.000000e+02 L 3.310000e+02 3.000000e+02 L 3.360000e+02 3.000000e+02 L 3.410000e+02 3.000000e+02 L 3.470000e+02 3.000000e+02 L 3.520000e+02 3.000000e+02 L 3.570000e+02 3.000000e+02 L 3.630000e+02 3.000000e+02 L 3.680000e+02 3.000000e+02 L 3.730000e+02 3.000000e+02 L 3.790000e+02 3.000000e+02 L 3.840000e+02 3.000000e+02 L 3.890000e+02 3.000000e+02 L 3.950000e+02 3.000000e+02 L 4.000000e+02 3.000000e+02 L 4.050000e+02 3.000000e+02 L 4.110000e+02 3.000000e+02 L 4.160000e+02 3.000000e+02 L 4.210000e+02 3.000000e+02 L 4.270000e+02 3.000000e+02 L 4.320000e+02 3.000000e+02 L 4.370000e+02 3.000000e+02 L 4.430000e+02 3.000000e+02 L 4.480000e+02 3.000000e+02 L 4.530000e+02 3.000000e+02 L 4.590000e+02 3.000000e+02 L 4.640000e+02 3.000000e+02 L 4.690000e+02 3.000000e+02 L 4.750000e+02 3.000000e+02 L 4.800000e+02 3.000000e+02 L 4.850000e+02 3.000000e+02 L 4.910000e+02 3.000000e+02 L 4.960000e+02 3.000000e+02 L 5.010000e+02 3.000000e+02 L 5.070000e+02 3.000000e+02 L 5.120000e+02 3.000000e+02 L 5.170000e+02 3.000000e+02 L 5.230000e+02 3.000000e+02 L 5.280000e+02 3.000000e+02 L 5.330000e+02 3.000000e+02 L 5.390000e+02 3.000000e+02 L 5.440000e+02 3.000000e+02 L 5.490000e+02 3.000000e+02 L 5.550000e+02 3.000000e+02 L 5.600000e+02 3.000000e+02 L 5.650000e+02 3.000000e+02 L 5.710000e+02 3.000000e+02 L 5.760000e+02 3.000000e+02 L 5.810000e+02 3.000000e+02 L 5.870000e+02 3.000000e+02 L 5.920000e+02 3.000000e+02 L 5.970000e+02 3.000000e+02 L 6.030000e+02 3.000000e+02 L 6.080000e+02 3.000000e+02 L 6.130000e+02 3.000000e+02" style="stroke:#88CCEE; fill:none; stroke-width:2;" stroke-dasharray="0" />
<text x="650" y="240" text-anchor="end" font-family="Arial, Helvetica, sans-serif" style="font-size:20;">Cl(r)</text>
<line stroke-dasharray="0" x1="660" y1="230" x2="700" y2="230" style="stroke:#882255;stroke-width:2;"></line>
<path d=" M 8.500000e+01 3.000000e+02 L 9.100000e+01 3.000000e+02 L 9.600000e+01 3.000000e+02 L 1.010000e+02 3.000000e+02 L 1.070000e+02 3.000000e+02 L 1.120000e+02 3.000000e+02 L 1.170000e+02 3.000000e+02 L 1.230000e+02 3.000000e+02 L 1.280000e+02 3.000000e+02 L 1.330000e+02 3.000000e+02 L 1.390000e+02 3.000000e+02 L 1.440000e+02 3.000000e+02 L 1.490000e+02 3.000000e+02 L 1.550000e+02 3.000000e+02 L 1.600000e+02 3.000000e+02 L 1.650000e+02 3.000000e+02 L 1.710000e+02 3.000000e+02 L 1.760000e+02 3.000000e+02 L 1.810000e+02 3.000000e+02 L 1.870000e+02 3.000000e+02 L 1.920000e+02 3.000000e+02 L 1.970000e+02 3.000000e+02 L 2.030000e+02 3.000000e+02 L 2.080000e+02 3.000000e+02 L 2.130000e+02 3.000000e+02 L 2.190000e+02 3.000000e+02 L 2.240000e+02 3.000000e+02 L 2.290000e+02 3.000000e+02 L 2.350000e+02 3.000000e+02 L 2.400000e+02 3.000000e+02 L 2.450000e+02 3.000000e+02 L 2.510000e+02 3.000000e+02 L 2.560000e+02 3.000000e+02 L 2.610000e+02 3.000000e+02 L 2.670000e+02 3.000000e+02 L 2.720000e+02 3.000000e+02 L 2.770000e+02 3.000000e+02 L 2.830000e+02 3.000000e+02 L 2.880000e+02 3.000000e+02 L 2.930000e+02 3.000000e+02 L 2.990000e+02 3.000000e+02 L 3.040000e+02 3.000000e+02 L 3.090000e+02 3.000000e+02 L 3.150000e+02 3.000000e+02 L 3.200000e+02 3.000000e+02 L 3.250000e+02 3.000000e+02 L 3.310000e+02 3.000000e+02 L 3.360000e+02 3.000000e+02 L 3.410000e+02 3.000000e+02 L 3.470000e+02 3.000000e+02 L 3.520000e+02 3.000000e+02 L 3.570000e+02 3.000000e+02 L 3.630000e+02 3.000000e+02 L 3.680000e+02 3.000000e+02 L 3.730000e+02 3.000000e+02 L 3.790000e+02 3.000000e+02 L 3.840000e+02 3.000000e+02 L 3.890000e+02 3.000000e+02 L 3.950000e+02 3.000000e+02 L 4.000000e+02 3.000000e+02 L 4.050000e+02 3.000000e+02 L 4.110000e+02 3.000000e+02 L 4.160000e+02 3.000000e+02 L 4.210000e+02 3.000000e+02 L 4.270000e+02 3.000000e+02 L 4.320000e+02 3.000000e+02 L 4.370000e+02 3.000000e+02 L 4.430000e+02 3.000000e+02 L 4.480000e+02 3.000000e+02 L 4.530000e+02 3.000000e+02 L 4.590000e+02 3.000000e+02 L 4.640000e+02 3.000000e+02 L 4.690000e+02 3.000000e+02 L 4.750000e+02 3.000000e+02 L 4.800000e+02 3.000000e+02 L 4.850000e+02 3.000000e+02 L 4.910000e+02 3.000000e+02 L 4.960000e+02 3.000000e+02 L 5.010000e+02 3.000000e+02 L 5.070000e+02 3.000000e+02 L 5.120000e+02 3.000000e+02 L 5.170000e+02 3.000000e+02 L 5.230000e+02 3.000000e+02 L 5.280000e+02 3.000000e+02 L 5.330000e+02 3.000000e+02 L 5.390000e+02 3.000000e+02 L 5.440000e+02 3.000000e+02 L 5.490000e+02 3.000000e+02 L 5.550000e+02 3.000000e+02 L 5.600000e+02 3.000000e+02 L 5.650000e+02 3.000000e+02 L 5.710000e+02 3.000000e+02 L 5.760000e+02 3.000000e+02 L 5.810000e+02 3.000000e+02 L 5.870000e+02 3.000000e+02 L 5.920000e+02 3.000000e+02 L 5.970000e+02 3.000000e+02 L 6.030000e+02 3.000000e+02 L 6.080000e+02 3.000000e+02 L 6.130000e+02 3.000000e+02" style="stroke:#882255; fill:none; stroke-width:2;" stroke-dasharray="0" />
</svg>
